<?xml version="1.0" standalone="no"?>
<!DOCTYPE svg PUBLIC "-//W3C//DTD SVG 1.1//EN" "http://www.w3.org/Graphics/SVG/1.1/DTD/svg11.dtd" >
<svg>
<metadata>
Created by FontForge 20090914 at Wed Aug 31 15:21:11 2022
 By www-data
Copyright 2013 The Exo 2 Project Authors (https://github.com/NDISCOVER/Exo-2.0)
</metadata>
<defs>
<font id="Exo2-Regular" horiz-adv-x="668" >
  <font-face 
    font-family="Exo 2"
    font-weight="400"
    font-stretch="normal"
    units-per-em="1000"
    panose-1="0 0 0 0 0 0 0 0 0 0"
    ascent="800"
    descent="-200"
    x-height="487"
    cap-height="690"
    bbox="-411 -275 1218 1051"
    underline-thickness="50"
    underline-position="-50"
    unicode-range="U+000D-U+FB02"
  />
<missing-glyph horiz-adv-x="624" 
d="M138 690v-690h-41v690h41zM527 690v-690h-41v690h41zM97 690h430v-41h-430v41zM97 41h430v-41h-430v41z" />
    <glyph glyph-name="fi" unicode="fi" horiz-adv-x="606" 
d="M258 717c14 0 32.3311 -0.500977 54.998 -1.50098s42.334 -2.83301 59.001 -5.5v-63h-84c-32 0 -54.5 -6.83301 -67.5 -20.5s-19.5 -37.5 -19.5 -71.5v-555h-85v564c0 32.667 4.66699 60.334 14 83.001s24.333 40 45 52s48.334 18 83.001 18zM449.998 486.999v-67h-422
v62l93 5h329zM523.998 486.999v-487h-84v487h84zM500.998 693.999c17.333 0 26 -8.66699 26 -26v-57c0 -17.333 -8.66699 -26 -26 -26h-40c-16.667 0 -25 8.66699 -25 26v57c0 17.333 8.33301 26 25 26h40z" />
    <glyph glyph-name="fl" unicode="fl" 
d="M257 717l42.499 0.000976562c17.667 0 37.334 -0.333008 59.001 -1l65.5 -2c22 -0.666992 42.833 -1.83398 62.5 -3.50098s36.167 -3.5 49.5 -5.5v-581c0 -22 5.66699 -38.5 17 -49.5s27.666 -16.5 48.999 -16.5h47l10 -54c-6 -2.66699 -14.5 -5 -25.5 -7
s-22.333 -3.5 -34 -4.5s-21.5 -1.5 -29.5 -1.5c-36.667 0 -65.667 10 -87 30s-32 48 -32 84v543h-164c-32 0.666992 -54.333 -6 -67 -20s-19 -38.333 -19 -73v-555h-86v564c0 32.667 4.66699 60.5 14 83.5s24.333 40.5 45 52.5s48.334 17.667 83.001 17zM345.999 487.001
v-67h-318v62l92 5h226z" />
    <glyph glyph-name="f_f" unicode="ff" horiz-adv-x="711" 
d="M258 704c10 0 22.334 -0.166992 37.001 -0.5s29.667 -1 45 -2s28.666 -2.5 39.999 -4.5l-6 -63h-86c-32 0 -54.5 -5.5 -67.5 -16.5s-19.5 -32.833 -19.5 -65.5v-552h-85v562c0 30 5.16699 55.667 15.5 77s26 37.5 47 48.5s47.5 16.5 79.5 16.5zM588.001 717
c10.667 0 24.332 -0.166992 40.999 -0.5s33.667 -1 51 -2s32.333 -2.5 45 -4.5l-6 -63h-101c-32 0 -54.333 -6.33301 -67 -19s-19 -33.667 -19 -63v-565h-86v574c0 30.667 4.66699 56.5 14 77.5s24.333 37.167 45 48.5s48.334 17 83.001 17zM686.999 487v-67h-659v62l93 5
h566z" />
    <glyph glyph-name="f_f_i" unicode="ffi" horiz-adv-x="929" 
d="M251 704c9.33301 0 21.332 -0.166992 35.999 -0.5s29.834 -1 45.501 -2s29.167 -2.5 40.5 -4.5l-7 -63h-85c-32 0 -54.5 -5.5 -67.5 -16.5s-19.5 -32.833 -19.5 -65.5v-552h-85v562c0 30 5.16699 55.667 15.5 77s26 37.5 47 48.5s47.5 16.5 79.5 16.5zM772.999 487v-67
h-745v62l93 5h652zM580.999 717c14.667 0 33.832 -0.500977 57.499 -1.50098s44.167 -2.83301 61.5 -5.5v-63h-89c-32 0 -54.5 -6.83301 -67.5 -20.5s-19.5 -37.5 -19.5 -71.5v-555h-85v564c0 32.667 4.66699 60.334 14 83.001s24.333 40 45 52s48.334 18 83.001 18z
M846.997 486.999v-487h-84v487h84zM823.997 693.999c17.333 0 26 -8.66699 26 -26v-57c0 -17.333 -8.66699 -26 -26 -26h-40c-16.667 0 -25 8.66699 -25 26v57c0 17.333 8.33301 26 25 26h40z" />
    <glyph glyph-name="f_f_l" unicode="ffl" horiz-adv-x="1000" 
d="M258 704c10 0 22.334 -0.166992 37.001 -0.5s29.667 -1 45 -2s28.666 -2.5 39.999 -4.5l-6 -63h-86c-32 0 -54.5 -5.5 -67.5 -16.5s-19.5 -32.833 -19.5 -65.5v-552h-85v562c0 30 5.16699 55.667 15.5 77s26 37.5 47 48.5s47.5 16.5 79.5 16.5zM588.001 717
l42.499 0.000976562c17.667 0 37.334 -0.333008 59.001 -1l65.5 -2c22 -0.666992 42.833 -1.83398 62.5 -3.50098s36.167 -3.5 49.5 -5.5v-581c0 -22 5.66699 -38.5 17 -49.5s27.666 -16.5 48.999 -16.5h47l10 -54c-6 -2.66699 -14.5 -5 -25.5 -7s-22.333 -3.5 -34 -4.5
s-21.5 -1.5 -29.5 -1.5c-36.667 0 -65.667 10 -87 30s-32 48 -32 84v543h-164c-32 0.666992 -54.333 -6 -67 -20s-19 -38.333 -19 -73v-555h-86v564c0 32.667 4.66699 60.5 14 83.5s24.333 40.5 45 52.5s48.334 17.667 83.001 17zM680 487.001v-67h-652v62l93 5h559z" />
    <glyph glyph-name=".notdef" horiz-adv-x="624" 
d="M138 690v-690h-41v690h41zM527 690v-690h-41v690h41zM97 690h430v-41h-430v41zM97 41h430v-41h-430v41z" />
    <glyph glyph-name="CR" unicode="&#xd;" horiz-adv-x="223" 
 />
    <glyph glyph-name="space" unicode=" " horiz-adv-x="223" 
 />
    <glyph glyph-name="exclam" unicode="!" horiz-adv-x="273" 
d="M179 695v-306l-8 -178h-68l-9 178v306h85zM148 118c11.333 0 19.5 -2.33301 24.5 -7s7.5 -13 7.5 -25v-54c0 -12 -2.5 -20.333 -7.5 -25s-13.167 -7 -24.5 -7h-22c-11.333 -0 -19.333 2.33301 -24 7s-7 13 -7 25v54c0 12 2.33301 20.333 7 25s12.667 7 24 7h22z" />
    <glyph glyph-name="quotedbl" unicode="&#x22;" horiz-adv-x="353" 
d="M283 690l-5 -215h-58l-6 215h69zM140 690l-6 -215h-59l-5 215h70z" />
    <glyph glyph-name="numbersign" unicode="#" horiz-adv-x="685" 
d="M311 690l-120 -690h-68l120 690h68zM562 690l-120 -690h-68l120 690h68zM640 503l-11 -55h-543l11 55h543zM598 268l-11 -55h-543l11 55h543z" />
    <glyph glyph-name="dollar" unicode="$" horiz-adv-x="564" 
d="M281 702c32.667 -0.666992 66.3369 -2.33496 101.004 -5.00195s69.334 -7.66699 104.001 -15l-6 -64c-28.667 1.33301 -60.334 2.5 -95.001 3.5s-68 1.5 -100 1.5c-24.667 0 -45.834 -0.833008 -63.501 -2.5s-32.167 -5.66699 -43.5 -12s-19.5 -16.666 -24.5 -30.999
s-7.5 -34.166 -7.5 -59.499c0 -38 7 -64.5 21 -79.5s36.333 -26.167 67 -33.5l139 -35c53.333 -12.667 90 -34.834 110 -66.501s30 -74.167 30 -127.5c0 -40 -4.5 -72.333 -13.5 -97s-22.833 -43.5 -41.5 -56.5s-42.667 -22 -72 -27s-64.333 -7.5 -105 -7.5
c-22.667 0 -52.167 1 -88.5 3s-78.166 7.33301 -125.499 16l6 67c39.333 -0.666992 71 -1.5 95 -2.5s44.667 -1.5 62 -1.5h54c35.333 0 63.166 2.66699 83.499 8s34.666 15.666 42.999 30.999s12.5 38.333 12.5 69c0 26.667 -3 47.334 -9 62.001s-15.333 25.834 -28 33.501
s-29.334 13.834 -50.001 18.501l-142 36c-50 12.667 -85.333 34.667 -106 66s-31 73.333 -31 126c0 40 4.5 72.167 13.5 96.5s22.667 42.666 41 54.999s41.666 20.5 69.999 24.5s61.5 6 99.5 6zM261.003 352.999l45 -2l-36 -478h-46zM345.003 798.999l-33 -448l-46 2l34 446
h45z" />
    <glyph glyph-name="percent" unicode="%" horiz-adv-x="894" 
d="M207 703c40 0 71.833 -6.83301 95.5 -20.5s40.5 -35.5 50.5 -65.5s15 -69.667 15 -119c0 -48.667 -5 -88 -15 -118s-26.833 -52 -50.5 -66s-55.5 -21 -95.5 -21c-39.333 0 -70.833 7 -94.5 21s-40.5 36 -50.5 66s-15 69.333 -15 118c0 49.333 5 89 15 119
s26.833 51.833 50.5 65.5s55.167 20.5 94.5 20.5zM207 649c-24 0 -42.833 -4.83301 -56.5 -14.5s-23.5 -25.5 -29.5 -47.5s-9 -51.667 -9 -89s3 -67 9 -89s15.833 -37.833 29.5 -47.5s32.5 -14.5 56.5 -14.5c24.667 0 43.834 4.83301 57.501 14.5s23.334 25.5 29.001 47.5
s8.5 51.667 8.5 89s-2.83301 67 -8.5 89s-15.334 37.833 -29.001 47.5s-32.834 14.5 -57.501 14.5zM699 690l-447 -690h-60l447 690h60zM686 400c40 0 71.667 -7 95 -21s40 -35.833 50 -65.5s15 -68.834 15 -117.501s-5 -88.167 -15 -118.5s-26.667 -52.333 -50 -66
s-55 -20.5 -95 -20.5c-39.333 0 -70.833 6.83301 -94.5 20.5s-40.5 35.667 -50.5 66s-15 69.833 -15 118.5s5 87.834 15 117.501s26.833 51.5 50.5 65.5s55.167 21 94.5 21zM685 346c-24 0 -43 -4.66699 -57 -14s-23.667 -25 -29 -47s-8 -51.667 -8 -89
s2.66699 -67.166 8 -89.499s15 -38.333 29 -48s33 -14.5 57 -14.5c24.667 0 43.834 4.83301 57.501 14.5s23.5 25.667 29.5 48s9 52.166 9 89.499s-3 67 -9 89s-15.833 37.667 -29.5 47s-32.834 14 -57.501 14z" />
    <glyph glyph-name="ampersand" unicode="&#x26;" horiz-adv-x="772" 
d="M348 700c21.333 0 45.668 -0.503906 73.001 -1.50391s56 -3.83301 86 -8.5l-10 -65c-6.66699 0.666992 -16 1.16699 -28 1.5s-25.333 0.666016 -40 0.999023s-29.334 0.5 -44.001 0.5h-40c-42 0 -75.333 -2.83301 -100 -8.5s-42.334 -16.834 -53.001 -33.501
s-16 -42.334 -16 -77.001c0 -31.333 4.16699 -55.5 12.5 -72.5s22.333 -28.833 42 -35.5s46.167 -10 79.5 -10h393l-1 -67h-396c-36 0 -64.833 -4 -86.5 -12s-37.167 -21.667 -46.5 -41s-14 -46.666 -14 -81.999c0 -31.333 4 -56 12 -74s21.5 -30.667 40.5 -38
s44.833 -11 77.5 -11c49.333 0.666992 91.333 8.33398 126 23.001s65.334 37.334 92.001 68.001l14 -54c-21.333 -28 -44 -50.333 -68 -67s-50.833 -28.5 -80.5 -35.5s-64.167 -10.5 -103.5 -10.5c-48 0 -86.833 5.83301 -116.5 17.5s-51.334 30.834 -65.001 57.501
s-20.5 63.334 -20.5 110.001c0 52.667 9.83301 94.834 29.5 126.501s54.834 49.834 105.501 54.501v4c-42 4 -71.667 19.5 -89 46.5s-26 65.167 -26 114.5c0 40 5 72 15 96s25.667 41.833 47 53.5s48.333 19.5 81 23.5s72 6 118 6zM577.002 518.996l0.000976562 -388
c0 -23.333 5 -40 15 -50s26.333 -15 49 -15h74l10 -62c-10 -2.66699 -21.667 -5 -35 -7s-26.333 -3.5 -39 -4.5s-23.334 -1.5 -32.001 -1.5c-40 0 -70.333 10 -91 30s-31 48 -31 84v257l9 157h71z" />
    <glyph glyph-name="quotesingle" unicode="'" horiz-adv-x="209" 
d="M140 690l-6 -215h-59l-5 215h70z" />
    <glyph glyph-name="parenleft" unicode="(" horiz-adv-x="359" 
d="M317 790l11 -41c-66.667 -32.667 -115.167 -85.167 -145.5 -157.5s-45.5 -165.166 -45.5 -278.499c0 -74 6.66699 -139.667 20 -197s34 -105.833 62 -145.5s64.333 -71.167 109 -94.5l-11 -41c-90.667 35.333 -157.167 91.5 -199.5 168.5s-63.5 179.833 -63.5 308.5
c0 129.333 21.167 232.666 63.5 309.999s108.833 133.333 199.5 168z" />
    <glyph glyph-name="parenright" unicode=")" horiz-adv-x="359" 
d="M42 790c91.333 -34.667 158.165 -90.667 200.498 -168s63.5 -180.666 63.5 -309.999c0 -128.667 -21.167 -231.5 -63.5 -308.5s-109.166 -133.167 -200.499 -168.5l-10 41c44.667 23.333 80.834 54.833 108.501 94.5s48.167 88.167 61.5 145.5s20 123 20 197
c0 113.333 -15 206.166 -45 278.499s-78.333 124.833 -145 157.5z" />
    <glyph glyph-name="asterisk" unicode="*" horiz-adv-x="450" 
d="M251 691l-8 -161l100 -129l-41 -30l-77 123l-77 -122l-42 30l100 128l-7 161h52zM71 601l119 -46l-1 -22l-11 -14l-124 33zM380 601l17 -50l-125 -32l-12 14v22z" />
    <glyph glyph-name="plus" unicode="+" horiz-adv-x="551" 
d="M494 331v-64h-438v64h438zM308 507l-1 -417h-64l-1 417h66z" />
    <glyph glyph-name="comma" unicode="," horiz-adv-x="228" 
d="M127 118c12 0 20.167 -2.33398 24.5 -7.00098s6.5 -13 6.5 -25v-64c0 -18.667 -1.5 -37 -4.5 -55s-7 -35.167 -12 -51.5s-11.167 -32.166 -18.5 -47.499l-40 12c3.33301 20.667 5.83301 39.667 7.5 57s2.5 38.333 2.5 63c-16 -0 -24 9.33301 -24 28v58
c0.666992 12 3.66699 20.333 9 25s13.333 7 24 7h25z" />
    <glyph glyph-name="hyphen" unicode="-" horiz-adv-x="449" 
d="M377 285v-65h-305v65h305z" />
    <glyph glyph-name="period" unicode="." horiz-adv-x="229" 
d="M128 118c12 0 20.333 -2.33301 25 -7s7 -13 7 -25v-54c0 -12 -2.33301 -20.333 -7 -25s-13 -7 -25 -7h-28c-11.333 -0 -19.5 2.33301 -24.5 7s-7.5 13 -7.5 25v54c0 12 2.5 20.333 7.5 25s13.167 7 24.5 7h28z" />
    <glyph glyph-name="slash" unicode="/" horiz-adv-x="517" 
d="M490 690l-393 -756h-70l393 756h70z" />
    <glyph glyph-name="zero" unicode="0" horiz-adv-x="603" 
d="M301 703c59.333 0 106.333 -12.333 141 -37s59.5 -63.334 74.5 -116.001s22.5 -121 22.5 -205s-7.5 -152.333 -22.5 -205s-39.833 -91.334 -74.5 -116.001s-81.667 -37 -141 -37c-58.667 0 -105.334 12.333 -140.001 37s-59.5 63.334 -74.5 116.001s-22.5 121 -22.5 205
s7.5 152.333 22.5 205s39.833 91.334 74.5 116.001s81.334 37 140.001 37zM301 626c-28.667 0 -52.667 -5.16699 -72 -15.5s-34.833 -26.5 -46.5 -48.5s-20 -50.833 -25 -86.5s-7.5 -79.167 -7.5 -130.5c0 -50.667 2.5 -94 7.5 -130s13.333 -65 25 -87
s27.167 -38.167 46.5 -48.5s43.333 -15.5 72 -15.5s52.834 5.16699 72.501 15.5s35.334 26.5 47.001 48.5s20 51 25 87s7.5 79.333 7.5 130c0 51.333 -2.5 94.833 -7.5 130.5s-13.333 64.5 -25 86.5s-27.334 38.167 -47.001 48.5s-43.834 15.5 -72.501 15.5z" />
    <glyph glyph-name="one" unicode="1" horiz-adv-x="398" 
d="M286 690v-690h-88v547c0 10 0.333008 20 1 30s2 20 4 30l-169 -53l-12 65l176 71h88z" />
    <glyph glyph-name="two" unicode="2" horiz-adv-x="562" 
d="M271 702c44 0 81.832 -3.66602 113.499 -10.999s56 -21.666 73 -42.999s25.5 -53 25.5 -95c0 -28.667 -3.83301 -55.667 -11.5 -81s-20.5 -51.5 -38.5 -78.5s-42.333 -57.5 -73 -91.5l-198 -221c17.333 1.33301 35.833 2.33301 55.5 3s38.5 1 56.5 1h234v-85h-453v55
c0 7.33301 1 14.166 3 20.499s5.33301 12.166 10 17.499l200 226c44 47.333 76.333 89.333 97 126s30.334 71.334 29.001 104.001c-0.666992 22.667 -6.16699 39.167 -16.5 49.5s-25 17.166 -44 20.499s-41.833 5 -68.5 5c-21.333 0 -41.666 -0.333008 -60.999 -1
s-39.833 -2.16699 -61.5 -4.5s-46.834 -5.83301 -75.501 -10.5l-6 68c31.333 7.33301 58.833 12.833 82.5 16.5s45.667 6.16699 66 7.5s40.833 2 61.5 2z" />
    <glyph glyph-name="three" unicode="3" horiz-adv-x="556" 
d="M258 703c50.667 0 91.502 -4.83691 122.502 -14.5039s53.833 -26.167 68.5 -49.5s22 -55.333 22 -96c0 -29.333 -3 -56.166 -9 -80.499s-16.167 -44.666 -30.5 -60.999s-34.833 -27.166 -61.5 -32.499v-4c45.333 -7.33301 76.5 -26.166 93.5 -56.499
s25.833 -69.166 26.5 -116.499c0.666992 -46.667 -6 -85.167 -20 -115.5s-37 -52.833 -69 -67.5s-75.333 -22 -130 -22c-36.667 0 -73.5 1.83301 -110.5 5.5s-73.167 7.83398 -108.5 12.501l6 71c22.667 -2 44.5 -3.83301 65.5 -5.5s41.833 -2.83398 62.5 -3.50098
s41.667 -1 63 -1c37.333 0 67.166 4.16699 89.499 12.5s38.666 22.5 48.999 42.5s15.5 46.667 15.5 80c0 25.333 -3.5 47.5 -10.5 66.5s-20.333 33.833 -40 44.5s-48.5 16 -86.5 16h-128v69h128c27.333 0 49.166 3.66699 65.499 11s28.5 16.833 36.5 28.5s13.167 25 15.5 40
s3.5 30.5 3.5 46.5c-0.666992 29.333 -5.33398 51.166 -14.001 65.499s-23.167 24 -43.5 29s-48.166 7.5 -83.499 7.5c-32.667 0 -64.167 -0.833008 -94.5 -2.5s-57.166 -3.5 -80.499 -5.5l-7 68c34 6 66.833 10.5 98.5 13.5s63.5 4.5 95.5 4.5z" />
    <glyph glyph-name="four" unicode="4" horiz-adv-x="615" 
d="M330 690l-192.997 -408.002c-6 -13.333 -6.16699 -23.5 -0.5 -30.5s14.167 -10.5 25.5 -10.5h409v-63l-92 -9h-366c-18.667 0 -34.334 5.33301 -47.001 16s-20.834 24.334 -24.501 41.001s-1.83398 33.334 5.49902 50.001l196 414h87zM482.003 557.998v-558h-83v444
l15 114h68z" />
    <glyph glyph-name="five" unicode="5" horiz-adv-x="536" 
d="M460 690l-4.00293 -75h-290l-10 -188l74 -6c45.333 -3.33301 83.833 -9.33301 115.5 -18s57.5 -21.334 77.5 -38.001s34.5 -37.834 43.5 -63.501s13.5 -57.167 13.5 -94.5c0 -28 -2.83301 -55 -8.5 -81s-16.334 -49.333 -32.001 -70s-38.167 -37.167 -67.5 -49.5
s-67.666 -18.5 -114.999 -18.5c-27.333 0 -59 2 -95 6s-72.667 10.333 -110 19l10 71c31.333 -5.33301 62.666 -9.66602 93.999 -12.999s58.333 -5 81 -5c44 0 77 5.5 99 16.5s37 27 45 48s12.333 46.5 13 76.5c0.666992 32 -3.16602 57.167 -11.499 75.5
s-21.666 32 -39.999 41s-42.666 15.333 -72.999 19s-67.5 6.83398 -111.5 9.50098l-46 3c-10 1.33301 -18.167 5.5 -24.5 12.5s-9.16602 15.833 -8.49902 26.5l16 296h365z" />
    <glyph glyph-name="six" unicode="6" horiz-adv-x="572" 
d="M334 702c14 0 33.665 -0.665039 58.998 -1.99805s52 -5.66602 80 -12.999l-8 -64c-14.667 1.33301 -28.167 2.33301 -40.5 3s-25.5 1 -39.5 1h-51c-34 0 -62.667 -3.66699 -86 -11s-42 -21.333 -56 -42s-24 -51 -30 -91s-9 -92.667 -9 -158c0 -50 1.33301 -92 4 -126
s8.83398 -60.833 18.501 -80.5s24.334 -33.834 44.001 -42.501s46.5 -13 80.5 -13c39.333 0 68.5 6.16699 87.5 18.5s31.333 30.5 37 54.5s8.5 53 8.5 87c0 38 -3.5 68.333 -10.5 91s-19.833 39.167 -38.5 49.5s-45 15.5 -79 15.5c-22 0 -42.333 -2.66699 -61 -8
s-37.667 -14.833 -57 -28.5s-41.666 -32.834 -66.999 -57.501l-4 44c22 31.333 43 55.833 63 73.5s41.833 30 65.5 37s51.5 10.5 83.5 10.5c48.667 0 86.667 -7.33301 114 -22s46.666 -38.5 57.999 -71.5s17 -77.5 17 -133.5c0 -35.333 -2.66699 -67.5 -8 -96.5
s-15.666 -53.833 -30.999 -74.5s-37.333 -36.5 -66 -47.5s-66.334 -16.5 -113.001 -16.5c-48.667 0 -88.334 5.5 -119.001 16.5s-54.167 29.5 -70.5 55.5s-27.666 60.833 -33.999 104.5s-9.5 98.167 -9.5 163.5c0 81.333 5.5 146.666 16.5 195.999s27.5 86.833 49.5 112.5
s49.833 43 83.5 52s73.167 13.5 118.5 13.5z" />
    <glyph glyph-name="seven" unicode="7" horiz-adv-x="512" 
d="M429 690c14 0 25.001 -2.49902 33.001 -7.49902s13.167 -12 15.5 -21s1.5 -19.833 -2.5 -32.5l-215 -629h-88l194 564c3.33301 9.33301 6.66602 18.166 9.99902 26.499s7 16.5 11 24.5h-344l-4 75h390z" />
    <glyph glyph-name="eight" unicode="8" horiz-adv-x="607" 
d="M304 700c44 0 80.1709 -3.66699 108.504 -11s50.666 -18.333 66.999 -33s27.666 -33.5 33.999 -56.5s9.5 -50.167 9.5 -81.5c0 -30 -3.33301 -56.333 -10 -79s-17.167 -40.834 -31.5 -54.501s-33.166 -21.834 -56.499 -24.501v-4
c29.333 -2.66699 52.166 -11.834 68.499 -27.501s27.833 -36.667 34.5 -63s10 -57.5 10 -93.5c0 -42 -6.33301 -76.5 -19 -103.5s-35.834 -46.833 -69.501 -59.5s-82.167 -19 -145.5 -19c-62 0 -110 6.33301 -144 19s-57.667 32.5 -71 59.5s-20 61.5 -20 103.5
c0 36 3.5 67.167 10.5 93.5s18.833 47.333 35.5 63s39.334 24.834 68.001 27.501v4c-23.333 2.66699 -42.333 10.834 -57 24.501s-25.334 31.834 -32.001 54.501s-10 49 -10 79c0 31.333 3.33301 58.5 10 81.5s18.167 41.833 34.5 56.5s38.666 25.667 66.999 33
s64.5 11 108.5 11zM306.004 323c-31.333 0 -57 -2 -77 -6s-35.667 -10.833 -47 -20.5s-19.166 -23.167 -23.499 -40.5s-6.5 -39.333 -6.5 -66c0 -30.667 4.16699 -55.167 12.5 -73.5s23.666 -31.333 45.999 -39s53.833 -11.5 94.5 -11.5s71.667 3.83301 93 11.5
s36 20.667 44 39s12 42.833 12 73.5c0 27.333 -2.16699 49.666 -6.5 66.999s-11.833 30.833 -22.5 40.5s-25.667 16.334 -45 20.001s-44 5.5 -74 5.5zM305.004 629c-38 0 -67.002 -3.66699 -87.002 -11s-33.833 -19.666 -41.5 -36.999s-11.5 -41 -11.5 -71
c0 -31.333 3.83301 -55.5 11.5 -72.5s21.667 -28.667 42 -35s49.5 -9.5 87.5 -9.5c38.667 0 67.834 3.33301 87.501 10s32.834 18.5 39.501 35.5s10 40.833 10 71.5c0 30 -3.5 53.667 -10.5 71s-20.5 29.666 -40.5 36.999s-49 11 -87 11z" />
    <glyph glyph-name="nine" unicode="9" horiz-adv-x="572" 
d="M276 702c50 0 90.165 -5.83105 120.498 -17.498s53.166 -30.834 68.499 -57.501s25.5 -62.334 30.5 -107.001s7.5 -100.334 7.5 -167.001c0 -77.333 -5 -140 -15 -188s-25.5 -84.833 -46.5 -110.5s-48.5 -43.167 -82.5 -52.5s-75 -14 -123 -14
c-15.333 0 -36.166 0.666992 -62.499 2s-55.166 5.66602 -86.499 12.999l8 65c16 -1.33301 30.333 -2.33301 43 -3s26.5 -1 41.5 -1h56.5c34.667 0 63.667 4 87 12s42 22.5 56 43.5s24 50.5 30 88.5s9 87 9 147c0 52.667 -1.16699 96.5 -3.5 131.5
s-7.83301 62.833 -16.5 83.5s-22.667 35.334 -42 44.001s-46.333 13 -81 13c-38 0 -66.833 -6.33301 -86.5 -19s-32.834 -31 -39.501 -55s-10 -53.333 -10 -88c0 -33.333 3.5 -61.5 10.5 -84.5s19.833 -40.5 38.5 -52.5s44.334 -18 77.001 -18c22 0 42.167 2.83301 60.5 8.5
s37.166 15.334 56.499 29.001s41.666 32.5 66.999 56.5l4 -43c-21.333 -31.333 -42.166 -55.833 -62.499 -73.5s-42.166 -30 -65.499 -37s-51 -10.5 -83 -10.5c-47.333 0 -84.666 9.66699 -111.999 29s-46.666 46 -57.999 80s-17 72.667 -17 116
c0 52.667 6.83301 96.5 20.5 131.5s36.667 61.333 69 79s76.166 26.5 131.499 26.5z" />
    <glyph glyph-name="colon" unicode=":" horiz-adv-x="236" 
d="M129 440c12 0 20.333 -2.33301 25 -7s7 -13 7 -25v-54c0 -12 -2.33301 -20.333 -7 -25s-13 -7 -25 -7h-28c-11.333 0 -19.5 2.33301 -24.5 7s-7.5 13 -7.5 25v54c0 12 2.5 20.333 7.5 25s13.167 7 24.5 7h28zM129 118c12 0 20.333 -2.33301 25 -7s7 -13 7 -25v-54
c0 -12 -2.33301 -20.333 -7 -25s-13 -7 -25 -7h-28c-11.333 -0 -19.5 2.33301 -24.5 7s-7.5 13 -7.5 25v54c0 12 2.5 20.333 7.5 25s13.167 7 24.5 7h28z" />
    <glyph glyph-name="semicolon" unicode=";" horiz-adv-x="237" 
d="M133 440c12 0 20.333 -2.33301 25 -7s7 -13 7 -25v-54c0 -12 -2.33301 -20.333 -7 -25s-13 -7 -25 -7h-28c-11.333 0 -19.5 2.33301 -24.5 7s-7.5 13 -7.5 25v54c0 12 2.5 20.333 7.5 25s13.167 7 24.5 7h28zM132 118c12 0 20.167 -2.33398 24.5 -7.00098
s6.5 -13 6.5 -25v-64c0 -18.667 -1.5 -37 -4.5 -55s-7 -35.167 -12 -51.5s-11.167 -32.166 -18.5 -47.499l-40 12c3.33301 20.667 5.83301 39.667 7.5 57s2.5 38.333 2.5 63c-16 -0 -24 9.33301 -24 28v58c0.666992 12 3.66699 20.333 9 25s13.333 7 24 7h25z" />
    <glyph glyph-name="less" unicode="&#x3c;" horiz-adv-x="530" 
d="M459 506v-68l-332 -140l332 -137v-68l-406 171v68z" />
    <glyph glyph-name="equal" unicode="=" horiz-adv-x="585" 
d="M512 430v-63h-438v63h438zM512 219v-64h-438v64h438z" />
    <glyph glyph-name="greater" unicode="&#x3e;" horiz-adv-x="530" 
d="M71 506l406 -174v-68l-406 -171v68l332 137l-332 140v68z" />
    <glyph glyph-name="question" unicode="?" horiz-adv-x="505" 
d="M260 712c67.333 0 117.835 -12.499 151.502 -37.499s50.5 -64.167 50.5 -117.5c0 -30 -6 -55.833 -18 -77.5s-26.833 -41.5 -44.5 -59.5l-53 -55.5c-17.667 -19 -32.834 -40.667 -45.501 -65s-19.667 -53.833 -21 -88.5h-73c-0.666992 36.667 4.33301 68.334 15 95.001
s24.167 50 40.5 70s32.833 38.5 49.5 55.5s30.667 34.167 42 51.5s17.333 37 18 59c1.33301 33.333 -8.5 58 -29.5 74s-54.5 24 -100.5 24c-32.667 0 -59.5 -0.333008 -80.5 -1s-40 -1.83398 -57 -3.50098s-36.833 -3.5 -59.5 -5.5l-5 61
c17.333 3.33301 33 6.16602 47 8.49902s28.667 4.5 44 6.5s33.166 3.5 53.499 4.5s45.5 1.5 75.5 1.5zM255.002 118.001c11.333 0 19.333 -2.33301 24 -7s7 -13 7 -25v-54c0 -12 -2.33301 -20.333 -7 -25s-12.667 -7 -24 -7h-23c-11.333 0 -19.333 2.33301 -24 7
s-7 13 -7 25v54c0 12 2.33301 20.333 7 25s12.667 7 24 7h23z" />
    <glyph glyph-name="at" unicode="@" horiz-adv-x="718" 
d="M495 585c48 0 85.168 -10.8281 111.501 -32.4951s39.5 -58.167 39.5 -109.5v-311h-64l-8 75c-12 -12 -28.333 -24.5 -49 -37.5s-43.834 -23.833 -69.501 -32.5s-52.5 -13 -80.5 -13c-26 0 -48.833 4.5 -68.5 13.5s-35 22.333 -46 40s-16.5 39.5 -16.5 65.5v51
c0 32 9.66699 57.167 29 75.5s48 27.5 86 27.5h207v43c0 26.667 -6 45.667 -18 57s-34.667 17 -68 17h-128c-43.333 0 -78 -2 -104 -6s-45.667 -13.667 -59 -29s-22.166 -39.833 -26.499 -73.5s-6.5 -80.167 -6.5 -139.5c0 -48.667 1.5 -88.834 4.5 -120.501
s8.83301 -56.5 17.5 -74.5s21.334 -31 38.001 -39s38.834 -13 66.501 -15s61.834 -3 102.501 -3h258v-64c-42.667 -2.66699 -85.334 -4.66699 -128.001 -6s-85.667 -2 -129 -2c-56 -0.666992 -102.667 1.16602 -140 5.49902s-67.5 12.666 -90.5 24.999
s-40.167 30.5 -51.5 54.5s-19 55.5 -23 94.5s-6 87.167 -6 144.5c0 56 1.66699 103 5 141s10.166 68.667 20.499 92s25.666 41.166 45.999 53.499s47.166 20.666 80.499 24.999s75 6.83301 125 7.5h143zM566.001 345.005l-177.998 -4
c-23.333 -0.666992 -39.833 -5.5 -49.5 -14.5s-14.5 -23.167 -14.5 -42.5v-26c0 -24 5.66699 -41 17 -51s27.666 -15 48.999 -15c19.333 0 39.666 2.66699 60.999 8s42 12.833 62 22.5s37.667 21.5 53 35.5v87z" />
    <glyph glyph-name="A" unicode="A" horiz-adv-x="622" 
d="M357 690c8 0 15.001 -2.16602 21.001 -6.49902s10 -10.166 12 -17.499l222 -666h-91l-179 566l-8.5 28.5l-8.5 27.5h-28c-2.66699 -8.66699 -5.33398 -17.834 -8.00098 -27.501s-5.66699 -19.167 -9 -28.5l-179 -566h-91l222 666c2 7.33301 6 13.166 12 17.499
s13 6.5 21 6.5h92zM485.001 292.001v-76h-350v76h350z" />
    <glyph glyph-name="B" unicode="B" horiz-adv-x="620" 
d="M311 698c56.667 0 101.665 -5.16602 134.998 -15.499s57.5 -28.5 72.5 -54.5s22.5 -62.667 22.5 -110c0 -49.333 -9.16699 -87 -27.5 -113s-48.166 -41 -89.499 -45v-4c51.333 -4.66699 87.166 -22.667 107.499 -54s30.5 -74.666 30.5 -129.999
c0 -47.333 -7.33301 -84 -22 -110s-38.167 -44.167 -70.5 -54.5s-74.833 -15.5 -127.5 -15.5c-39.333 0 -73.166 0.166992 -101.499 0.5s-54.5 1.16602 -78.5 2.49902s-49 3 -75 5l14 70c14.667 -0.666992 42.5 -1.33398 83.5 -2.00098s88.833 -1 143.5 -1
c36.667 0 65.5 3.16699 86.5 9.5s36 18.166 45 35.499s13.5 42.333 13.5 75c0 36 -4.66699 63.667 -14 83s-25 33 -47 41s-52 12.333 -90 13h-222v67h221c33.333 0.666992 59.833 4.16699 79.5 10.5s33.834 18 42.501 35s13 40.833 13 71.5c0 31.333 -4.66699 55.333 -14 72
s-24.833 28 -46.5 34s-51.167 9 -88.5 9h-88c-26 0 -48.833 -0.166992 -68.5 -0.5s-36.167 -1.16602 -49.5 -2.49902l-14 70c23.333 2.66699 45.5 4.5 66.5 5.5s44 1.66699 69 2s54.5 0.5 88.5 0.5zM172.998 690.001v-690h-86v690h86z" />
    <glyph glyph-name="C" unicode="C" horiz-adv-x="570" 
d="M332 702c29.333 0 54.498 -0.666992 75.498 -2s40.333 -3.5 58 -6.5s35.834 -6.83301 54.501 -11.5l-9 -67c-20 2 -38.5 3.66699 -55.5 5s-35.167 2.33301 -54.5 3s-42.333 1 -69 1c-44.667 0 -80 -8.66699 -106 -26s-44.5 -46.333 -55.5 -87s-16.5 -96 -16.5 -166
s5.5 -125.333 16.5 -166s29.5 -69.667 55.5 -87s61.333 -26 106 -26c42.667 0 78.5 0.833008 107.5 2.5s57.5 4.5 85.5 8.5l9 -66c-28.667 -8 -58.167 -13.833 -88.5 -17.5s-68.166 -5.5 -113.499 -5.5c-66 0 -118.833 11.5 -158.5 34.5s-68.334 60.5 -86.001 112.5
s-26.5 122 -26.5 210s8.83301 158 26.5 210s46.334 89.5 86.001 112.5s92.5 34.5 158.5 34.5z" />
    <glyph glyph-name="D" unicode="D" horiz-adv-x="664" 
d="M333 699c49.333 0 91.166 -6.00293 125.499 -18.0029s62 -31.667 83 -59s36.333 -63.666 46 -108.999s14.5 -101.333 14.5 -168s-4.83301 -122.667 -14.5 -168s-25 -81.666 -46 -108.999s-48.667 -47 -83 -59s-76.166 -18 -125.499 -18
c-47.333 0 -91.166 0.833008 -131.499 2.5s-78.5 3.83398 -114.5 6.50098l38 72c28 -0.666992 59.167 -1.5 93.5 -2.5s72.5 -1.5 114.5 -1.5c44 0 79 8.5 105 25.5s44.5 45.667 55.5 86s16.5 95.5 16.5 165.5s-5.5 125.167 -16.5 165.5s-29.5 69.166 -55.5 86.499
s-61 26 -105 26c-41.333 0 -78.5 -0.333008 -111.5 -1l-96.5 -2l-38 70c36 2.66699 74.167 4.83398 114.5 6.50098s84.166 2.5 131.499 2.5zM175 689.997v-690h-88v690h88z" />
    <glyph glyph-name="E" unicode="E" horiz-adv-x="560" 
d="M214 691l100.5 -0.000976562c33.667 0 67 -0.5 100 -1.5s64.833 -2.5 95.5 -4.5l-4 -69h-277c-20.667 0 -35.834 -5.16699 -45.501 -15.5s-14.5 -27.166 -14.5 -50.499v-410c0 -23.333 4.83301 -40.333 14.5 -51s24.834 -16 45.501 -16h277l4 -68
c-30.667 -2 -62.5 -3.33301 -95.5 -4s-66.333 -1.16699 -100 -1.5s-67.167 -0.5 -100.5 -0.5c-40.667 0 -72.834 10.833 -96.501 32.5s-35.834 50.834 -36.501 87.501v452c0.666992 37.333 12.834 66.666 36.501 87.999s55.834 32 96.501 32zM99 399.999h368v-71h-368v71z
" />
    <glyph glyph-name="F" unicode="F" horiz-adv-x="539" 
d="M218 691c32 0 64.333 -0.166992 97 -0.5s65 -0.833008 97 -1.5s62.667 -2.33398 92 -5.00098l-5 -68h-259c-23.333 0 -40.333 -5.16699 -51 -15.5s-16 -27.166 -16 -50.499v-550h-88v567c0 39.333 12 69.833 36 91.5s56.333 32.5 97 32.5zM102 390h359v-71h-359v71z" />
    <glyph glyph-name="G" unicode="G" horiz-adv-x="628" 
d="M350 703c23.333 0 46 -0.666992 68 -2s43.333 -3.5 64 -6.5s40.667 -7.16699 60 -12.5l-9 -66c-20.667 2 -41.5 3.66699 -62.5 5s-41.167 2.16602 -60.5 2.49902s-37.666 0.5 -54.999 0.5c-37.333 0 -68.833 -3.5 -94.5 -10.5s-46.167 -20.5 -61.5 -40.5
s-26.5 -48.667 -33.5 -86s-10.5 -86 -10.5 -146c0 -68 4.66699 -122.167 14 -162.5s25 -69.5 47 -87.5s51.333 -27 88 -27c25.333 0 48.5 3.66699 69.5 11s40.667 16.833 59 28.5s36.166 23.834 53.499 36.501l12 -54c-12 -14 -28.5 -28.667 -49.5 -44
s-45.5 -28.333 -73.5 -39s-59.667 -16 -95 -16c-51.333 0 -93.166 12.833 -125.499 38.5s-55.833 65 -70.5 118s-22 120.833 -22 203.5c0 91.333 9.16699 162.833 27.5 214.5s48.666 88.167 90.999 109.5s98.833 32 169.5 32zM560 399v-399h-64l-14 102l-8 20v277h86z" />
    <glyph glyph-name="H" unicode="H" 
d="M175 690v-690h-88v690h88zM504 407v-76h-337v76h337zM581 690v-690h-88v690h88z" />
    <glyph glyph-name="I" unicode="I" horiz-adv-x="262" 
d="M175 690v-690h-88v690h88z" />
    <glyph glyph-name="J" unicode="J" horiz-adv-x="340" 
d="M256 690l0.000976562 -545c0 -50.667 -11.5 -89 -34.5 -115s-56.167 -39 -99.5 -39c-8.66699 0 -18.834 0.5 -30.501 1.5s-23 2.5 -34 4.5s-20.167 4.33301 -27.5 7l10 62h50c52 0 78 25.333 78 76v548h88z" />
    <glyph glyph-name="K" unicode="K" horiz-adv-x="591" 
d="M558 690l-200.999 -286c-6 -8.66699 -11.833 -16.167 -17.5 -22.5s-12.5 -13.5 -20.5 -21.5v-2c8.66699 -8 16.667 -16 24 -24s13.666 -16 18.999 -24l210 -310h-99l-245 361l234 329h96zM174.001 690l0.000976562 -215.999c0 -20 -1 -39 -3 -57s-5 -36.667 -9 -56
c3.33301 -18.667 6.16602 -37.334 8.49902 -56.001s3.5 -36.667 3.5 -54v-251h-87v690h87zM276.002 395.001v-71h-133v71h133z" />
    <glyph glyph-name="L" unicode="L" horiz-adv-x="514" 
d="M172 690v-549.999c0 -22.667 5.5 -39.334 16.5 -50.001s27.833 -16 50.5 -16h249l4 -68c-43.333 -3.33301 -87.5 -5.33301 -132.5 -6s-89.833 -1 -134.5 -1c-50.667 0 -86.667 12.333 -108 37s-32 55.667 -32 93v561h87z" />
    <glyph glyph-name="M" unicode="M" horiz-adv-x="877" 
d="M739 690c24 0 36 -12.334 36 -37.001l29 -653h-88l-25 617h-21l-154 -509c-5.33301 -20 -18 -30 -38 -30h-79c-20.667 0 -34 10 -40 30l-154 509h-20l-24 -617h-88l27 653c1.33301 24.667 13.666 37 36.999 37h100c18.667 0 31 -10 37 -30l129 -421
c5.33301 -15.333 9.83301 -30.666 13.5 -45.999s7.83398 -31 12.501 -47h18c4.66699 16 9 31.667 13 47l13 48l129 419c5.33301 20 18 30 38 30h99z" />
    <glyph glyph-name="N" unicode="N" horiz-adv-x="705" 
d="M618 690l0.00195312 -655c0 -23.333 -11.333 -35 -34 -35h-86c-10 -0 -18 2.33301 -24 7s-11 11.667 -15 21l-233 489l-21 45c-8 16.667 -14 32 -18 46h-16c1.33301 -14.667 2.33301 -29.667 3 -45s1 -30.666 1 -45.999v-517h-88v655c0 23.333 11.667 35 35 35h83
c10 0 18 -2.33301 24 -7s11 -11.667 15 -21l226 -477c7.33301 -14 15.166 -29.833 23.499 -47.5s16.166 -35.167 23.499 -52.5h17l-2 53c-0.666992 17.333 -1 34.666 -1 51.999v500h87z" />
    <glyph glyph-name="O" unicode="O" 
d="M334 703c50 0 92.5 -6 127.5 -18s63 -31.833 84 -59.5s36.333 -64.5 46 -110.5s14.5 -102.667 14.5 -170s-4.83301 -124 -14.5 -170s-25 -82.833 -46 -110.5s-49 -47.5 -84 -59.5s-77.5 -18 -127.5 -18s-92.5 6 -127.5 18s-63.167 31.833 -84.5 59.5
s-36.833 64.5 -46.5 110.5s-14.5 102.667 -14.5 170s4.83301 124 14.5 170s25.167 82.833 46.5 110.5s49.5 47.5 84.5 59.5s77.5 18 127.5 18zM334 624c-45.333 0 -81.166 -8.66699 -107.499 -26s-45 -46.166 -56 -86.499s-16.5 -95.833 -16.5 -166.5
c0 -70 5.5 -125.333 16.5 -166s29.667 -69.667 56 -87s62.166 -26 107.499 -26s81.166 8.66699 107.499 26s45 46.333 56 87s16.5 96 16.5 166c0 70.667 -5.5 126.167 -16.5 166.5s-29.667 69.166 -56 86.499s-62.166 26 -107.499 26z" />
    <glyph glyph-name="P" unicode="P" horiz-adv-x="590" 
d="M324 699c55.333 0 99.168 -6.33301 131.501 -19s55.5 -34.5 69.5 -65.5s21 -74.833 21 -131.5s-6.83301 -100.667 -20.5 -132s-36 -53.166 -67 -65.499s-72.5 -18.5 -124.5 -18.5c-28 0 -54.833 0.666992 -80.5 2s-49.167 3.16602 -70.5 5.49902s-39.5 4.83301 -54.5 7.5
s-25.5 5 -31.5 7l3 54h110h113c33.333 0.666992 59.833 4.83398 79.5 12.501s33.667 21.667 42 42s12.5 48.833 12.5 85.5c0 37.333 -4.16699 66 -12.5 86s-22.333 34 -42 42s-46.167 12 -79.5 12c-54.667 0 -101.834 -0.333008 -141.501 -1s-66.5 -1.66699 -80.5 -3l-14 71
c25.333 2.66699 49 4.66699 71 6s46 2.16602 72 2.49902s57.333 0.5 94 0.5zM175.002 690v-690h-88v690h88z" />
    <glyph glyph-name="Q" unicode="Q" horiz-adv-x="669" 
d="M335 703c50 0 92.5 -6 127.5 -18s63 -31.833 84 -59.5s36.333 -64.5 46 -110.5s14.5 -102.667 14.5 -170s-4.83301 -124 -14.5 -170s-25 -82.833 -46 -110.5s-49 -47.5 -84 -59.5s-77.5 -18 -127.5 -18c-50.667 0 -93.334 6 -128.001 18s-62.667 31.833 -84 59.5
s-36.833 64.5 -46.5 110.5s-14.5 102.667 -14.5 170s4.83301 124 14.5 170s25.167 82.833 46.5 110.5s49.333 47.5 84 59.5s77.334 18 128.001 18zM294 -43c39.333 -16.667 81 -30.668 125 -42.001s90.667 -20.666 140 -27.999l-28 -88c-52 10.667 -99.667 25.5 -143 44.5
s-83 39.167 -119 60.5zM335 623.999c-45.333 0 -81.166 -8.66699 -107.499 -26s-45 -46.166 -56 -86.499s-16.5 -95.833 -16.5 -166.5c0 -70 5.5 -125.333 16.5 -166s29.667 -69.667 56 -87s62.166 -26 107.499 -26s81 8.66699 107 26s44.667 46.333 56 87s17 96 17 166
c0 70.667 -5.66699 126.167 -17 166.5s-30 69.166 -56 86.499s-61.667 26 -107 26z" />
    <glyph glyph-name="R" unicode="R" horiz-adv-x="618" 
d="M325 699c53.333 0 96.335 -5.83008 129.002 -17.4971s56.5 -31.834 71.5 -60.501s22.5 -69 22.5 -121c0 -37.333 -4.33301 -68.5 -13 -93.5s-22.167 -44.333 -40.5 -58s-42.833 -22.5 -73.5 -26.5v-5c11.333 -2.66699 22.5 -8.16699 33.5 -16.5s21.167 -19.333 30.5 -33
s16.333 -30.167 21 -49.5l67 -218h-94l-61 216c-8.66699 26 -20.334 44.5 -35.001 55.5s-33.667 16.5 -57 16.5c-40.667 0 -76 0.166992 -106 0.5s-55 0.833008 -75 1.5s-36 1 -48 1l3 73h223c34 0.666992 60.833 4.66699 80.5 12s33.834 20.5 42.501 39.5s13 45.5 13 79.5
s-4.33301 60.167 -13 78.5s-22.834 31.166 -42.501 38.499s-46.5 11 -80.5 11c-54.667 0 -101.834 -0.333008 -141.501 -1s-66.5 -1 -80.5 -1l-14 69c25.333 2.66699 49 4.66699 71 6s46.167 2.16602 72.5 2.49902s57.833 0.5 94.5 0.5zM174.002 690.003v-690h-87v690h87z
" />
    <glyph glyph-name="S" unicode="S" horiz-adv-x="561" 
d="M279 702c32.667 -0.666992 66.334 -2.33594 101.001 -5.00293s69.334 -7.66699 104.001 -15l-6 -64c-28.667 1.33301 -60.334 2.5 -95.001 3.5s-68 1.5 -100 1.5c-24.667 0 -45.834 -0.833008 -63.501 -2.5s-32.167 -5.66699 -43.5 -12s-19.5 -16.666 -24.5 -30.999
s-7.5 -34.166 -7.5 -59.499c0 -38 6.83301 -64.5 20.5 -79.5s35.834 -26.167 66.501 -33.5l140 -35c53.333 -12.667 89.833 -34.834 109.5 -66.501s29.5 -74.167 29.5 -127.5c0 -40 -4.5 -72.333 -13.5 -97s-22.833 -43.5 -41.5 -56.5s-42.667 -22 -72 -27
s-64 -7.5 -104 -7.5c-22.667 0 -52.167 1 -88.5 3s-78.166 7.33301 -125.499 16l6 65c39.333 -1.33301 71 -2.5 95 -3.5s44.667 -1.5 62 -1.5h54c35.333 0 63.166 2.66699 83.499 8s34.666 16 42.999 32s12.5 39.667 12.5 71c0 26.667 -3 47.334 -9 62.001
s-15.5 25.834 -28.5 33.501s-29.5 13.834 -49.5 18.501l-143 36c-50 12.667 -85.167 34.667 -105.5 66s-30.5 73.333 -30.5 126c0 40 4.5 72.167 13.5 96.5s22.667 42.666 41 54.999s41.5 20.5 69.5 24.5s61.333 6 100 6z" />
    <glyph glyph-name="T" unicode="T" horiz-adv-x="581" 
d="M334 690v-690h-88v690h88zM557 690v-78h-533v78h533z" />
    <glyph glyph-name="U" unicode="U" horiz-adv-x="666" 
d="M584 690l-0.000976562 -426c0 -66.667 -8 -120.334 -24 -161.001s-42 -70.167 -78 -88.5s-84.333 -27.5 -145 -27.5c-62 0 -111.667 9.16699 -149 27.5s-64.333 47.833 -81 88.5s-25 94.334 -25 161.001v426h88v-426c0 -49.333 5.16699 -88.5 15.5 -117.5
s27.5 -49.667 51.5 -62s56 -18.5 96 -18.5s71.833 6.16699 95.5 18.5s40.834 33 51.501 62s16 68.167 16 117.5v426h88z" />
    <glyph glyph-name="V" unicode="V" horiz-adv-x="609" 
d="M592 690l-209.001 -665.001c-2.66699 -6.66699 -7 -12.5 -13 -17.5s-13 -7.5 -21 -7.5h-89c-8.66699 0 -16 2.5 -22 7.5s-10 10.833 -12 17.5l-209 665h91l163 -547c3.33301 -12.667 6.83301 -25.167 10.5 -37.5s6.83398 -24.833 9.50098 -37.5h27l10 38
c3.33301 12.667 7 25.334 11 38.001l162 546h91z" />
    <glyph glyph-name="W" unicode="W" horiz-adv-x="948" 
d="M917 690l-139.999 -664c-2 -7.33301 -6 -13.5 -12 -18.5s-13.667 -7.5 -23 -7.5h-100c-8.66699 0 -16.167 2.5 -22.5 7.5s-10.166 11.5 -11.499 19.5l-108 519l-8 39.5l-8 38.5h-21c-2.66699 -12.667 -5.16699 -25.667 -7.5 -39s-4.83301 -26.333 -7.5 -39l-107 -519
c-2 -8 -6.16699 -14.5 -12.5 -19.5s-13.833 -7.5 -22.5 -7.5h-101c-8.66699 0 -16.167 2.5 -22.5 7.5s-10.166 11.167 -11.499 18.5l-140 664h93l108 -538c2.66699 -12.667 5 -26.167 7 -40.5s4.33301 -29.166 7 -44.499h23l8 44l8 41l107 509
c1.33301 8.66699 5.16602 15.667 11.499 21s13.833 8 22.5 8h96c8.66699 0 16 -2.66699 22 -8s10 -12.333 12 -21l107 -509c3.33301 -14.667 6.16602 -29 8.49902 -43s4.16602 -28 5.49902 -42h25l6 42.5c2 14.333 4.33301 28.166 7 41.499l109 539h93z" />
    <glyph glyph-name="X" unicode="X" horiz-adv-x="611" 
d="M573 690l-182 -333l195 -357h-96l-189 357l177 333h95zM133 690l177 -333l-189 -357h-96l194 357l-181 333h95zM358 392v-68h-106v68h106z" />
    <glyph glyph-name="Y" unicode="Y" horiz-adv-x="569" 
d="M557 690l-232.999 -456h-79l-234 456h94l145 -291c6 -12.667 11.5 -25.667 16.5 -39l14.5 -39h7l15 39c5.33301 13.333 10.666 26 15.999 38l145 292h93zM328.001 296v-296h-88v296h88z" />
    <glyph glyph-name="Z" unicode="Z" horiz-adv-x="566" 
d="M416 616l96 -1l-367 -541l-97 1zM519 75v-75h-471v75h471zM512 690v-75h-458v75h458z" />
    <glyph glyph-name="bracketleft" unicode="[" horiz-adv-x="329" 
d="M288 768v-56.001h-102c-9.33301 0 -14 -5.33301 -14 -16v-789c0 -10.667 4.66699 -16 14 -16h102v-56h-143c-15.333 0 -28.166 4.33301 -38.499 13s-15.5 22.334 -15.5 41.001v825c0 16 5.16699 29 15.5 39s23.166 15 38.499 15h143z" />
    <glyph glyph-name="backslash" unicode="\" horiz-adv-x="518" 
d="M98 690l393 -756h-71l-393 756h71z" />
    <glyph glyph-name="bracketright" unicode="]" horiz-adv-x="329" 
d="M183 768c16 0 29 -5 39 -15s15 -23 15 -39v-825c0 -16 -5 -29 -15 -39s-23 -15 -39 -15h-142v56h101c10 0 15 5.33301 15 16v789c0 10.667 -5 16 -15 16h-101v56h142z" />
    <glyph glyph-name="asciicircum" unicode="^" horiz-adv-x="426" 
d="M244 600l152 -210l-34 -22l-144 174h-8l-145 -174l-35 22l153 210h61z" />
    <glyph glyph-name="underscore" unicode="_" horiz-adv-x="438" 
d="M438 0v-65h-438v65h438z" />
    <glyph glyph-name="grave" unicode="`" horiz-adv-x="315" 
d="M85 723l172 -146l-29 -39l-192 120z" />
    <glyph glyph-name="a" unicode="a" horiz-adv-x="549" 
d="M308 499c36 0 66.499 -4.83203 91.499 -14.499s43.833 -25.834 56.5 -48.501s19 -53.667 19 -93v-343h-67l-13 106l-6 11v226c0 30 -6.83301 51.5 -20.5 64.5s-39.834 19.5 -78.501 19.5c-25.333 0 -57.166 -1.33301 -95.499 -4s-76.166 -5.66699 -113.499 -9l-8 63
c22.667 4 47.5 7.66699 74.5 11s54.5 6 82.5 8s54 3 78 3zM434.999 300.001l-1.00293 -63.9971l-233 -1c-23.333 -0.666992 -39.666 -6.83398 -48.999 -18.501s-14 -27.834 -14 -48.501v-31c0 -25.333 6 -43.833 18 -55.5s31.333 -17.5 58 -17.5
c18.667 0 39.834 3.5 63.501 10.5s47.5 17.833 71.5 32.5s46 33.334 66 56.001v-63c-7.33301 -9.33301 -17.833 -20.166 -31.5 -32.499s-30 -24.333 -49 -36s-40 -21.334 -63 -29.001s-47.833 -11.5 -74.5 -11.5c-28.667 0 -54 5.16699 -76 15.5
s-39.167 25.666 -51.5 45.999s-18.5 45.166 -18.5 74.499v53c0 38 11.833 67.5 35.5 88.5s56.834 31.5 99.501 31.5h249z" />
    <glyph glyph-name="b" unicode="b" horiz-adv-x="570" 
d="M340 499c60 0 104.332 -19.498 132.999 -58.498s43 -104.167 43 -195.5c0 -42 -3.5 -79 -10.5 -111s-18.667 -58.833 -35 -80.5s-38.333 -38 -66 -49s-62.5 -16.5 -104.5 -16.5c-16.667 0 -34.667 0.666992 -54 2s-39 3.5 -59 6.5s-39.5 6.66699 -58.5 11
s-36.5 9.5 -52.5 15.5l68 58c18 -5.33301 35.833 -9.66602 53.5 -12.999s35 -5.5 52 -6.5s33.167 -1.5 48.5 -1.5c31.333 0.666992 56.5 6.66699 75.5 18s32.833 30.5 41.5 57.5s13 63.5 13 109.5c0 44.667 -3.33301 80.167 -10 106.5s-18.5 45.166 -35.5 56.499
s-41.167 17 -72.5 17c-26.667 0 -52 -7.16699 -76 -21.5s-51.667 -33.833 -83 -58.5l-6 57c20 21.333 40.5 39.166 61.5 53.499s42.833 25.166 65.5 32.499s45.334 11 68.001 11zM160.999 700.002v-182c0 -20.667 -0.5 -39.667 -1.5 -57s-3.5 -35 -7.5 -53l8 -14l1 -375
l-85 4v677h85z" />
    <glyph glyph-name="c" unicode="c" horiz-adv-x="489" 
d="M286 499c14.667 0 30.999 -0.666016 48.999 -1.99902s36.5 -3.66602 55.5 -6.99902s36.5 -8 52.5 -14l-11 -55c-22 2 -45.167 3.5 -69.5 4.5s-45.166 1.5 -62.499 1.5c-38.667 0 -69.334 -5.33301 -92.001 -16s-39 -29.334 -49 -56.001s-15 -63.667 -15 -111
s5 -84.5 15 -111.5s26.333 -45.833 49 -56.5s53.334 -16 92.001 -16c10 0 23 0.333008 39 1s33.167 1.66699 51.5 3s35.833 3.33301 52.5 6l9 -57c-24.667 -8.66699 -51.5 -15 -80.5 -19s-57.833 -6 -86.5 -6c-56 0 -101 8.33301 -135 25s-58.5 43.667 -73.5 81
s-22.5 87.333 -22.5 150s7.66699 112.667 23 150s40 64.166 74 80.499s79 24.5 135 24.5z" />
    <glyph glyph-name="d" unicode="d" horiz-adv-x="573" 
d="M240 499c32 0 63.666 -4.16504 94.999 -12.498s61.333 -21.166 90 -38.499l-5 -53c-31.333 9.33301 -59 16.666 -83 21.999s-49.667 8 -77 8c-28 0 -50.5 -4.83301 -67.5 -14.5s-29.5 -27.5 -37.5 -53.5s-12 -63 -12 -111s3.83301 -85.333 11.5 -112
s19.834 -45.334 36.501 -56.001s38 -16 64 -16c19.333 0 36.833 2.5 52.5 7.5s32.334 13.167 50.001 24.5s38.5 25.666 62.5 42.999l8 -60c-26.667 -24.667 -57 -45.667 -91 -63s-70.667 -26 -110 -26c-61.333 0 -105.166 21.667 -131.499 65s-39.5 107.333 -39.5 192
c0 63.333 6.66699 113.5 20 150.5s33.666 63.5 60.999 79.5s61.666 24 102.999 24zM493.999 700.002l0.000976562 -699.999h-66l-10 85l-9 7v334l6 15c-2.66699 18.667 -4.33398 36.667 -5.00098 54s-1 35.666 -1 54.999v150h85z" />
    <glyph glyph-name="e" unicode="e" horiz-adv-x="537" 
d="M278 499c73.333 0 126.499 -13.3311 159.499 -39.998s49.5 -66.334 49.5 -119.001c0.666992 -43.333 -8.33301 -77.166 -27 -101.499s-48.334 -36.5 -89.001 -36.5h-284v66h262c22 0 36.333 7.5 43 22.5s10 31.5 10 49.5c-0.666992 31.333 -10 53.666 -28 66.999
s-48.667 20 -92 20c-35.333 0 -63.166 -5.16699 -83.499 -15.5s-34.666 -28.333 -42.999 -54s-12.5 -61.5 -12.5 -107.5c0 -52 5.16699 -91.667 15.5 -119s26.833 -46 49.5 -56s52.667 -15 90 -15c26 0 54.5 1.16699 85.5 3.5s58.833 5.16602 83.5 8.49902l9 -57
c-15.333 -6 -34.166 -11 -56.499 -15s-45.333 -7 -69 -9s-44.834 -3 -63.501 -3c-56 0 -101 8.5 -135 25.5s-58.833 44.333 -74.5 82s-23.5 87.5 -23.5 149.5c0 64 7.83301 114.5 23.5 151.5s40 63.333 73 79s75.5 23.5 127.5 23.5z" />
    <glyph glyph-name="f" unicode="f" horiz-adv-x="380" 
d="M258 717c10.667 0 24.332 -0.166992 40.999 -0.5s33.667 -1 51 -2s32.333 -2.5 45 -4.5l-7 -63h-100c-32 0 -54.5 -6.33301 -67.5 -19s-19.5 -33.667 -19.5 -63v-565h-85v574c0 30.667 4.66699 56.5 14 77.5s24.333 37.167 45 48.5s48.334 17 83.001 17zM356.998 487v-67
h-329v62l93 5h236z" />
    <glyph glyph-name="g" unicode="g" horiz-adv-x="558" 
d="M271 499c52 0 93.167 -5.33105 123.5 -15.998s52 -27.334 65 -50.001s19.5 -52.334 19.5 -89.001c0 -35.333 -6.5 -64.5 -19.5 -87.5s-34.833 -40 -65.5 -51s-72 -16.5 -124 -16.5s-93.167 5.5 -123.5 16.5s-52 27.833 -65 50.5s-19.5 51.667 -19.5 87
c0 36.667 6.5 66.5 19.5 89.5s34.833 39.833 65.5 50.5s72 16 124 16zM270 434.002c-48.667 0 -82.5 -6.83301 -101.5 -20.5s-28.5 -36.834 -28.5 -69.501c0 -32 9.5 -55 28.5 -69s52.833 -21 101.5 -21c49.333 0 83.333 7 102 21s28 37 28 69
c0 32.667 -9.33301 55.834 -28 69.501s-52.667 20.5 -102 20.5zM536 487.002l-5 -47l-124 -10l-35 57h164zM133 221.002l48.999 -7.00293c-11.333 -10 -19 -22.167 -23 -36.5s-2.83301 -27.5 3.5 -39.5s19.833 -19.667 40.5 -23l182 -29c46 -6.66699 78 -21 96 -43
s27 -53.333 27 -94c0 -38 -7.16699 -68 -21.5 -90s-38.5 -37.667 -72.5 -47s-80 -14 -138 -14c-44 0 -81 2.5 -111 7.5s-54.167 13.333 -72.5 25s-31.5 26.834 -39.5 45.501s-12 42 -12 70c0 21.333 3.16699 39.166 9.5 53.499s16.333 27.166 30 38.499s31.5 22.333 53.5 33
l60 33l39 -14l-49 -37c-13.333 -10 -24.5 -19.833 -33.5 -29.5s-15.667 -20 -20 -31s-6.5 -24.167 -6.5 -39.5c0 -22.667 4.33301 -40 13 -52s24 -20.167 46 -24.5s52.667 -6.5 92 -6.5s69.833 2.33301 91.5 7s36.834 13 45.501 25s13 29 13 51
c0 16.667 -2.16699 29.334 -6.5 38.001s-12.5 15.334 -24.5 20.001s-29.667 8.66699 -53 12l-175 24c-20.667 2.66699 -37.167 9.33398 -49.5 20.001s-20.833 23.334 -25.5 38.001s-6 29.5 -4 44.5s7 29 15 42s18.333 22.833 31 29.5z" />
    <glyph glyph-name="h" unicode="h" horiz-adv-x="581" 
d="M374 499c88 0 131.999 -44.668 131.999 -134.001v-365h-86v341c0 32.667 -5.16699 55.167 -15.5 67.5s-28.166 18.5 -53.499 18.5c-30 0 -60 -7 -90 -21s-65.667 -34.333 -107 -61l-4 61c38 28.667 75.667 51.334 113 68.001s74.333 25 111 25zM162.999 699.999l1 -193
c0 -22 -0.833008 -42.667 -2.5 -62s-4.16699 -36.333 -7.5 -51l9 -15v-379h-85v700h85z" />
    <glyph glyph-name="i" unicode="i" horiz-adv-x="248" 
d="M166 487v-487h-84v487h84zM144 694c17.333 0 26 -8.66699 26 -26v-57c0 -17.333 -8.66699 -26 -26 -26h-40c-17.333 0 -26 8.66699 -26 26v57c0 17.333 8.66699 26 26 26h40z" />
    <glyph glyph-name="j" unicode="j" horiz-adv-x="250" 
d="M168 487v-498.998c0 -26 -3.83301 -50.833 -11.5 -74.5s-18.5 -45.334 -32.5 -65.001s-30.667 -36.834 -50 -51.501l-47 37c19.333 23.333 33.5 47 42.5 71s13.5 51.667 13.5 83v499h85zM146 694.002c16.667 0 25 -8.66699 25 -26v-57c0 -17.333 -8.33301 -26 -25 -26
h-40c-17.333 0 -26 8.66699 -26 26v57c0 17.333 8.66699 26 26 26h40z" />
    <glyph glyph-name="k" unicode="k" horiz-adv-x="509" 
d="M476 487l-153 -179.001c-4.66699 -6 -10.334 -12.167 -17.001 -18.5s-12.334 -11.166 -17.001 -14.499v-2c4.66699 -3.33301 10.334 -8.83301 17.001 -16.5s12.334 -15.167 17.001 -22.5l169 -234h-99l-193 279l177 208h99zM163 699.999l1.00098 -310.998
c0 -20.667 -0.833008 -39.834 -2.5 -57.501s-4.16699 -36.167 -7.5 -55.5c3.33301 -18.667 5.66602 -37.334 6.99902 -56.001s2 -36.667 2 -54v-166h-85v700h85zM246.001 306.001v-62h-113v62h113z" />
    <glyph glyph-name="l" unicode="l" horiz-adv-x="297" 
d="M164 700l-1 -566c0 -21.333 5.83301 -37.5 17.5 -48.5s28.167 -16.5 49.5 -16.5h47l10 -65c-6 -2.66699 -14.5 -5 -25.5 -7s-22.333 -3.5 -34 -4.5s-21.5 -1.5 -29.5 -1.5c-36 0 -64.833 10.667 -86.5 32s-32.5 52 -32.5 92v585h85z" />
    <glyph glyph-name="m" unicode="m" horiz-adv-x="876" 
d="M671 499c42 0 74.1689 -11.333 96.502 -34s33.5 -56 33.5 -100v-365h-84v341c-0.666992 30 -6.66699 51.833 -18 65.5s-30.666 20.5 -57.999 20.5c-17.333 0 -33.833 -2.83301 -49.5 -8.5s-32.834 -14.5 -51.501 -26.5s-41.334 -27.667 -68.001 -47l-5 60
c35.333 31.333 69.666 54.833 102.999 70.5s67 23.5 101 23.5zM148.002 487l6 -93l9 -15v-379h-85v487h70zM352.002 499c41.333 0 73.002 -11.167 95.002 -33.5s33.333 -55.833 34 -100.5v-365h-82v341c0 31.333 -6.33301 53.5 -19 66.5s-31.667 19.5 -57 19.5
c-16.667 0 -32.834 -2.66699 -48.501 -8s-33 -14 -52 -26s-42.167 -28 -69.5 -48l-6 60c35.333 31.333 69.666 54.833 102.999 70.5s67.333 23.5 102 23.5z" />
    <glyph glyph-name="n" unicode="n" horiz-adv-x="581" 
d="M374 499c88 0 132 -44.666 132 -133.999v-365h-85v341c0 32.667 -5.33301 55.167 -16 67.5s-28.667 18.5 -54 18.5c-30 0 -60 -7.33301 -90 -22s-65.667 -34.667 -107 -60l-4 61c38 29.333 75.667 52.166 113 68.499s74.333 24.5 111 24.5zM150 487.001l7 -93l6 -15v-379
h-85v487h72z" />
    <glyph glyph-name="o" unicode="o" horiz-adv-x="568" 
d="M284 499c56 0 100.833 -8.33301 134.5 -25s57.834 -43.834 72.501 -81.501s22 -87.5 22 -149.5s-7.33301 -111.833 -22 -149.5s-38.834 -64.834 -72.501 -81.501s-78.5 -25 -134.5 -25c-55.333 0 -99.833 8.33301 -133.5 25s-58 43.834 -73 81.501
s-22.5 87.5 -22.5 149.5s7.5 111.833 22.5 149.5s39.333 64.834 73 81.501s78.167 25 133.5 25zM284 427c-35.333 0 -63.166 -5.5 -83.499 -16.5s-34.833 -29.833 -43.5 -56.5s-13 -63.667 -13 -111s4.33301 -84.333 13 -111s23.167 -45.5 43.5 -56.5
s48.166 -16.5 83.499 -16.5s63.333 5.5 84 16.5s35.334 29.833 44.001 56.5s13 63.667 13 111s-4.33301 84.333 -13 111s-23.334 45.5 -44.001 56.5s-48.667 16.5 -84 16.5z" />
    <glyph glyph-name="p" unicode="p" horiz-adv-x="580" 
d="M357 499c59.333 0 102 -21.832 128 -65.499s39 -107.834 39 -192.501c0 -62.667 -6.66699 -112.5 -20 -149.5s-33.5 -63.5 -60.5 -79.5s-61.5 -24 -103.5 -24c-32 0 -63.5 4.33301 -94.5 13s-61.167 22 -90.5 40l5 51c31.333 -8.66699 59 -15.834 83 -21.501
s49.333 -8.5 76 -8.5c28.667 0 51.5 5 68.5 15s29.5 28 37.5 54s12 62.667 12 110c0 46 -3.66699 82.333 -11 109s-18.833 45.834 -34.5 57.501s-36.5 17.5 -62.5 17.5c-26.667 0 -53 -6.33301 -79 -19s-56.333 -32 -91 -58l-8 57c18 19.333 38.333 36 61 50
s46.5 24.833 71.5 32.5s49.5 11.5 73.5 11.5zM148 487.001l9 -101.001l6 -13v-312l-4 -12c2 -18.667 3.16699 -36.667 3.5 -54s0.5 -35.666 0.5 -54.999v-141h-85v688h70z" />
    <glyph glyph-name="q" unicode="q" horiz-adv-x="570" 
d="M274 499c15.333 0 32.334 -0.666016 51.001 -1.99902s38 -3.5 58 -6.5s39.5 -6.66699 58.5 -11s36.5 -9.16602 52.5 -14.499l-69 -59c-17.333 5.33301 -35 9.66602 -53 12.999s-35.333 5.66602 -52 6.99902s-32.334 1.66602 -47.001 0.999023
c-32 -0.666992 -57.667 -6.5 -77 -17.5s-33.166 -30.167 -41.499 -57.5s-12.5 -66 -12.5 -116c0 -59.333 7.33301 -103.166 22 -131.499s43.334 -42.5 86.001 -42.5c30.667 0 58.5 6.5 83.5 19.5s53.5 30.5 85.5 52.5l11 -56
c-20.667 -18.667 -42.334 -34.834 -65.001 -48.501s-45.834 -24.167 -69.501 -31.5s-48.167 -11 -73.5 -11c-56.667 0 -98.667 20.333 -126 61s-41 105.334 -41 194.001c0 42 3.5 79 10.5 111s18.833 58.833 35.5 80.5s39 38 67 49s63.333 16.5 106 16.5zM409.001 468.001
l85 -3v-666h-85l-1 167c0 21.333 0.666992 40.5 2 57.5s4 34.5 8 52.5l-9 14v378z" />
    <glyph glyph-name="r" unicode="r" horiz-adv-x="401" 
d="M144 487l11 -93l8 -15v-379h-85v487h66zM383 499l-9.99902 -80h-28c-28.667 0 -57.334 -5.83301 -86.001 -17.5s-63.667 -28.167 -105 -49.5l-7 53c36 29.333 72.167 52.333 108.5 69s71.5 25 105.5 25h22z" />
    <glyph glyph-name="s" unicode="s" horiz-adv-x="508" 
d="M240 499c21.333 0 43.9961 -0.668945 67.9961 -2.00195s47.833 -3 71.5 -5s45.5 -4.66699 65.5 -8l-7 -62c-30.667 1.33301 -61.5 2.5 -92.5 3.5s-61.833 1.5 -92.5 1.5c-30 0.666992 -53.667 0 -71 -2s-29.833 -7.33301 -37.5 -16s-11.5 -23.334 -11.5 -44.001
c0 -25.333 6 -42 18 -50s29.667 -14.667 53 -20l142 -32c38.667 -9.33301 67.167 -23.666 85.5 -42.999s27.5 -49.666 27.5 -90.999c0 -40 -7.5 -70 -22.5 -90s-37.833 -33.333 -68.5 -40s-69.667 -10 -117 -10c-17.333 0 -43.166 0.666992 -77.499 2
s-72.166 5.33301 -113.499 12l6 62c16 -0.666992 33 -1.5 51 -2.5s36.833 -1.5 56.5 -1.5h60.5c36.667 0 65.334 1.66699 86.001 5s35.334 9.83301 44.001 19.5s13 24.167 13 43.5c0 24 -7 40 -21 48s-32.667 14.667 -56 20l-140 32c-26.667 6.66699 -48 15.5 -64 26.5
s-27.667 25.333 -35 43s-11 39.834 -11 66.501c0 38 6.66699 66.667 20 86s34 32.333 62 39s64 9.66699 108 9z" />
    <glyph glyph-name="t" unicode="t" horiz-adv-x="381" 
d="M200 631v-497.001c0 -23.333 5 -40 15 -50s27 -15 51 -15h74l10 -65c-10.667 -2.66699 -23 -5 -37 -7s-27.667 -3.5 -41 -4.5s-24 -1.5 -32 -1.5c-40.667 0 -71.667 11.333 -93 34s-32 55.334 -32 98.001v508h85zM355 486.999v-67h-328v62l96 5h232z" />
    <glyph glyph-name="u" unicode="u" horiz-adv-x="570" 
d="M160 487l0.000976562 -341.999c-0.666992 -30.667 5 -52.334 17 -65.001s32 -19 60 -19c27.333 0 54.5 6.5 81.5 19.5s59.5 31.833 97.5 56.5l11 -59c-38 -30 -74.833 -52.667 -110.5 -68s-71.834 -23 -108.501 -23c-88.667 0 -133 44.667 -133 134v366h85z
M492.001 487.001v-487h-68l-8 92l-9 15v380h85z" />
    <glyph glyph-name="v" unicode="v" horiz-adv-x="530" 
d="M511 487l-178 -466c-2.66699 -6.66699 -6.5 -11.834 -11.5 -15.501s-11.167 -5.5 -18.5 -5.5h-77c-6.66699 0 -12.667 1.83301 -18 5.5s-9.33301 8.83398 -12 15.501l-178 466h91l120 -341c5.33301 -14 10.333 -28.333 15 -43l14 -42h13l15.5 42.5l14.5 42.5l120 341h90z
" />
    <glyph glyph-name="w" unicode="w" horiz-adv-x="824" 
d="M799 487l-142.003 -463.002c-2 -7.33301 -6 -13.166 -12 -17.499s-13 -6.5 -21 -6.5h-77c-8 0 -15.167 2.5 -21.5 7.5s-10.166 11.5 -11.499 19.5l-80 331c-2.66699 12.667 -5.16699 25.334 -7.5 38.001s-5.16602 25.667 -8.49902 39h-12
c-2.66699 -13.333 -5.5 -26.333 -8.5 -39s-5.83301 -25.334 -8.5 -38.001l-79 -331c-2 -8 -6 -14.5 -12 -19.5s-13.333 -7.5 -22 -7.5h-76c-8 0 -15 2.16699 -21 6.5s-10 10.166 -12 17.499l-142 463h88l101 -359c3.33301 -12 6.33301 -24.167 9 -36.5s5 -24.5 7 -36.5h13
c3.33301 12 6.5 24.167 9.5 36.5l8.5 36.5l81 332c1.33301 8 4.83301 14.5 10.5 19.5s12.834 7.5 21.501 7.5h77c8 0 14.833 -2.5 20.5 -7.5s9.5 -11.833 11.5 -20.5l80 -331c2.66699 -12 5.5 -24 8.5 -36s5.83301 -24.333 8.5 -37h13c3.33301 12.667 6 24.834 8 36.501
s5 23.834 9 36.501l101 359h88z" />
    <glyph glyph-name="x" unicode="x" horiz-adv-x="528" 
d="M493 487l-151 -236l163 -251h-92l-159 251l147 236h92zM127 487l147 -236l-158 -251h-93l163 251l-151 236h92zM317 286v-66h-105v66h105z" />
    <glyph glyph-name="y" unicode="y" horiz-adv-x="529" 
d="M510 487l-194.998 -514c-8 -21.333 -18 -42.333 -30 -63s-26.5 -39.5 -43.5 -56.5s-37 -30.833 -60 -41.5s-49.5 -16.667 -79.5 -18l-8 56c39.333 12.667 69.666 29.667 90.999 51s38.333 47.333 51 78l24 58c5.33301 13.333 10.666 28 15.999 44s10.333 30.333 15 43
l127 363h92zM109.002 487l129.001 -363l10 -29.5c3.33301 -9.66699 6 -19.5 8 -29.5h23l-28 -65h-26c-6.66699 0 -12.834 2 -18.501 6s-9.5 9.33301 -11.5 16l-177 465h91z" />
    <glyph glyph-name="z" unicode="z" horiz-adv-x="510" 
d="M363 418l95 -1l-314 -349l-95 1zM461 69v-69h-412v69h412zM458 487v-70h-406v70h406z" />
    <glyph glyph-name="braceleft" unicode="{" horiz-adv-x="319" 
d="M276 768l0.000976562 -54c-34.667 0 -58.334 -6.5 -71.001 -19.5s-19 -34.833 -19 -65.5v-179c0.666992 -27.333 -1.5 -49 -6.5 -65s-14 -28.333 -27 -37s-31.5 -15.334 -55.5 -20.001c24.667 -7.33301 43.667 -15.666 57 -24.999s22.666 -21.333 27.999 -36
s8 -33.667 8 -57v-237c0 -30 6.33301 -51.5 19 -64.5s36.334 -19.5 71.001 -19.5v-54c-40.667 -2.66699 -73.667 0.666016 -99 9.99902s-43.833 24.333 -55.5 45s-17.5 46.667 -17.5 78v256c0 17.333 -2.16699 30.166 -6.5 38.499s-11 14.833 -20 19.5
s-20.833 9.66699 -35.5 15v62c16 5.33301 28.167 9.83301 36.5 13.5s14 10 17 19s4.5 23.833 4.5 44.5v199c0 31.333 5.83301 57.333 17.5 78s30.167 35.834 55.5 45.501s58.333 12.834 99 9.50098z" />
    <glyph glyph-name="bar" unicode="|" horiz-adv-x="246" 
d="M154 781v-950h-62v950h62z" />
    <glyph glyph-name="braceright" unicode="}" horiz-adv-x="320" 
d="M44 768c41.333 3.33301 74.501 0.166016 99.501 -9.50098s43.333 -24.834 55 -45.501s17.5 -46.667 17.5 -78v-199c0 -20.667 1.5 -35.5 4.5 -44.5s8.66699 -15.333 17 -19s20.5 -8.16699 36.5 -13.5v-62c-14.667 -5.33301 -26.667 -10.333 -36 -15
s-16 -11.167 -20 -19.5s-6 -21.166 -6 -38.499v-256c0 -31.333 -5.83301 -57.333 -17.5 -78s-30 -35.667 -55 -45s-58.167 -12.666 -99.5 -9.99902v54c35.333 0 59.166 6.5 71.499 19.5s18.5 34.5 18.5 64.5v237c0.666992 23.333 3.66699 42.333 9 57
s14.666 26.667 27.999 36s32 17.666 56 24.999c-23.333 4.66699 -41.5 11.334 -54.5 20.001s-22 21 -27 37s-7.5 37.667 -7.5 65v179c0 30.667 -6.16699 52.5 -18.5 65.5s-36.166 19.5 -71.499 19.5v54z" />
    <glyph glyph-name="asciitilde" unicode="~" horiz-adv-x="525" 
d="M154 348c17.333 -0.666992 34.832 -3.83398 52.499 -9.50098s35.334 -12 53.001 -19l51.5 -19.5c16.667 -6 33 -9.66699 49 -11c17.333 -2 29.166 1.33301 35.499 10s9.5 23.334 9.5 44.001h44c4.66699 -40 -0.5 -70 -15.5 -90s-35.5 -29.333 -61.5 -28
c-20 1.33301 -39.167 4.66602 -57.5 9.99902s-36 11.5 -53 18.5l-49.5 19.5c-16 6 -31.333 9.66699 -46 11c-18 2 -30 -1.5 -36 -10.5s-9 -24.167 -9 -45.5h-44c-3.33301 28 -1.83301 50.833 4.5 68.5s15.833 30.834 28.5 39.501s27.334 12.667 44.001 12z" />
    <glyph glyph-name="uni00A0" unicode="&#xa0;" horiz-adv-x="223" 
 />
    <glyph glyph-name="exclamdown" unicode="&#xa1;" horiz-adv-x="256" 
d="M162 282l9 -178v-300h-85v300l8 178h68zM140 493c11.333 0 19.333 -2.33301 24 -7s7 -13 7 -25v-55c0 -11.333 -2.33301 -19.333 -7 -24s-12.667 -7 -24 -7h-22c-11.333 0 -19.5 2.33301 -24.5 7s-7.5 12.667 -7.5 24v55c0 12 2.5 20.333 7.5 25s13.167 7 24.5 7h22z" />
    <glyph glyph-name="cent" unicode="&#xa2;" horiz-adv-x="508" 
d="M285 605c14.667 0 31 -0.833008 49 -2.5s36.5 -4.16699 55.5 -7.5s36.5 -8 52.5 -14l-11 -57c-22 3.33301 -45.167 5.5 -69.5 6.5s-45.166 1.5 -62.499 1.5c-40 0 -71.667 -5.33301 -95 -16s-40.166 -29.334 -50.499 -56.001s-15.5 -63.667 -15.5 -111
s5.16699 -84.333 15.5 -111s27.166 -45.5 50.499 -56.5s55 -16.5 95 -16.5c10 0 23.167 0.333008 39.5 1s33.666 1.83398 51.999 3.50098s35.5 3.83398 51.5 6.50098l9 -57c-24.667 -8.66699 -51.5 -15 -80.5 -19s-57.5 -6 -85.5 -6c-56 0 -101 8.16699 -135 24.5
s-58.5 43.166 -73.5 80.499s-22.5 87.333 -22.5 150s7.5 112.667 22.5 150s39.5 64.333 73.5 81s79 25 135 25zM296 133l-13 -133h-45l13 133h45zM332 557l-35 -426h-46l35 426h46zM345 690l-13 -135h-45l12 135h46z" />
    <glyph glyph-name="sterling" unicode="&#xa3;" horiz-adv-x="569" 
d="M316 702c13.333 0 29.4961 -0.333008 48.4961 -1s39.667 -1.66699 62 -3s45.166 -3.33301 68.499 -6l-5 -70c-13.333 0.666992 -25.666 1.33398 -36.999 2.00098s-23.166 1.16699 -35.499 1.5s-26.666 0.5 -42.999 0.5h-60.5c-40 0 -67.667 -7.5 -83 -22.5
s-22 -42.833 -20 -83.5l16 -257c1.33301 -31.333 -0.166992 -58.5 -4.5 -81.5s-11.833 -43.167 -22.5 -60.5s-25.667 -33.666 -45 -48.999c11.333 1.33301 22.5 2.16602 33.5 2.49902s22.167 0.5 33.5 0.5h296v-75h-456v75c34.667 17.333 57 42.5 67 75.5
s13.667 70.5 11 112.5l-15 258c-2 39.333 1 71 9 95s20.333 42.167 37 54.5s37.334 20.666 62.001 24.999s52.334 6.5 83.001 6.5zM430.996 391l-2 -56h-372l-1 56h375z" />
    <glyph glyph-name="currency" unicode="&#xa4;" horiz-adv-x="594" 
d="M296 497c-26 0 -50 -6.5 -72 -19.5s-39.5 -30.5 -52.5 -52.5s-19.5 -46.333 -19.5 -73s6.5 -51 19.5 -73s30.5 -39.333 52.5 -52s46 -19 72 -19s49.833 6.33301 71.5 19s39 30 52 52s19.5 46.333 19.5 73s-6.5 51 -19.5 73s-30.333 39.5 -52 52.5s-45.5 19.5 -71.5 19.5z
M106 580l83 -84l-37 -37l-83 83zM488 580l38 -38l-82 -81l-37 37zM155 252l40 -40l-89 -89l-40 40zM438 247l88 -87l-38 -37l-87 87zM296 548c36.667 0 69.668 -8.83301 99.001 -26.5s52.833 -41.334 70.5 -71.001s26.5 -62.834 26.5 -99.501
c0 -36 -8.83301 -68.833 -26.5 -98.5s-41.334 -53.334 -71.001 -71.001s-62.5 -26.5 -98.5 -26.5s-68.833 8.83301 -98.5 26.5s-53.334 41.334 -71.001 71.001s-26.5 62.5 -26.5 98.5c0 36.667 8.83301 69.834 26.5 99.501s41.334 53.334 71.001 71.001s62.5 26.5 98.5 26.5
z" />
    <glyph glyph-name="yen" unicode="&#xa5;" horiz-adv-x="618" 
d="M582 690l-233 -435h-80l-233 435h91l145 -275c6.66699 -12 12.667 -24.833 18 -38.5l16 -39.5h7l16.5 39.5c5.66699 13.667 11.167 26.167 16.5 37.5l144 276h92zM353 317v-317h-88v317h88zM531 210v-51h-439l-1 51h440zM531 323v-52h-439l-1 52h440z" />
    <glyph glyph-name="brokenbar" unicode="&#xa6;" horiz-adv-x="248" 
d="M155 781v-400h-62v400h62zM155 231v-400h-62v400h62z" />
    <glyph glyph-name="section" unicode="&#xa7;" horiz-adv-x="544" 
d="M140 388c-2 -28.667 -1.66406 -53.166 1.00293 -73.499s9.5 -37.833 20.5 -52.5s26.833 -28 47.5 -40l173 -98c20.667 -12 38.5 -24.833 53.5 -38.5s26.667 -29.834 35 -48.501s12.5 -41.667 12.5 -69c0 -38.667 -8.16699 -67.334 -24.5 -86.001s-39.333 -30.667 -69 -36
s-64.167 -8 -103.5 -8c-20 0.666992 -42.333 1.5 -67 2.5s-49.834 2.33301 -75.501 4s-50.834 3.5 -75.501 5.5l7 67c22.667 -1.33301 43.834 -2.5 63.501 -3.5s39.667 -1.66699 60 -2s42.5 -0.833008 66.5 -1.5c26 0 48.333 1 67 3s33.334 7.16699 44.001 15.5
s16 22.5 16 42.5c1.33301 24 -4.33398 42.833 -17.001 56.5s-28.334 25.834 -47.001 36.501l-162 90c-32.667 17.333 -56.5 37 -71.5 59s-23.333 47.5 -25 76.5s1.16602 61.833 8.49902 98.5h62zM260.003 703.001c20.667 0 43.6641 -0.5 68.9971 -1.5s51 -2.33301 77 -4
s49.667 -3.83398 71 -6.50098l-6 -66c-19.333 1.33301 -37.5 2.33301 -54.5 3s-35.833 1.16699 -56.5 1.5s-46.667 0.5 -78 0.5c-26 0.666992 -48.667 0 -68 -2s-34.166 -7 -44.499 -15s-15.833 -21.333 -16.5 -40c-0.666992 -24 5.33301 -42.667 18 -56
s28.667 -25.666 48 -36.999l162 -91c32.667 -17.333 56.334 -37.166 71.001 -59.499s22.834 -48 24.501 -77s-1.5 -61.833 -9.5 -98.5h-62c2.66699 28.667 2.33398 53.167 -0.999023 73.5s-10.333 38.166 -21 53.499s-26.334 29 -47.001 41l-173 99
c-20.667 12 -38.667 24.667 -54 38s-27 29.333 -35 48s-12 41.334 -12 68.001c0 36 7.66699 63.167 23 81.5s37.833 30.666 67.5 36.999s65.5 9.5 107.5 9.5z" />
    <glyph glyph-name="dieresis" unicode="&#xa8;" horiz-adv-x="411" 
d="M309 693c16 0 24 -8 24 -24v-55c0 -16 -8 -24 -24 -24h-28c-16 0 -24 8 -24 24v55c0 16 8 24 24 24h28zM132 693c15.333 0 23 -8 23 -24v-55c0 -16 -7.66699 -24 -23 -24h-29c-15.333 0 -23 8 -23 24v55c0 16 7.66699 24 23 24h29z" />
    <glyph glyph-name="copyright" unicode="&#xa9;" horiz-adv-x="836" 
d="M418 703c50 0 96.667 -8.83301 140 -26.5s81.5 -42.5 114.5 -74.5s58.667 -69.833 77 -113.5s27.5 -91.5 27.5 -143.5s-9.16699 -99.833 -27.5 -143.5s-44 -81.5 -77 -113.5s-71.167 -56.833 -114.5 -74.5s-90 -26.5 -140 -26.5s-96.667 8.83301 -140 26.5
s-81.333 42.5 -114 74.5s-58.334 69.833 -77.001 113.5s-28 91.5 -28 143.5s9.33301 99.833 28 143.5s44.334 81.5 77.001 113.5s70.667 56.833 114 74.5s90 26.5 140 26.5zM423 568c31.333 0 56.6689 -0.998047 76.002 -2.99805s39 -5.66699 59 -11l-8 -48
c-21.333 1.33301 -40.833 2.16602 -58.5 2.49902s-40.834 0.5 -69.501 0.5c-32 0 -57.333 -5 -76 -15s-31.834 -26.667 -39.501 -50s-11.5 -55.666 -11.5 -96.999c0 -40.667 3.83301 -72.834 11.5 -96.501s20.834 -40.5 39.501 -50.5s44 -15 76 -15
c31.333 0 57.333 0.333008 78 1s41.334 2.33398 62.001 5.00098l6 -49c-20.667 -4.66699 -41.834 -8.33398 -63.501 -11.001s-48.834 -4 -81.501 -4c-47.333 0 -85.333 7.16699 -114 21.5s-49.334 37.5 -62.001 69.5s-19 75 -19 129s6.33301 97.167 19 129.5
s33.334 55.666 62.001 69.999s66.667 21.5 114 21.5zM418.003 657.002c-42.667 0 -82.834 -7.66699 -120.501 -23s-70.834 -37.166 -99.501 -65.499s-51.167 -61.333 -67.5 -99s-24.5 -79.167 -24.5 -124.5c0 -44.667 8.16699 -86 24.5 -124s38.833 -71.167 67.5 -99.5
s61.834 -50.166 99.501 -65.499s77.834 -23 120.501 -23c43.333 0 83.833 7.66699 121.5 23s70.667 37.166 99 65.499s50.666 61.5 66.999 99.5s24.5 79.333 24.5 124c0 45.333 -8.16699 86.833 -24.5 124.5s-38.666 70.667 -66.999 99s-61.333 50.166 -99 65.499
s-78.167 23 -121.5 23z" />
    <glyph glyph-name="ordfeminine" unicode="&#xaa;" horiz-adv-x="441" 
d="M254 607c36 0 64 -7.83105 84 -23.498s30 -43.834 30 -84.501v-227h-51l-10 72l-3 8v148c0 16 -4.5 28.833 -13.5 38.5s-25.5 14.5 -49.5 14.5c-22.667 0 -47.667 -0.833008 -75 -2.5s-54 -3.5 -80 -5.5l-7 48l52 6.5c18.667 2.33301 38.5 4.16602 59.5 5.49902
s42.167 2 63.5 2zM339 472.002l-1.00098 -35l-161 -10c-18.667 -0.666992 -31.667 -4.66699 -39 -12s-11 -17.333 -11 -30v-18c0 -16.667 4.66699 -28.5 14 -35.5s23 -10.5 41 -10.5c16 0 32.833 3.16699 50.5 9.5s34.5 14.666 50.5 24.999s29.333 20.833 40 31.5v-38
c-5.33301 -7.33301 -13.166 -15.666 -23.499 -24.999s-22.333 -18.5 -36 -27.5s-29.167 -16.333 -46.5 -22s-35.666 -8.5 -54.999 -8.5c-29.333 0 -53 7.33301 -71 22s-27 36.334 -27 65.001v38c0 25.333 8.16699 45.166 24.5 59.499s39.166 21.5 68.499 21.5h182z" />
    <glyph glyph-name="guillemotleft" unicode="&#xab;" horiz-adv-x="485" 
d="M385 459l45 -30l-126 -178l127 -182l-45 -30l-161 202v20zM204 459l45 -30l-126 -178l127 -182l-45 -30l-161 202v20z" />
    <glyph glyph-name="logicalnot" unicode="&#xac;" horiz-adv-x="590" 
d="M512 330v-65h-438v65h438zM512 321v-189h-66v189h66z" />
    <glyph glyph-name="uni00AD" unicode="&#xad;" horiz-adv-x="448" 
d="M377 285v-65h-305v65h305z" />
    <glyph glyph-name="registered" unicode="&#xae;" horiz-adv-x="553" 
d="M277 702c41.333 0 78.666 -10 111.999 -30s60 -46.667 80 -80s30 -70.666 30 -111.999s-10 -78.833 -30 -112.5s-46.667 -60.5 -80 -80.5s-70.666 -30 -111.999 -30s-78.833 10 -112.5 30s-60.5 46.833 -80.5 80.5s-30 71.167 -30 112.5s10 78.666 30 111.999
s46.833 60 80.5 80s71.167 30 112.5 30zM217 610v-259h-40v259h40zM277 673c-35.333 0 -67.5 -8.66699 -96.5 -26s-52.167 -40.666 -69.5 -69.999s-26 -61.666 -26 -96.999s8.66699 -67.666 26 -96.999s40.5 -52.666 69.5 -69.999s61.167 -26 96.5 -26s67.333 8.66699 96 26
s51.667 40.666 69 69.999s26 61.666 26 96.999s-8.66699 67.666 -26 96.999s-40.333 52.666 -69 69.999s-60.667 26 -96 26zM286 613c36.667 0 63.002 -5.16699 79.002 -15.5s24 -30.166 24 -59.499c0 -19.333 -4.5 -34.333 -13.5 -45s-24.167 -17.334 -45.5 -20.001v-2
c8 -0.666992 15.667 -4.16699 23 -10.5s12.666 -15.5 15.999 -27.5l30 -82h-42l-28 80c-4 10 -9.33301 17 -16 21s-15.334 6 -26.001 6h-68c-16.667 0 -29 0.333008 -37 1l1 28h102c23.333 0.666992 39.833 4.33398 49.5 11.001s14.167 18.667 13.5 36
c0.666992 19.333 -3.83301 32 -13.5 38s-26.167 9 -49.5 9h-64c-18 0 -30.333 -0.333008 -37 -1l-7 30c17.333 1.33301 33.5 2.16602 48.5 2.49902s35.167 0.5 60.5 0.5z" />
    <glyph glyph-name="macron" unicode="&#xaf;" horiz-adv-x="400" 
d="M339 672v-63h-278v63h278z" />
    <glyph glyph-name="degree" unicode="&#xb0;" horiz-adv-x="363" 
d="M182 703c23.333 0 44.832 -5.66895 64.499 -17.002s35.334 -26.666 47.001 -45.999s17.5 -40.666 17.5 -63.999s-5.83301 -44.666 -17.5 -63.999s-27.334 -34.833 -47.001 -46.5s-41.167 -17.5 -64.5 -17.5s-45 5.83301 -65 17.5s-35.833 27.167 -47.5 46.5
s-17.5 40.666 -17.5 63.999s5.83301 44.5 17.5 63.5s27.334 34.333 47.001 46s41.5 17.5 65.5 17.5zM181.999 650.998c-20.667 0 -38.499 -7 -53.499 -21s-22.5 -32 -22.5 -54c0 -14 3.5 -26.833 10.5 -38.5s16.167 -20.834 27.5 -27.501s24 -10 38 -10
s26.667 3.33301 38 10s20.333 15.834 27 27.501s10 24.5 10 38.5c0 22 -7.33301 40 -22 54s-32.334 21 -53.001 21z" />
    <glyph glyph-name="plusminus" unicode="&#xb1;" horiz-adv-x="588" 
d="M513 391v-64h-438v64h438zM513 134v-64h-438v64h438zM327 524l-1 -331h-65v331h66z" />
    <glyph glyph-name="uni00B2" unicode="&#xb2;" horiz-adv-x="414" 
d="M200 773c32 0 58.834 -2.5 80.501 -7.5s38 -14.333 49 -28s16.5 -33.5 16.5 -59.5c0 -22.667 -6.83301 -45.334 -20.5 -68.001s-33.834 -47.667 -60.501 -75l-120 -119c12 1.33301 22.833 2 32.5 2h32.5l153 -1l-1 -58h-305v36c0 5.33301 0.833008 10.333 2.5 15
s4.5 9 8.5 13l125 124c18 17.333 32.667 33 44 47s20 27.333 26 40s9 25 9 37c0.666992 19.333 -5.83301 31.666 -19.5 36.999s-32.167 8 -55.5 8c-20.667 0 -40.834 -0.666992 -60.501 -2s-43.167 -3.66602 -70.5 -6.99902l-4 51
c30.667 6.66699 57.334 10.834 80.001 12.501s42 2.5 58 2.5z" />
    <glyph glyph-name="uni00B3" unicode="&#xb3;" horiz-adv-x="407" 
d="M194 774c52 0 88.668 -6.83301 110.001 -20.5s32 -38.167 32 -73.5c0 -27.333 -5 -50.166 -15 -68.499s-28.667 -30.166 -56 -35.499v-2c30.667 -4.66699 51.834 -15.5 63.501 -32.5s17.834 -40.167 18.501 -69.5c1.33301 -42 -9.33398 -72.667 -32.001 -92
s-60.667 -29 -114 -29c-24.667 0 -49.5 1.16699 -74.5 3.5s-48.5 5.16602 -70.5 8.49902l5 50c15.333 -1.33301 29.666 -2.5 42.999 -3.5s26.666 -1.66699 39.999 -2s27 -0.5 41 -0.5c34.667 0 58.834 5.33301 72.501 16s20.5 29.667 20.5 57c0 12 -2 23 -6 33
s-11.833 18 -23.5 24s-29.167 9 -52.5 9h-85v50l85 1c23.333 0 40.166 3.5 50.499 10.5s17 15.667 20 26s4.16699 20.5 3.5 30.5c0 21.333 -6 35.666 -18 42.999s-34.667 11 -68 11c-20.667 0 -41.5 -0.5 -62.5 -1.5s-39.167 -2.5 -54.5 -4.5l-4 49c22 4 44 7.16699 66 9.5
s43.667 3.5 65 3.5z" />
    <glyph glyph-name="acute" unicode="&#xb4;" horiz-adv-x="314" 
d="M221 731l49 -66l-192 -120l-29 39z" />
    <glyph glyph-name="uni00B5" unicode="&#xb5;" horiz-adv-x="577" 
d="M162 487v-333.001c0 -34.667 6.83301 -58 20.5 -70s33.834 -18 60.501 -18c30 0 57.5 9 82.5 27s45 42 60 72s22.833 62.667 23.5 98l3 -161c-10.667 -20.667 -25 -39.667 -43 -57s-38.833 -31.166 -62.5 -41.499s-49.5 -15.5 -77.5 -15.5
c-28.667 0 -54.334 5.33301 -77.001 16s-40.667 26.667 -54 48s-20 48.333 -20 81v354h84zM162 83.999l-1 -160l-10 -125h-73v382zM494 486.999l-0.00195312 -378.999c0 -10.667 0.666992 -20 2 -28s3.83301 -14.167 7.5 -18.5s9.83398 -6.5 18.501 -6.5h32l6 -51
c-12.667 -4.66699 -25.5 -8.16699 -38.5 -10.5s-25.5 -3.5 -37.5 -3.5c-23.333 0 -41.166 7.16699 -53.499 21.5s-18.5 36.166 -18.5 65.499v25l-3 16v369h85z" />
    <glyph glyph-name="paragraph" unicode="&#xb6;" horiz-adv-x="593" 
d="M346 702c20.667 0 45.168 -1.16992 73.501 -3.50293s54.166 -6.83301 77.499 -13.5l-6 -51c-16 3.33301 -34.5 5.83301 -55.5 7.5s-41.5 2.83398 -61.5 3.50098s-37.333 1 -52 1l-43 -446c-85.333 6.66699 -146.5 29.334 -183.5 68.001s-55.5 99.334 -55.5 182.001
c0 62 10.167 111.333 30.5 148s53 63.167 98 79.5s104.167 24.5 177.5 24.5zM334.001 684.997v-895h-65v895h65zM497.001 684.997v-685h-65v685h65z" />
    <glyph glyph-name="periodcentered" unicode="&#xb7;" horiz-adv-x="236" 
d="M132 317c12 0 20.333 -2.33301 25 -7s7 -13 7 -25v-54c0 -12 -2.33301 -20.333 -7 -25s-13 -7 -25 -7h-28c-11.333 0 -19.5 2.33301 -24.5 7s-7.5 13 -7.5 25v54c0 12 2.5 20.333 7.5 25s13.167 7 24.5 7h28z" />
    <glyph glyph-name="cedilla" unicode="&#xb8;" horiz-adv-x="234" 
d="M90 -43c26 2.66699 47.1689 2.50098 63.502 -0.499023s28.5 -9.5 36.5 -19.5s11.667 -25 11 -45c-0.666992 -28 -8.33398 -51.833 -23.001 -71.5s-34.334 -33.834 -59.001 -42.501s-53 -11 -85 -7l13 45c27.333 -0.666992 49.5 5.5 66.5 18.5s25.833 29.833 26.5 50.5
c0.666992 12 -3 20.167 -11 24.5s-24 6.83301 -48 7.5z" />
    <glyph glyph-name="uni00B9" unicode="&#xb9;" horiz-adv-x="294" 
d="M210 767v-408h-66v310c0 6 0.166992 12.167 0.5 18.5s0.833008 12.833 1.5 19.5l-108 -29l-8 47l114 42h66z" />
    <glyph glyph-name="ordmasculine" unicode="&#xba;" horiz-adv-x="444" 
d="M222 607c60 0 102.168 -12.835 126.501 -38.502s36.5 -70.167 36.5 -133.5c0 -41.333 -5.33301 -74.666 -16 -99.999s-27.834 -43.5 -51.501 -54.5s-55.5 -16.5 -95.5 -16.5c-60 0 -102.167 12.833 -126.5 38.5s-36.5 69.834 -36.5 132.501
c0 63.333 12.167 107.833 36.5 133.5s66.5 38.5 126.5 38.5zM222.001 553.998c-36 0 -61 -8.33301 -75 -25s-21 -48 -21 -94c0 -45.333 7 -76.166 21 -92.499s39 -24.5 75 -24.5s60.833 8.16699 74.5 24.5s20.5 47.166 20.5 92.499c0 46 -6.83301 77.333 -20.5 94
s-38.5 25 -74.5 25z" />
    <glyph glyph-name="guillemotright" unicode="&#xbb;" horiz-adv-x="485" 
d="M99 459l160 -198v-20l-161 -202l-45 30l127 182l-126 178zM281 459l160 -198v-20l-161 -202l-45 30l127 182l-126 178z" />
    <glyph glyph-name="onequarter" unicode="&#xbc;" horiz-adv-x="863" 
d="M645 690l-447 -690h-61l447 690h61zM221 690v-414h-66v315c0 6.66699 0.333008 13.167 1 19.5s1.66699 12.833 3 19.5l-113 -29l-8 46l117 43h66zM667 414l-121.997 -242c-2.66699 -6 -2.33398 -11.167 0.999023 -15.5s8.66602 -6.5 15.999 -6.5h259v-47l-58 -6h-248
c-16.667 0 -29.834 5.83301 -39.501 17.5s-9.5 27.5 0.5 47.5l127 252h64zM773.003 335v-335h-63v267l12 68h51z" />
    <glyph glyph-name="onehalf" unicode="&#xbd;" horiz-adv-x="887" 
d="M639 690l-447 -690h-62l448 690h61zM221 690v-414h-66v315c0 6.66699 0.333008 13.167 1 19.5s1.66699 12.833 3 19.5l-113 -29l-8 46l117 43h66zM670 421c32.667 0 60.167 -2.33203 82.5 -6.99902s39.166 -13.834 50.499 -27.501s17 -33.834 17 -60.501
c0 -22.667 -6.66699 -45.334 -20 -68.001s-34 -48 -62 -76l-127 -124c12.667 1.33301 24.167 2 34.5 2h34.5l158 -1l-1 -59h-311v38c0 5.33301 0.666992 10.333 2 15s4 9 8 13l129 125c27.333 26.667 47.833 50.334 61.5 71.001s20.834 40 21.501 58
c0 20 -7.33301 32.333 -22 37s-34.667 7 -60 7c-21.333 0 -41.5 -0.5 -60.5 -1.5s-42.833 -3.16699 -71.5 -6.5l-4 50c32 6.66699 59.167 10.834 81.5 12.501s41.833 2.5 58.5 2.5z" />
    <glyph glyph-name="threequarters" unicode="&#xbe;" horiz-adv-x="954" 
d="M746 690l-447 -690h-61l447 690h61zM197 695c55.333 0 93.667 -6.83203 115 -20.499s32 -38.5 32 -74.5c0 -27.333 -5.16699 -50.5 -15.5 -69.5s-30.5 -30.833 -60.5 -35.5v-2c33.333 -4.66699 56 -15.834 68 -33.501s18.333 -41.167 19 -70.5
c1.33301 -42.667 -9.33398 -73.834 -32.001 -93.501s-62 -29.5 -118 -29.5c-24.667 0 -49.834 1.16699 -75.501 3.5s-50.167 4.83301 -73.5 7.5l4 50c16 -1.33301 31 -2.33301 45 -3s27.833 -1.16699 41.5 -1.5s27.834 -0.5 42.501 -0.5c36 0 61.333 5.5 76 16.5
s22 30.5 22 58.5c0 12.667 -2.16699 24 -6.5 34s-12.666 18.167 -24.999 24.5s-30.833 9.5 -55.5 9.5l-86 2v45l86 3c24 0.666992 41.667 4.5 53 11.5s18.5 15.667 21.5 26s4.5 20.5 4.5 30.5c0 22.667 -6.5 37.834 -19.5 45.501s-37.167 11.5 -72.5 11.5
c-22 0 -43.333 -0.333008 -64 -1s-39 -1.66699 -55 -3l-4 49c23.333 3.33301 45.833 5.83301 67.5 7.5s43.5 2.5 65.5 2.5zM758.001 414.001l-121.998 -242c-2.66699 -6 -2.33398 -11.167 0.999023 -15.5s9 -6.5 17 -6.5h258v-47l-57 -6h-249
c-16.667 0 -29.834 5.83301 -39.501 17.5s-9.5 27.5 0.5 47.5l127 252h64zM861.003 335.001v-335h-62v267l11 68h51z" />
    <glyph glyph-name="questiondown" unicode="&#xbf;" horiz-adv-x="500" 
d="M296 288c0.666992 -36.667 -4.33496 -68.3291 -15.002 -94.9961s-24.167 -49.834 -40.5 -69.501s-32.833 -38 -49.5 -55s-30.667 -34.333 -42 -52s-17.333 -37.834 -18 -60.501c-1.33301 -32.667 8.5 -56.834 29.5 -72.501s54.5 -23.5 100.5 -23.5
c33.333 0 60.333 0.333008 81 1s39.667 1.66699 57 3s37 3 59 5l5 -61c-17.333 -2.66699 -33 -5.33398 -47 -8.00098s-28.667 -5 -44 -7s-33.166 -3.5 -53.499 -4.5s-45.5 -1.5 -75.5 -1.5c-66.667 0 -117 12.667 -151 38s-51 64.333 -51 117c0 30 6 55.833 18 77.5
s26.833 41.667 44.5 60l53 56c17.667 19 32.834 40.5 45.501 64.5s19.667 53.333 21 88h73zM270.998 499.005c12 0 20.333 -2.33301 25 -7s7 -12.667 7 -24v-56c0 -11.333 -2.33301 -19.333 -7 -24s-13 -7 -25 -7h-21c-12 0 -20.333 2.33301 -25 7s-7 12.667 -7 24v56
c0 11.333 2.33301 19.333 7 24s13 7 25 7h21z" />
    <glyph glyph-name="Agrave" unicode="&#xc0;" horiz-adv-x="622" 
d="M357 690c8 0 15.001 -2.16602 21.001 -6.49902s10 -10.166 12 -17.499l222 -666h-91l-179 566l-8.5 28.5l-8.5 27.5h-28c-2.66699 -8.66699 -5.33398 -17.834 -8.00098 -27.501s-5.66699 -19.167 -9 -28.5l-179 -566h-91l222 666c2 7.33301 6 13.166 12 17.499
s13 6.5 21 6.5h92zM485.001 292.001v-76h-350v76h350zM197.001 906.001l172 -146l-29 -39l-192 120z" />
    <glyph glyph-name="Aacute" unicode="&#xc1;" horiz-adv-x="622" 
d="M357 690c8 0 15.001 -2.16602 21.001 -6.49902s10 -10.166 12 -17.499l222 -666h-91l-179 566l-8.5 28.5l-8.5 27.5h-28c-2.66699 -8.66699 -5.33398 -17.834 -8.00098 -27.501s-5.66699 -19.167 -9 -28.5l-179 -566h-91l222 666c2 7.33301 6 13.166 12 17.499
s13 6.5 21 6.5h92zM485.001 292.001v-76h-350v76h350zM412.001 914.001l49 -66l-192 -120l-29 39z" />
    <glyph glyph-name="Acircumflex" unicode="&#xc2;" horiz-adv-x="622" 
d="M357 690c8 0 15.001 -2.16602 21.001 -6.49902s10 -10.166 12 -17.499l222 -666h-91l-179 566l-8.5 28.5l-8.5 27.5h-28c-2.66699 -8.66699 -5.33398 -17.834 -8.00098 -27.501s-5.66699 -19.167 -9 -28.5l-179 -566h-91l222 666c2 7.33301 6 13.166 12 17.499
s13 6.5 21 6.5h92zM485.001 292.001v-76h-350v76h350zM342.001 889.001l133 -127l-30 -37l-129 97h-8l-130 -97l-29 37l132 127h61z" />
    <glyph glyph-name="Atilde" unicode="&#xc3;" horiz-adv-x="622" 
d="M357 690c8 0 15.001 -2.16602 21.001 -6.49902s10 -10.166 12 -17.499l222 -666h-91l-179 566l-8.5 28.5l-8.5 27.5h-28c-2.66699 -8.66699 -5.33398 -17.834 -8.00098 -27.501s-5.66699 -19.167 -9 -28.5l-179 -566h-91l222 666c2 7.33301 6 13.166 12 17.499
s13 6.5 21 6.5h92zM485.001 292.001v-76h-350v76h350zM231.001 872.001c15.333 -1.33301 29.167 -4.50293 41.5 -9.50293s24 -10.667 35 -17s22.333 -12.166 34 -17.499s24.5 -9 38.5 -11c19.333 -2.66699 32.333 0.333008 39 9s10 22.334 10 41.001h40
c4 -37.333 -1.5 -65.833 -16.5 -85.5s-35.5 -28.5 -61.5 -26.5c-22.667 2 -42.167 7.33301 -58.5 16s-31.666 17.334 -45.999 26.001s-29.833 13.667 -46.5 15c-18.667 2 -31.167 -1.5 -37.5 -10.5s-9.5 -23.5 -9.5 -43.5h-40c-2.66699 26.667 -0.833984 48.667 5.49902 66
s16 30 29 38s27.5 11.333 43.5 10z" />
    <glyph glyph-name="Adieresis" unicode="&#xc4;" horiz-adv-x="622" 
d="M357 690c8 0 15.001 -2.16602 21.001 -6.49902s10 -10.166 12 -17.499l222 -666h-91l-179 566l-8.5 28.5l-8.5 27.5h-28c-2.66699 -8.66699 -5.33398 -17.834 -8.00098 -27.501s-5.66699 -19.167 -9 -28.5l-179 -566h-91l222 666c2 7.33301 6 13.166 12 17.499
s13 6.5 21 6.5h92zM485.001 292.001v-76h-350v76h350zM414.001 863.001c16 0 24 -8 24 -24v-55c0 -16 -8 -24 -24 -24h-28c-16 0 -24 8 -24 24v55c0 16 8 24 24 24h28zM237.001 863.001c15.333 0 23 -8 23 -24v-55c0 -16 -7.66699 -24 -23 -24h-29c-15.333 0 -23 8 -23 24
v55c0 16 7.66699 24 23 24h29z" />
    <glyph glyph-name="Aring" unicode="&#xc5;" horiz-adv-x="622" 
d="M357 690c8 0 15.001 -2.16602 21.001 -6.49902s10 -10.166 12 -17.499l222 -666h-91l-179 566l-8.5 28.5l-8.5 27.5h-28c-2.66699 -8.66699 -5.33398 -17.834 -8.00098 -27.501s-5.66699 -19.167 -9 -28.5l-179 -566h-91l222 666c2 7.33301 6 13.166 12 17.499
s13 6.5 21 6.5h92zM485.001 292.001v-76h-350v76h350zM311.001 924.001c19.333 0 37.167 -4.66699 53.5 -14s29.333 -21.833 39 -37.5s14.5 -33.5 14.5 -53.5c0 -19.333 -4.83301 -37 -14.5 -53s-22.5 -28.667 -38.5 -38s-34 -14 -54 -14
c-19.333 0 -37.166 4.66699 -53.499 14s-29.333 21.833 -39 37.5s-14.5 33.5 -14.5 53.5s4.83301 37.833 14.5 53.5s22.667 28.167 39 37.5s34.166 14 53.499 14zM311.002 880.001c-16.667 0 -30.667 -5.5 -42 -16.5s-17 -25.833 -17 -44.5s5.66699 -33.5 17 -44.5
s25.333 -16.5 42 -16.5c17.333 0 31.666 5.5 42.999 16.5s17 25.833 17 44.5s-5.66699 33.5 -17 44.5s-25.666 16.5 -42.999 16.5z" />
    <glyph glyph-name="AE" unicode="&#xc6;" horiz-adv-x="913" 
d="M567 691c62 0 115.664 -0.332031 160.997 -0.999023s90 -2.33398 134 -5.00098l-3 -70h-255c-20.667 0 -37.167 -6.16699 -49.5 -18.5s-18.5 -29.166 -18.5 -50.499v-405c0 -22.667 5.5 -39.5 16.5 -50.5s28.167 -16.5 51.5 -16.5h255l3 -69
c-47.333 -2.66699 -95.666 -4.33398 -144.999 -5.00098s-98.666 -1 -147.999 -1c-34.667 0 -62.667 11.333 -84 34s-32 51.334 -32 86.001v439c0 14 3.16699 28 9.5 42s13.833 24 22.5 30h-8c-8.66699 -4.66699 -18.167 -12.5 -28.5 -23.5s-20.166 -24.167 -29.499 -39.5
l-328 -567h-92l343 582c12 21.333 24.833 39.166 38.5 53.499s29.167 25.5 46.5 33.5s37.5 13.667 60.5 17s49.5 5 79.5 5zM476.997 298.001v-73h-300l8 73h292zM466.997 401.001l352 -1v-71l-352 -1v73z" />
    <glyph glyph-name="Ccedilla" unicode="&#xc7;" horiz-adv-x="570" 
d="M332 702c29.333 0 54.498 -0.666992 75.498 -2s40.333 -3.5 58 -6.5s35.834 -6.83301 54.501 -11.5l-9 -67c-20 2 -38.5 3.66699 -55.5 5s-35.167 2.33301 -54.5 3s-42.333 1 -69 1c-44.667 0 -80 -8.66699 -106 -26s-44.5 -46.333 -55.5 -87s-16.5 -96 -16.5 -166
s5.5 -125.333 16.5 -166s29.5 -69.667 55.5 -87s61.333 -26 106 -26c42.667 0 78.5 0.833008 107.5 2.5s57.5 4.5 85.5 8.5l9 -66c-28.667 -8 -58.167 -13.833 -88.5 -17.5s-68.166 -5.5 -113.499 -5.5c-66 0 -118.833 11.5 -158.5 34.5s-68.334 60.5 -86.001 112.5
s-26.5 122 -26.5 210s8.83301 158 26.5 210s46.334 89.5 86.001 112.5s92.5 34.5 158.5 34.5zM281.998 -55c26 2.66699 47.1689 2.50098 63.502 -0.499023s28.5 -9.5 36.5 -19.5s11.667 -25 11 -45c-0.666992 -28 -8.33398 -51.833 -23.001 -71.5
s-34.334 -33.834 -59.001 -42.501s-53 -11 -85 -7l13 45c27.333 -0.666992 49.5 5.5 66.5 18.5s25.833 29.833 26.5 50.5c0.666992 12 -3 20.167 -11 24.5s-24 6.83301 -48 7.5z" />
    <glyph glyph-name="Egrave" unicode="&#xc8;" horiz-adv-x="560" 
d="M214 691l100.5 -0.000976562c33.667 0 67 -0.5 100 -1.5s64.833 -2.5 95.5 -4.5l-4 -69h-277c-20.667 0 -35.834 -5.16699 -45.501 -15.5s-14.5 -27.166 -14.5 -50.499v-410c0 -23.333 4.83301 -40.333 14.5 -51s24.834 -16 45.501 -16h277l4 -68
c-30.667 -2 -62.5 -3.33301 -95.5 -4s-66.333 -1.16699 -100 -1.5s-67.167 -0.5 -100.5 -0.5c-40.667 0 -72.834 10.833 -96.501 32.5s-35.834 50.834 -36.501 87.501v452c0.666992 37.333 12.834 66.666 36.501 87.999s55.834 32 96.501 32zM99 399.999h368v-71h-368v71z
M195 926.999l172 -146l-29 -39l-192 120z" />
    <glyph glyph-name="Eacute" unicode="&#xc9;" horiz-adv-x="560" 
d="M214 691l100.5 -0.000976562c33.667 0 67 -0.5 100 -1.5s64.833 -2.5 95.5 -4.5l-4 -69h-277c-20.667 0 -35.834 -5.16699 -45.501 -15.5s-14.5 -27.166 -14.5 -50.499v-410c0 -23.333 4.83301 -40.333 14.5 -51s24.834 -16 45.501 -16h277l4 -68
c-30.667 -2 -62.5 -3.33301 -95.5 -4s-66.333 -1.16699 -100 -1.5s-67.167 -0.5 -100.5 -0.5c-40.667 0 -72.834 10.833 -96.501 32.5s-35.834 50.834 -36.501 87.501v452c0.666992 37.333 12.834 66.666 36.501 87.999s55.834 32 96.501 32zM99 399.999h368v-71h-368v71z
M411 934.999l49 -66l-192 -120l-29 39z" />
    <glyph glyph-name="Ecircumflex" unicode="&#xca;" horiz-adv-x="560" 
d="M214 691l100.5 -0.000976562c33.667 0 67 -0.5 100 -1.5s64.833 -2.5 95.5 -4.5l-4 -69h-277c-20.667 0 -35.834 -5.16699 -45.501 -15.5s-14.5 -27.166 -14.5 -50.499v-410c0 -23.333 4.83301 -40.333 14.5 -51s24.834 -16 45.501 -16h277l4 -68
c-30.667 -2 -62.5 -3.33301 -95.5 -4s-66.333 -1.16699 -100 -1.5s-67.167 -0.5 -100.5 -0.5c-40.667 0 -72.834 10.833 -96.501 32.5s-35.834 50.834 -36.501 87.501v452c0.666992 37.333 12.834 66.666 36.501 87.999s55.834 32 96.501 32zM99 399.999h368v-71h-368v71z
M340 909.999l133 -127l-30 -37l-129 97h-8l-130 -97l-29 37l132 127h61z" />
    <glyph glyph-name="Edieresis" unicode="&#xcb;" horiz-adv-x="560" 
d="M214 691l100.5 -0.000976562c33.667 0 67 -0.5 100 -1.5s64.833 -2.5 95.5 -4.5l-4 -69h-277c-20.667 0 -35.834 -5.16699 -45.501 -15.5s-14.5 -27.166 -14.5 -50.499v-410c0 -23.333 4.83301 -40.333 14.5 -51s24.834 -16 45.501 -16h277l4 -68
c-30.667 -2 -62.5 -3.33301 -95.5 -4s-66.333 -1.16699 -100 -1.5s-67.167 -0.5 -100.5 -0.5c-40.667 0 -72.834 10.833 -96.501 32.5s-35.834 50.834 -36.501 87.501v452c0.666992 37.333 12.834 66.666 36.501 87.999s55.834 32 96.501 32zM99 399.999h368v-71h-368v71z
M412 882.999c16 0 24 -8 24 -24v-55c0 -16 -8 -24 -24 -24h-28c-16 0 -24 8 -24 24v55c0 16 8 24 24 24h28zM235 882.999c15.333 0 23 -8 23 -24v-55c0 -16 -7.66699 -24 -23 -24h-29c-15.333 0 -23 8 -23 24v55c0 16 7.66699 24 23 24h29z" />
    <glyph glyph-name="Igrave" unicode="&#xcc;" horiz-adv-x="262" 
d="M175 690v-690h-88v690h88zM16 913l172 -146l-29 -39l-192 120z" />
    <glyph glyph-name="Iacute" unicode="&#xcd;" horiz-adv-x="262" 
d="M175 690v-690h-88v690h88zM232 921l49 -66l-192 -120l-29 39z" />
    <glyph glyph-name="Icircumflex" unicode="&#xce;" horiz-adv-x="262" 
d="M175 690v-690h-88v690h88zM161 896l133 -127l-30 -37l-129 97h-8l-130 -97l-29 37l132 127h61z" />
    <glyph glyph-name="Idieresis" unicode="&#xcf;" horiz-adv-x="262" 
d="M175 690v-690h-88v690h88zM233 870c16 0 24 -8 24 -24v-55c0 -16 -8 -24 -24 -24h-28c-16 0 -24 8 -24 24v55c0 16 8 24 24 24h28zM56 870c15.333 0 23 -8 23 -24v-55c0 -16 -7.66699 -24 -23 -24h-29c-15.333 0 -23 8 -23 24v55c0 16 7.66699 24 23 24h29z" />
    <glyph glyph-name="Eth" unicode="&#xd0;" horiz-adv-x="669" 
d="M331 391v-49h-309v49h309zM337 699c49.333 0 91.166 -6.00293 125.499 -18.0029s62 -31.667 83 -59s36.333 -63.666 46 -108.999s14.5 -101.333 14.5 -168s-4.83301 -122.667 -14.5 -168s-25 -81.666 -46 -108.999s-48.667 -47 -83 -59s-76.166 -18 -125.499 -18
c-47.333 0 -91.166 0.833008 -131.499 2.5s-78.5 3.83398 -114.5 6.50098l38 72c28 -0.666992 59.167 -1.5 93.5 -2.5s72.5 -1.5 114.5 -1.5c44 0 79 8.5 105 25.5s44.5 45.667 55.5 86s16.5 95.5 16.5 165.5s-5.5 125.167 -16.5 165.5s-29.5 69.166 -55.5 86.499
s-61 26 -105 26c-41.333 0 -78.5 -0.333008 -111.5 -1l-96.5 -2l-38 70c36 2.66699 74.167 4.83398 114.5 6.50098s84.166 2.5 131.499 2.5zM179 689.997v-690h-88v690h88z" />
    <glyph glyph-name="Ntilde" unicode="&#xd1;" horiz-adv-x="705" 
d="M618 690l0.00195312 -655c0 -23.333 -11.333 -35 -34 -35h-86c-10 -0 -18 2.33301 -24 7s-11 11.667 -15 21l-233 489l-21 45c-8 16.667 -14 32 -18 46h-16c1.33301 -14.667 2.33301 -29.667 3 -45s1 -30.666 1 -45.999v-517h-88v655c0 23.333 11.667 35 35 35h83
c10 0 18 -2.33301 24 -7s11 -11.667 15 -21l226 -477c7.33301 -14 15.166 -29.833 23.499 -47.5s16.166 -35.167 23.499 -52.5h17l-2 53c-0.666992 17.333 -1 34.666 -1 51.999v500h87zM284.002 879c15.333 -1.33301 29.167 -4.50293 41.5 -9.50293s24 -10.667 35 -17
s22.333 -12.166 34 -17.499s24.5 -9 38.5 -11c19.333 -2.66699 32.333 0.333008 39 9s10 22.334 10 41.001h40c4 -37.333 -1.5 -65.833 -16.5 -85.5s-35.5 -28.5 -61.5 -26.5c-22.667 2 -42.167 7.33301 -58.5 16s-31.666 17.334 -45.999 26.001s-29.833 13.667 -46.5 15
c-18.667 2 -31.167 -1.5 -37.5 -10.5s-9.5 -23.5 -9.5 -43.5h-40c-2.66699 26.667 -0.833984 48.667 5.49902 66s16 30 29 38s27.5 11.333 43.5 10z" />
    <glyph glyph-name="Ograve" unicode="&#xd2;" 
d="M334 703c50 0 92.5 -6 127.5 -18s63 -31.833 84 -59.5s36.333 -64.5 46 -110.5s14.5 -102.667 14.5 -170s-4.83301 -124 -14.5 -170s-25 -82.833 -46 -110.5s-49 -47.5 -84 -59.5s-77.5 -18 -127.5 -18s-92.5 6 -127.5 18s-63.167 31.833 -84.5 59.5
s-36.833 64.5 -46.5 110.5s-14.5 102.667 -14.5 170s4.83301 124 14.5 170s25.167 82.833 46.5 110.5s49.5 47.5 84.5 59.5s77.5 18 127.5 18zM334 624c-45.333 0 -81.166 -8.66699 -107.499 -26s-45 -46.166 -56 -86.499s-16.5 -95.833 -16.5 -166.5
c0 -70 5.5 -125.333 16.5 -166s29.667 -69.667 56 -87s62.166 -26 107.499 -26s81.166 8.66699 107.499 26s45 46.333 56 87s16.5 96 16.5 166c0 70.667 -5.5 126.167 -16.5 166.5s-29.667 69.166 -56 86.499s-62.166 26 -107.499 26zM221 913l172 -146l-29 -39l-192 120z
" />
    <glyph glyph-name="Oacute" unicode="&#xd3;" 
d="M334 703c50 0 92.5 -6 127.5 -18s63 -31.833 84 -59.5s36.333 -64.5 46 -110.5s14.5 -102.667 14.5 -170s-4.83301 -124 -14.5 -170s-25 -82.833 -46 -110.5s-49 -47.5 -84 -59.5s-77.5 -18 -127.5 -18s-92.5 6 -127.5 18s-63.167 31.833 -84.5 59.5
s-36.833 64.5 -46.5 110.5s-14.5 102.667 -14.5 170s4.83301 124 14.5 170s25.167 82.833 46.5 110.5s49.5 47.5 84.5 59.5s77.5 18 127.5 18zM334 624c-45.333 0 -81.166 -8.66699 -107.499 -26s-45 -46.166 -56 -86.499s-16.5 -95.833 -16.5 -166.5
c0 -70 5.5 -125.333 16.5 -166s29.667 -69.667 56 -87s62.166 -26 107.499 -26s81.166 8.66699 107.499 26s45 46.333 56 87s16.5 96 16.5 166c0 70.667 -5.5 126.167 -16.5 166.5s-29.667 69.166 -56 86.499s-62.166 26 -107.499 26zM436 921l49 -66l-192 -120l-29 39z" />
    <glyph glyph-name="Ocircumflex" unicode="&#xd4;" 
d="M334 703c50 0 92.5 -6 127.5 -18s63 -31.833 84 -59.5s36.333 -64.5 46 -110.5s14.5 -102.667 14.5 -170s-4.83301 -124 -14.5 -170s-25 -82.833 -46 -110.5s-49 -47.5 -84 -59.5s-77.5 -18 -127.5 -18s-92.5 6 -127.5 18s-63.167 31.833 -84.5 59.5
s-36.833 64.5 -46.5 110.5s-14.5 102.667 -14.5 170s4.83301 124 14.5 170s25.167 82.833 46.5 110.5s49.5 47.5 84.5 59.5s77.5 18 127.5 18zM334 624c-45.333 0 -81.166 -8.66699 -107.499 -26s-45 -46.166 -56 -86.499s-16.5 -95.833 -16.5 -166.5
c0 -70 5.5 -125.333 16.5 -166s29.667 -69.667 56 -87s62.166 -26 107.499 -26s81.166 8.66699 107.499 26s45 46.333 56 87s16.5 96 16.5 166c0 70.667 -5.5 126.167 -16.5 166.5s-29.667 69.166 -56 86.499s-62.166 26 -107.499 26zM366 896l133 -127l-30 -37l-129 97h-8
l-130 -97l-29 37l132 127h61z" />
    <glyph glyph-name="Otilde" unicode="&#xd5;" 
d="M334 703c50 0 92.5 -6 127.5 -18s63 -31.833 84 -59.5s36.333 -64.5 46 -110.5s14.5 -102.667 14.5 -170s-4.83301 -124 -14.5 -170s-25 -82.833 -46 -110.5s-49 -47.5 -84 -59.5s-77.5 -18 -127.5 -18s-92.5 6 -127.5 18s-63.167 31.833 -84.5 59.5
s-36.833 64.5 -46.5 110.5s-14.5 102.667 -14.5 170s4.83301 124 14.5 170s25.167 82.833 46.5 110.5s49.5 47.5 84.5 59.5s77.5 18 127.5 18zM334 624c-45.333 0 -81.166 -8.66699 -107.499 -26s-45 -46.166 -56 -86.499s-16.5 -95.833 -16.5 -166.5
c0 -70 5.5 -125.333 16.5 -166s29.667 -69.667 56 -87s62.166 -26 107.499 -26s81.166 8.66699 107.499 26s45 46.333 56 87s16.5 96 16.5 166c0 70.667 -5.5 126.167 -16.5 166.5s-29.667 69.166 -56 86.499s-62.166 26 -107.499 26zM255 879
c15.333 -1.33301 29.167 -4.50293 41.5 -9.50293s24 -10.667 35 -17s22.333 -12.166 34 -17.499s24.5 -9 38.5 -11c19.333 -2.66699 32.333 0.333008 39 9s10 22.334 10 41.001h40c4 -37.333 -1.5 -65.833 -16.5 -85.5s-35.5 -28.5 -61.5 -26.5
c-22.667 2 -42.167 7.33301 -58.5 16s-31.666 17.334 -45.999 26.001s-29.833 13.667 -46.5 15c-18.667 2 -31.167 -1.5 -37.5 -10.5s-9.5 -23.5 -9.5 -43.5h-40c-2.66699 26.667 -0.833984 48.667 5.49902 66s16 30 29 38s27.5 11.333 43.5 10z" />
    <glyph glyph-name="Odieresis" unicode="&#xd6;" 
d="M334 703c50 0 92.5 -6 127.5 -18s63 -31.833 84 -59.5s36.333 -64.5 46 -110.5s14.5 -102.667 14.5 -170s-4.83301 -124 -14.5 -170s-25 -82.833 -46 -110.5s-49 -47.5 -84 -59.5s-77.5 -18 -127.5 -18s-92.5 6 -127.5 18s-63.167 31.833 -84.5 59.5
s-36.833 64.5 -46.5 110.5s-14.5 102.667 -14.5 170s4.83301 124 14.5 170s25.167 82.833 46.5 110.5s49.5 47.5 84.5 59.5s77.5 18 127.5 18zM334 624c-45.333 0 -81.166 -8.66699 -107.499 -26s-45 -46.166 -56 -86.499s-16.5 -95.833 -16.5 -166.5
c0 -70 5.5 -125.333 16.5 -166s29.667 -69.667 56 -87s62.166 -26 107.499 -26s81.166 8.66699 107.499 26s45 46.333 56 87s16.5 96 16.5 166c0 70.667 -5.5 126.167 -16.5 166.5s-29.667 69.166 -56 86.499s-62.166 26 -107.499 26zM438 870c16 0 24 -8 24 -24v-55
c0 -16 -8 -24 -24 -24h-28c-16 0 -24 8 -24 24v55c0 16 8 24 24 24h28zM261 870c15.333 0 23 -8 23 -24v-55c0 -16 -7.66699 -24 -23 -24h-29c-15.333 0 -23 8 -23 24v55c0 16 7.66699 24 23 24h29z" />
    <glyph glyph-name="multiply" unicode="&#xd7;" horiz-adv-x="484" 
d="M402 475l-356 -320l42 -51l356 321zM88 475l-42 -51l356 -320l42 51z" />
    <glyph glyph-name="Oslash" unicode="&#xd8;" 
d="M493 750l46 -19l-370 -789l-45 20zM334 703c50 0 92.5 -6 127.5 -18s63 -31.833 84 -59.5s36.333 -64.5 46 -110.5s14.5 -102.667 14.5 -170s-4.83301 -124 -14.5 -170s-25 -82.833 -46 -110.5s-49 -47.5 -84 -59.5s-77.5 -18 -127.5 -18s-92.5 6 -127.5 18
s-63.167 31.833 -84.5 59.5s-36.833 64.5 -46.5 110.5s-14.5 102.667 -14.5 170s4.83301 124 14.5 170s25.167 82.833 46.5 110.5s49.5 47.5 84.5 59.5s77.5 18 127.5 18zM334 624c-45.333 0 -81.166 -8.66699 -107.499 -26s-45 -46.166 -56 -86.499
s-16.5 -95.833 -16.5 -166.5c0 -70 5.5 -125.333 16.5 -166s29.667 -69.667 56 -87s62.166 -26 107.499 -26s81.166 8.66699 107.499 26s45 46.333 56 87s16.5 96 16.5 166c0 70.667 -5.5 126.167 -16.5 166.5s-29.667 69.166 -56 86.499s-62.166 26 -107.499 26z" />
    <glyph glyph-name="Ugrave" unicode="&#xd9;" horiz-adv-x="666" 
d="M584 690l-0.000976562 -426c0 -66.667 -8 -120.334 -24 -161.001s-42 -70.167 -78 -88.5s-84.333 -27.5 -145 -27.5c-62 0 -111.667 9.16699 -149 27.5s-64.333 47.833 -81 88.5s-25 94.334 -25 161.001v426h88v-426c0 -49.333 5.16699 -88.5 15.5 -117.5
s27.5 -49.667 51.5 -62s56 -18.5 96 -18.5s71.833 6.16699 95.5 18.5s40.834 33 51.501 62s16 68.167 16 117.5v426h88zM218.999 913l172 -146l-29 -39l-192 120z" />
    <glyph glyph-name="Uacute" unicode="&#xda;" horiz-adv-x="666" 
d="M584 690l-0.000976562 -426c0 -66.667 -8 -120.334 -24 -161.001s-42 -70.167 -78 -88.5s-84.333 -27.5 -145 -27.5c-62 0 -111.667 9.16699 -149 27.5s-64.333 47.833 -81 88.5s-25 94.334 -25 161.001v426h88v-426c0 -49.333 5.16699 -88.5 15.5 -117.5
s27.5 -49.667 51.5 -62s56 -18.5 96 -18.5s71.833 6.16699 95.5 18.5s40.834 33 51.501 62s16 68.167 16 117.5v426h88zM434.999 921l49 -66l-192 -120l-29 39z" />
    <glyph glyph-name="Ucircumflex" unicode="&#xdb;" horiz-adv-x="666" 
d="M584 690l-0.000976562 -426c0 -66.667 -8 -120.334 -24 -161.001s-42 -70.167 -78 -88.5s-84.333 -27.5 -145 -27.5c-62 0 -111.667 9.16699 -149 27.5s-64.333 47.833 -81 88.5s-25 94.334 -25 161.001v426h88v-426c0 -49.333 5.16699 -88.5 15.5 -117.5
s27.5 -49.667 51.5 -62s56 -18.5 96 -18.5s71.833 6.16699 95.5 18.5s40.834 33 51.501 62s16 68.167 16 117.5v426h88zM363.999 896l133 -127l-30 -37l-129 97h-8l-130 -97l-29 37l132 127h61z" />
    <glyph glyph-name="Udieresis" unicode="&#xdc;" horiz-adv-x="666" 
d="M584 690l-0.000976562 -426c0 -66.667 -8 -120.334 -24 -161.001s-42 -70.167 -78 -88.5s-84.333 -27.5 -145 -27.5c-62 0 -111.667 9.16699 -149 27.5s-64.333 47.833 -81 88.5s-25 94.334 -25 161.001v426h88v-426c0 -49.333 5.16699 -88.5 15.5 -117.5
s27.5 -49.667 51.5 -62s56 -18.5 96 -18.5s71.833 6.16699 95.5 18.5s40.834 33 51.501 62s16 68.167 16 117.5v426h88zM436.999 870c16 0 24 -8 24 -24v-55c0 -16 -8 -24 -24 -24h-28c-16 0 -24 8 -24 24v55c0 16 8 24 24 24h28zM259.999 870c15.333 0 23 -8 23 -24v-55
c0 -16 -7.66699 -24 -23 -24h-29c-15.333 0 -23 8 -23 24v55c0 16 7.66699 24 23 24h29z" />
    <glyph glyph-name="Yacute" unicode="&#xdd;" horiz-adv-x="569" 
d="M557 690l-232.999 -456h-79l-234 456h94l145 -291c6 -12.667 11.5 -25.667 16.5 -39l14.5 -39h7l15 39c5.33301 13.333 10.666 26 15.999 38l145 292h93zM328.001 296v-296h-88v296h88zM386.001 911l49 -66l-192 -120l-29 39z" />
    <glyph glyph-name="Thorn" unicode="&#xde;" horiz-adv-x="592" 
d="M325 567c55.333 0 99.001 -6.33398 131.001 -19.001s55 -34.667 69 -66s21 -75.666 21 -132.999s-6.83301 -101.833 -20.5 -133.5s-36 -53.667 -67 -66s-72.5 -18.5 -124.5 -18.5c-28 0 -54.833 0.666992 -80.5 2s-49.167 3.16602 -70.5 5.49902s-39.5 4.83301 -54.5 7.5
s-25.5 5 -31.5 7l3 54h110h113c33.333 0.666992 59.833 4.83398 79.5 12.501s33.667 21.667 42 42s12.5 49.5 12.5 87.5c0 38.667 -4.16699 68.167 -12.5 88.5s-22.333 34.5 -42 42.5s-46.167 12 -79.5 12c-54.667 0 -101.834 -0.333008 -141.501 -1
s-66.5 -1.66699 -80.5 -3l-14 71c25.333 2.66699 49 4.5 71 5.5s46 1.66699 72 2s57.667 0.5 95 0.5zM175.001 689.999v-690h-88v690h88z" />
    <glyph glyph-name="germandbls" unicode="&#xdf;" horiz-adv-x="675" 
d="M341 721c53.333 0 96.667 -3.99707 130 -11.9971s57.666 -21.5 72.999 -40.5s23 -45.5 23 -79.5c0 -18 -2.33301 -34.167 -7 -48.5s-13.167 -28.166 -25.5 -41.499s-30.5 -27 -54.5 -41c-20.667 -12 -38.5 -21.833 -53.5 -29.5s-26.333 -15.834 -34 -24.501
s-11.5 -21 -11.5 -37c0 -17.333 5.66699 -30.166 17 -38.499s27.333 -17.166 48 -26.499l104 -46c20.667 -9.33301 37.334 -19.333 50.001 -30s22.167 -23.834 28.5 -39.501s9.5 -35.834 9.5 -60.501c0 -38 -6.66699 -66.833 -20 -86.5s-33.166 -33 -59.499 -40
s-58.833 -10.5 -97.5 -10.5c-20.667 0 -44.5 0.666992 -71.5 2s-56.5 4.33301 -88.5 9l5 64c25.333 -2 50 -3.33301 74 -4s45.667 -1 65 -1c26 0.666992 47 2.33398 63 5.00098s27.833 9 35.5 19s11.5 25.667 11.5 47c0 15.333 -2.5 27.166 -7.5 35.499
s-12.5 15.5 -22.5 21.5s-22.333 12.333 -37 19l-106 47c-24.667 11.333 -44.5 25.833 -59.5 43.5s-22.5 40.5 -22.5 68.5c0 25.333 5.66699 45.5 17 60.5s26.333 27.833 45 38.5l61 34c24 13.333 40.667 26.166 50 38.499s14 28.833 14 49.5c0 14.667 -4 26.667 -12 36
s-22.167 16.5 -42.5 21.5s-49.5 7.5 -87.5 7.5c-36.667 0 -65.5 -3.16699 -86.5 -9.5s-35.833 -17.833 -44.5 -34.5s-13 -41 -13 -73v-534h-85v543c0 39.333 5.16699 70.666 15.5 93.999s25.166 41.166 44.499 53.499s42.833 20.5 70.5 24.5s59.167 6 94.5 6z
M160.001 487.003v-68h-132v66l92 2h40z" />
    <glyph glyph-name="agrave" unicode="&#xe0;" horiz-adv-x="549" 
d="M308 499c36 0 66.499 -4.83203 91.499 -14.499s43.833 -25.834 56.5 -48.501s19 -53.667 19 -93v-343h-67l-13 106l-6 11v226c0 30 -6.83301 51.5 -20.5 64.5s-39.834 19.5 -78.501 19.5c-25.333 0 -57.166 -1.33301 -95.499 -4s-76.166 -5.66699 -113.499 -9l-8 63
c22.667 4 47.5 7.66699 74.5 11s54.5 6 82.5 8s54 3 78 3zM434.999 300.001l-1.00293 -63.9971l-233 -1c-23.333 -0.666992 -39.666 -6.83398 -48.999 -18.501s-14 -27.834 -14 -48.501v-31c0 -25.333 6 -43.833 18 -55.5s31.333 -17.5 58 -17.5
c18.667 0 39.834 3.5 63.501 10.5s47.5 17.833 71.5 32.5s46 33.334 66 56.001v-63c-7.33301 -9.33301 -17.833 -20.166 -31.5 -32.499s-30 -24.333 -49 -36s-40 -21.334 -63 -29.001s-47.833 -11.5 -74.5 -11.5c-28.667 0 -54 5.16699 -76 15.5
s-39.167 25.666 -51.5 45.999s-18.5 45.166 -18.5 74.499v53c0 38 11.833 67.5 35.5 88.5s56.834 31.5 99.501 31.5h249zM158.996 733.004l172 -146l-29 -39l-192 120z" />
    <glyph glyph-name="aacute" unicode="&#xe1;" horiz-adv-x="549" 
d="M308 499c36 0 66.499 -4.83203 91.499 -14.499s43.833 -25.834 56.5 -48.501s19 -53.667 19 -93v-343h-67l-13 106l-6 11v226c0 30 -6.83301 51.5 -20.5 64.5s-39.834 19.5 -78.501 19.5c-25.333 0 -57.166 -1.33301 -95.499 -4s-76.166 -5.66699 -113.499 -9l-8 63
c22.667 4 47.5 7.66699 74.5 11s54.5 6 82.5 8s54 3 78 3zM434.999 300.001l-1.00293 -63.9971l-233 -1c-23.333 -0.666992 -39.666 -6.83398 -48.999 -18.501s-14 -27.834 -14 -48.501v-31c0 -25.333 6 -43.833 18 -55.5s31.333 -17.5 58 -17.5
c18.667 0 39.834 3.5 63.501 10.5s47.5 17.833 71.5 32.5s46 33.334 66 56.001v-63c-7.33301 -9.33301 -17.833 -20.166 -31.5 -32.499s-30 -24.333 -49 -36s-40 -21.334 -63 -29.001s-47.833 -11.5 -74.5 -11.5c-28.667 0 -54 5.16699 -76 15.5
s-39.167 25.666 -51.5 45.999s-18.5 45.166 -18.5 74.499v53c0 38 11.833 67.5 35.5 88.5s56.834 31.5 99.501 31.5h249zM373.996 741.004l49 -66l-192 -120l-29 39z" />
    <glyph glyph-name="acircumflex" unicode="&#xe2;" horiz-adv-x="549" 
d="M308 499c36 0 66.499 -4.83203 91.499 -14.499s43.833 -25.834 56.5 -48.501s19 -53.667 19 -93v-343h-67l-13 106l-6 11v226c0 30 -6.83301 51.5 -20.5 64.5s-39.834 19.5 -78.501 19.5c-25.333 0 -57.166 -1.33301 -95.499 -4s-76.166 -5.66699 -113.499 -9l-8 63
c22.667 4 47.5 7.66699 74.5 11s54.5 6 82.5 8s54 3 78 3zM434.999 300.001l-1.00293 -63.9971l-233 -1c-23.333 -0.666992 -39.666 -6.83398 -48.999 -18.501s-14 -27.834 -14 -48.501v-31c0 -25.333 6 -43.833 18 -55.5s31.333 -17.5 58 -17.5
c18.667 0 39.834 3.5 63.501 10.5s47.5 17.833 71.5 32.5s46 33.334 66 56.001v-63c-7.33301 -9.33301 -17.833 -20.166 -31.5 -32.499s-30 -24.333 -49 -36s-40 -21.334 -63 -29.001s-47.833 -11.5 -74.5 -11.5c-28.667 0 -54 5.16699 -76 15.5
s-39.167 25.666 -51.5 45.999s-18.5 45.166 -18.5 74.499v53c0 38 11.833 67.5 35.5 88.5s56.834 31.5 99.501 31.5h249zM303.996 716.004l133 -127l-30 -37l-129 97h-8l-130 -97l-29 37l132 127h61z" />
    <glyph glyph-name="atilde" unicode="&#xe3;" horiz-adv-x="549" 
d="M308 499c36 0 66.499 -4.83203 91.499 -14.499s43.833 -25.834 56.5 -48.501s19 -53.667 19 -93v-343h-67l-13 106l-6 11v226c0 30 -6.83301 51.5 -20.5 64.5s-39.834 19.5 -78.501 19.5c-25.333 0 -57.166 -1.33301 -95.499 -4s-76.166 -5.66699 -113.499 -9l-8 63
c22.667 4 47.5 7.66699 74.5 11s54.5 6 82.5 8s54 3 78 3zM434.999 300.001l-1.00293 -63.9971l-233 -1c-23.333 -0.666992 -39.666 -6.83398 -48.999 -18.501s-14 -27.834 -14 -48.501v-31c0 -25.333 6 -43.833 18 -55.5s31.333 -17.5 58 -17.5
c18.667 0 39.834 3.5 63.501 10.5s47.5 17.833 71.5 32.5s46 33.334 66 56.001v-63c-7.33301 -9.33301 -17.833 -20.166 -31.5 -32.499s-30 -24.333 -49 -36s-40 -21.334 -63 -29.001s-47.833 -11.5 -74.5 -11.5c-28.667 0 -54 5.16699 -76 15.5
s-39.167 25.666 -51.5 45.999s-18.5 45.166 -18.5 74.499v53c0 38 11.833 67.5 35.5 88.5s56.834 31.5 99.501 31.5h249zM192.996 699.004c15.333 -1.33301 29.167 -4.50293 41.5 -9.50293s24 -10.667 35 -17s22.333 -12.166 34 -17.499s24.5 -9 38.5 -11
c19.333 -2.66699 32.333 0.333008 39 9s10 22.334 10 41.001h40c4 -37.333 -1.5 -65.833 -16.5 -85.5s-35.5 -28.5 -61.5 -26.5c-22.667 2 -42.167 7.33301 -58.5 16s-31.666 17.334 -45.999 26.001s-29.833 13.667 -46.5 15c-18.667 2 -31.167 -1.5 -37.5 -10.5
s-9.5 -23.5 -9.5 -43.5h-40c-2.66699 26.667 -0.833984 48.667 5.49902 66s16 30 29 38s27.5 11.333 43.5 10z" />
    <glyph glyph-name="adieresis" unicode="&#xe4;" horiz-adv-x="549" 
d="M308 499c36 0 66.499 -4.83203 91.499 -14.499s43.833 -25.834 56.5 -48.501s19 -53.667 19 -93v-343h-67l-13 106l-6 11v226c0 30 -6.83301 51.5 -20.5 64.5s-39.834 19.5 -78.501 19.5c-25.333 0 -57.166 -1.33301 -95.499 -4s-76.166 -5.66699 -113.499 -9l-8 63
c22.667 4 47.5 7.66699 74.5 11s54.5 6 82.5 8s54 3 78 3zM434.999 300.001l-1.00293 -63.9971l-233 -1c-23.333 -0.666992 -39.666 -6.83398 -48.999 -18.501s-14 -27.834 -14 -48.501v-31c0 -25.333 6 -43.833 18 -55.5s31.333 -17.5 58 -17.5
c18.667 0 39.834 3.5 63.501 10.5s47.5 17.833 71.5 32.5s46 33.334 66 56.001v-63c-7.33301 -9.33301 -17.833 -20.166 -31.5 -32.499s-30 -24.333 -49 -36s-40 -21.334 -63 -29.001s-47.833 -11.5 -74.5 -11.5c-28.667 0 -54 5.16699 -76 15.5
s-39.167 25.666 -51.5 45.999s-18.5 45.166 -18.5 74.499v53c0 38 11.833 67.5 35.5 88.5s56.834 31.5 99.501 31.5h249zM375.996 690.004c16 0 24 -8 24 -24v-55c0 -16 -8 -24 -24 -24h-28c-16 0 -24 8 -24 24v55c0 16 8 24 24 24h28zM198.996 690.004
c15.333 0 23 -8 23 -24v-55c0 -16 -7.66699 -24 -23 -24h-29c-15.333 0 -23 8 -23 24v55c0 16 7.66699 24 23 24h29z" />
    <glyph glyph-name="aring" unicode="&#xe5;" horiz-adv-x="549" 
d="M308 499c36 0 66.499 -4.83203 91.499 -14.499s43.833 -25.834 56.5 -48.501s19 -53.667 19 -93v-343h-67l-13 106l-6 11v226c0 30 -6.83301 51.5 -20.5 64.5s-39.834 19.5 -78.501 19.5c-25.333 0 -57.166 -1.33301 -95.499 -4s-76.166 -5.66699 -113.499 -9l-8 63
c22.667 4 47.5 7.66699 74.5 11s54.5 6 82.5 8s54 3 78 3zM434.999 300.001l-1.00293 -63.9971l-233 -1c-23.333 -0.666992 -39.666 -6.83398 -48.999 -18.501s-14 -27.834 -14 -48.501v-31c0 -25.333 6 -43.833 18 -55.5s31.333 -17.5 58 -17.5
c18.667 0 39.834 3.5 63.501 10.5s47.5 17.833 71.5 32.5s46 33.334 66 56.001v-63c-7.33301 -9.33301 -17.833 -20.166 -31.5 -32.499s-30 -24.333 -49 -36s-40 -21.334 -63 -29.001s-47.833 -11.5 -74.5 -11.5c-28.667 0 -54 5.16699 -76 15.5
s-39.167 25.666 -51.5 45.999s-18.5 45.166 -18.5 74.499v53c0 38 11.833 67.5 35.5 88.5s56.834 31.5 99.501 31.5h249zM272.996 751.004c19.333 0 37.167 -4.66699 53.5 -14s29.333 -21.833 39 -37.5s14.5 -33.5 14.5 -53.5c0 -19.333 -4.83301 -37 -14.5 -53
s-22.5 -28.667 -38.5 -38s-34 -14 -54 -14c-19.333 0 -37.166 4.66699 -53.499 14s-29.333 21.833 -39 37.5s-14.5 33.5 -14.5 53.5s4.83301 37.833 14.5 53.5s22.667 28.167 39 37.5s34.166 14 53.499 14zM272.997 707.004c-16.667 0 -30.667 -5.5 -42 -16.5
s-17 -25.833 -17 -44.5s5.66699 -33.5 17 -44.5s25.333 -16.5 42 -16.5c17.333 0 31.666 5.5 42.999 16.5s17 25.833 17 44.5s-5.66699 33.5 -17 44.5s-25.666 16.5 -42.999 16.5z" />
    <glyph glyph-name="ae" unicode="&#xe6;" horiz-adv-x="871" 
d="M612 499c73.333 0 126.497 -13.3311 159.497 -39.998s49.833 -66.334 50.5 -119.001c0 -30 -4.5 -55.167 -13.5 -75.5s-22.833 -35.833 -41.5 -46.5s-42.667 -16 -72 -16h-274v66h252c25.333 0 42.333 7.16699 51 21.5s12.667 31.166 12 50.499
c0 30.667 -9.16699 52.834 -27.5 66.501s-49.166 20.5 -92.499 20.5c-35.333 0 -63.166 -5.16699 -83.499 -15.5s-34.666 -28.333 -42.999 -54s-12.5 -61.5 -12.5 -107.5c0 -52 5.16699 -91.667 15.5 -119s26.833 -46 49.5 -56s52.667 -15 90 -15
c26.667 0 55.334 1.16699 86.001 3.5s58.667 5.16602 84 8.49902l8 -57c-14.667 -6 -33.334 -11 -56.001 -15s-45.834 -7 -69.501 -9s-44.834 -3 -63.501 -3c-55.333 0 -100.166 8.5 -134.499 25.5s-59.166 44.333 -74.499 82s-23 87.5 -23 149.5
c0 64 7.66699 114.5 23 151.5s39.5 63.333 72.5 79s75.5 23.5 127.5 23.5zM434.997 300.002l-1.00195 -63.9951l-233 -1c-23.333 -0.666992 -39.666 -6.83398 -48.999 -18.501s-14 -27.834 -14 -48.501v-31c0 -25.333 6 -43.833 18 -55.5s31.333 -17.5 58 -17.5
c19.333 0 41 3.5 65 10.5s48.5 18.167 73.5 33.5s47.5 34.666 67.5 57.999v-63c-7.33301 -10 -18 -21.333 -32 -34s-30.667 -25 -50 -37s-40.833 -21.833 -64.5 -29.5s-49.167 -11.5 -76.5 -11.5c-28.667 0 -54 5.16699 -76 15.5s-39.167 25.666 -51.5 45.999
s-18.5 45.166 -18.5 74.499v53c0 38 11.833 67.5 35.5 88.5s56.834 31.5 99.501 31.5h249zM307.995 499.007c36 0 66.499 -4.83203 91.499 -14.499s43.833 -25.834 56.5 -48.501s19 -53.667 19 -93v-102h-86v102c0 30 -6.83301 51.5 -20.5 64.5s-39.834 19.5 -78.501 19.5
c-25.333 0 -57.166 -1.33301 -95.499 -4s-76.166 -5.66699 -113.499 -9l-8 63c22.667 4 47.5 7.66699 74.5 11s54.5 6 82.5 8s54 3 78 3z" />
    <glyph glyph-name="ccedilla" unicode="&#xe7;" horiz-adv-x="489" 
d="M286 499c14.667 0 30.999 -0.666016 48.999 -1.99902s36.5 -3.66602 55.5 -6.99902s36.5 -8 52.5 -14l-11 -55c-22 2 -45.167 3.5 -69.5 4.5s-45.166 1.5 -62.499 1.5c-38.667 0 -69.334 -5.33301 -92.001 -16s-39 -29.334 -49 -56.001s-15 -63.667 -15 -111
s5 -84.5 15 -111.5s26.333 -45.833 49 -56.5s53.334 -16 92.001 -16c10 0 23 0.333008 39 1s33.167 1.66699 51.5 3s35.833 3.33301 52.5 6l9 -57c-24.667 -8.66699 -51.5 -15 -80.5 -19s-57.833 -6 -86.5 -6c-56 0 -101 8.33301 -135 25s-58.5 43.667 -73.5 81
s-22.5 87.333 -22.5 150s7.66699 112.667 23 150s40 64.166 74 80.499s79 24.5 135 24.5zM234.999 -54.999c26 2.66699 47.1689 2.50098 63.502 -0.499023s28.5 -9.5 36.5 -19.5s11.667 -25 11 -45c-0.666992 -28 -8.33398 -51.833 -23.001 -71.5
s-34.334 -33.834 -59.001 -42.501s-53 -11 -85 -7l13 45c27.333 -0.666992 49.5 5.5 66.5 18.5s25.833 29.833 26.5 50.5c0.666992 12 -3 20.167 -11 24.5s-24 6.83301 -48 7.5z" />
    <glyph glyph-name="egrave" unicode="&#xe8;" horiz-adv-x="537" 
d="M278 499c73.333 0 126.499 -13.3311 159.499 -39.998s49.5 -66.334 49.5 -119.001c0.666992 -43.333 -8.33301 -77.166 -27 -101.499s-48.334 -36.5 -89.001 -36.5h-284v66h262c22 0 36.333 7.5 43 22.5s10 31.5 10 49.5c-0.666992 31.333 -10 53.666 -28 66.999
s-48.667 20 -92 20c-35.333 0 -63.166 -5.16699 -83.499 -15.5s-34.666 -28.333 -42.999 -54s-12.5 -61.5 -12.5 -107.5c0 -52 5.16699 -91.667 15.5 -119s26.833 -46 49.5 -56s52.667 -15 90 -15c26 0 54.5 1.16699 85.5 3.5s58.833 5.16602 83.5 8.49902l9 -57
c-15.333 -6 -34.166 -11 -56.499 -15s-45.333 -7 -69 -9s-44.834 -3 -63.501 -3c-56 0 -101 8.5 -135 25.5s-58.833 44.333 -74.5 82s-23.5 87.5 -23.5 149.5c0 64 7.83301 114.5 23.5 151.5s40 63.333 73 79s75.5 23.5 127.5 23.5zM165.999 733.002l172 -146l-29 -39
l-192 120z" />
    <glyph glyph-name="eacute" unicode="&#xe9;" horiz-adv-x="537" 
d="M278 499c73.333 0 126.499 -13.3311 159.499 -39.998s49.5 -66.334 49.5 -119.001c0.666992 -43.333 -8.33301 -77.166 -27 -101.499s-48.334 -36.5 -89.001 -36.5h-284v66h262c22 0 36.333 7.5 43 22.5s10 31.5 10 49.5c-0.666992 31.333 -10 53.666 -28 66.999
s-48.667 20 -92 20c-35.333 0 -63.166 -5.16699 -83.499 -15.5s-34.666 -28.333 -42.999 -54s-12.5 -61.5 -12.5 -107.5c0 -52 5.16699 -91.667 15.5 -119s26.833 -46 49.5 -56s52.667 -15 90 -15c26 0 54.5 1.16699 85.5 3.5s58.833 5.16602 83.5 8.49902l9 -57
c-15.333 -6 -34.166 -11 -56.499 -15s-45.333 -7 -69 -9s-44.834 -3 -63.501 -3c-56 0 -101 8.5 -135 25.5s-58.833 44.333 -74.5 82s-23.5 87.5 -23.5 149.5c0 64 7.83301 114.5 23.5 151.5s40 63.333 73 79s75.5 23.5 127.5 23.5zM381.999 741.002l49 -66l-192 -120
l-29 39z" />
    <glyph glyph-name="ecircumflex" unicode="&#xea;" horiz-adv-x="537" 
d="M278 499c73.333 0 126.499 -13.3311 159.499 -39.998s49.5 -66.334 49.5 -119.001c0.666992 -43.333 -8.33301 -77.166 -27 -101.499s-48.334 -36.5 -89.001 -36.5h-284v66h262c22 0 36.333 7.5 43 22.5s10 31.5 10 49.5c-0.666992 31.333 -10 53.666 -28 66.999
s-48.667 20 -92 20c-35.333 0 -63.166 -5.16699 -83.499 -15.5s-34.666 -28.333 -42.999 -54s-12.5 -61.5 -12.5 -107.5c0 -52 5.16699 -91.667 15.5 -119s26.833 -46 49.5 -56s52.667 -15 90 -15c26 0 54.5 1.16699 85.5 3.5s58.833 5.16602 83.5 8.49902l9 -57
c-15.333 -6 -34.166 -11 -56.499 -15s-45.333 -7 -69 -9s-44.834 -3 -63.501 -3c-56 0 -101 8.5 -135 25.5s-58.833 44.333 -74.5 82s-23.5 87.5 -23.5 149.5c0 64 7.83301 114.5 23.5 151.5s40 63.333 73 79s75.5 23.5 127.5 23.5zM311.999 716.002l133 -127l-30 -37
l-129 97h-8l-130 -97l-29 37l132 127h61z" />
    <glyph glyph-name="edieresis" unicode="&#xeb;" horiz-adv-x="537" 
d="M278 499c73.333 0 126.499 -13.3311 159.499 -39.998s49.5 -66.334 49.5 -119.001c0.666992 -43.333 -8.33301 -77.166 -27 -101.499s-48.334 -36.5 -89.001 -36.5h-284v66h262c22 0 36.333 7.5 43 22.5s10 31.5 10 49.5c-0.666992 31.333 -10 53.666 -28 66.999
s-48.667 20 -92 20c-35.333 0 -63.166 -5.16699 -83.499 -15.5s-34.666 -28.333 -42.999 -54s-12.5 -61.5 -12.5 -107.5c0 -52 5.16699 -91.667 15.5 -119s26.833 -46 49.5 -56s52.667 -15 90 -15c26 0 54.5 1.16699 85.5 3.5s58.833 5.16602 83.5 8.49902l9 -57
c-15.333 -6 -34.166 -11 -56.499 -15s-45.333 -7 -69 -9s-44.834 -3 -63.501 -3c-56 0 -101 8.5 -135 25.5s-58.833 44.333 -74.5 82s-23.5 87.5 -23.5 149.5c0 64 7.83301 114.5 23.5 151.5s40 63.333 73 79s75.5 23.5 127.5 23.5zM383.999 690.002c16 0 24 -8 24 -24v-55
c0 -16 -8 -24 -24 -24h-28c-16 0 -24 8 -24 24v55c0 16 8 24 24 24h28zM206.999 690.002c15.333 0 23 -8 23 -24v-55c0 -16 -7.66699 -24 -23 -24h-29c-15.333 0 -23 8 -23 24v55c0 16 7.66699 24 23 24h29z" />
    <glyph glyph-name="igrave" unicode="&#xec;" horiz-adv-x="249" 
d="M167 487v-487h-85v487h85zM10 734l172 -146l-29 -39l-192 120z" />
    <glyph glyph-name="iacute" unicode="&#xed;" horiz-adv-x="249" 
d="M167 487v-487h-85v487h85zM226 742l49 -66l-192 -120l-29 39z" />
    <glyph glyph-name="icircumflex" unicode="&#xee;" horiz-adv-x="249" 
d="M167 487v-487h-85v487h85zM155 716l133 -127l-30 -37l-129 97h-8l-130 -97l-29 37l132 127h61z" />
    <glyph glyph-name="idieresis" unicode="&#xef;" horiz-adv-x="249" 
d="M167 487v-487h-85v487h85zM227 690c16 0 24 -8 24 -24v-55c0 -16 -8 -24 -24 -24h-28c-16 0 -24 8 -24 24v55c0 16 8 24 24 24h28zM50 690c15.333 0 23 -8 23 -24v-55c0 -16 -7.66699 -24 -23 -24h-29c-15.333 0 -23 8 -23 24v55c0 16 7.66699 24 23 24h29z" />
    <glyph glyph-name="eth" unicode="&#xf0;" horiz-adv-x="559" 
d="M129 698c36 2 71.668 -0.668945 107.001 -8.00195s68.666 -20.333 99.999 -39s58.833 -44 82.5 -76s42.334 -72 56.001 -120s20.5 -105.333 20.5 -172c0 -44 -3 -84.167 -9 -120.5s-16.833 -67.5 -32.5 -93.5s-38 -46.167 -67 -60.5s-66.167 -21.5 -111.5 -21.5
c-74.667 0 -130 18.5 -166 55.5s-54 95.833 -54 176.5c0 48.667 6.66699 90 20 124s35 60 65 78s70 27 120 27c18 0 37.167 -1.83301 57.5 -5.5s41.166 -10.667 62.499 -21s41.666 -25.166 60.999 -44.499l-7 -37c-27.333 13.333 -53.666 22.833 -78.999 28.5
s-52.666 8.5 -81.999 8.5c-32.667 0 -58.334 -6.16699 -77.001 -18.5s-31.834 -30.333 -39.501 -54s-11.5 -52.167 -11.5 -85.5c0 -58.667 10.5 -100 31.5 -124s54.167 -36 99.5 -36c38.667 0 67.167 8.83301 85.5 26.5s30.5 43.5 36.5 77.5s9 75.333 9 124
c0 62 -5.66699 114 -17 156s-26.666 76 -45.999 102s-41.333 45.667 -66 59s-50.667 22.333 -78 27s-54.333 6.33398 -81 5.00098zM413.001 711.998l30 -39l-204 -157l-31 38z" />
    <glyph glyph-name="ntilde" unicode="&#xf1;" horiz-adv-x="581" 
d="M374 499c88 0 132 -44.666 132 -133.999v-365h-85v341c0 32.667 -5.33301 55.167 -16 67.5s-28.667 18.5 -54 18.5c-30 0 -60 -7.33301 -90 -22s-65.667 -34.667 -107 -60l-4 61c38 29.333 75.667 52.166 113 68.499s74.333 24.5 111 24.5zM150 487.001l7 -93l6 -15v-379
h-85v487h72zM223 699.001c15.333 -1.33301 29.167 -4.50293 41.5 -9.50293s24 -10.667 35 -17s22.333 -12.166 34 -17.499s24.5 -9 38.5 -11c19.333 -2.66699 32.333 0.333008 39 9s10 22.334 10 41.001h40c4 -37.333 -1.5 -65.833 -16.5 -85.5s-35.5 -28.5 -61.5 -26.5
c-22.667 2 -42.167 7.33301 -58.5 16s-31.666 17.334 -45.999 26.001s-29.833 13.667 -46.5 15c-18.667 2 -31.167 -1.5 -37.5 -10.5s-9.5 -23.5 -9.5 -43.5h-40c-2.66699 26.667 -0.833984 48.667 5.49902 66s16 30 29 38s27.5 11.333 43.5 10z" />
    <glyph glyph-name="ograve" unicode="&#xf2;" horiz-adv-x="568" 
d="M284 499c56 0 100.833 -8.33301 134.5 -25s57.834 -43.834 72.501 -81.501s22 -87.5 22 -149.5s-7.33301 -111.833 -22 -149.5s-38.834 -64.834 -72.501 -81.501s-78.5 -25 -134.5 -25c-55.333 0 -99.833 8.33301 -133.5 25s-58 43.834 -73 81.501
s-22.5 87.5 -22.5 149.5s7.5 111.833 22.5 149.5s39.333 64.834 73 81.501s78.167 25 133.5 25zM284 427c-35.333 0 -63.166 -5.5 -83.499 -16.5s-34.833 -29.833 -43.5 -56.5s-13 -63.667 -13 -111s4.33301 -84.333 13 -111s23.167 -45.5 43.5 -56.5
s48.166 -16.5 83.499 -16.5s63.333 5.5 84 16.5s35.334 29.833 44.001 56.5s13 63.667 13 111s-4.33301 84.333 -13 111s-23.334 45.5 -44.001 56.5s-48.667 16.5 -84 16.5zM171 729l172 -146l-29 -39l-192 120z" />
    <glyph glyph-name="oacute" unicode="&#xf3;" horiz-adv-x="568" 
d="M284 499c56 0 100.833 -8.33301 134.5 -25s57.834 -43.834 72.501 -81.501s22 -87.5 22 -149.5s-7.33301 -111.833 -22 -149.5s-38.834 -64.834 -72.501 -81.501s-78.5 -25 -134.5 -25c-55.333 0 -99.833 8.33301 -133.5 25s-58 43.834 -73 81.501
s-22.5 87.5 -22.5 149.5s7.5 111.833 22.5 149.5s39.333 64.834 73 81.501s78.167 25 133.5 25zM284 427c-35.333 0 -63.166 -5.5 -83.499 -16.5s-34.833 -29.833 -43.5 -56.5s-13 -63.667 -13 -111s4.33301 -84.333 13 -111s23.167 -45.5 43.5 -56.5
s48.166 -16.5 83.499 -16.5s63.333 5.5 84 16.5s35.334 29.833 44.001 56.5s13 63.667 13 111s-4.33301 84.333 -13 111s-23.334 45.5 -44.001 56.5s-48.667 16.5 -84 16.5zM386 737l49 -66l-192 -120l-29 39z" />
    <glyph glyph-name="ocircumflex" unicode="&#xf4;" horiz-adv-x="568" 
d="M284 499c56 0 100.833 -8.33301 134.5 -25s57.834 -43.834 72.501 -81.501s22 -87.5 22 -149.5s-7.33301 -111.833 -22 -149.5s-38.834 -64.834 -72.501 -81.501s-78.5 -25 -134.5 -25c-55.333 0 -99.833 8.33301 -133.5 25s-58 43.834 -73 81.501
s-22.5 87.5 -22.5 149.5s7.5 111.833 22.5 149.5s39.333 64.834 73 81.501s78.167 25 133.5 25zM284 427c-35.333 0 -63.166 -5.5 -83.499 -16.5s-34.833 -29.833 -43.5 -56.5s-13 -63.667 -13 -111s4.33301 -84.333 13 -111s23.167 -45.5 43.5 -56.5
s48.166 -16.5 83.499 -16.5s63.333 5.5 84 16.5s35.334 29.833 44.001 56.5s13 63.667 13 111s-4.33301 84.333 -13 111s-23.334 45.5 -44.001 56.5s-48.667 16.5 -84 16.5zM316 712l133 -127l-30 -37l-129 97h-8l-130 -97l-29 37l132 127h61z" />
    <glyph glyph-name="otilde" unicode="&#xf5;" horiz-adv-x="568" 
d="M284 499c56 0 100.833 -8.33301 134.5 -25s57.834 -43.834 72.501 -81.501s22 -87.5 22 -149.5s-7.33301 -111.833 -22 -149.5s-38.834 -64.834 -72.501 -81.501s-78.5 -25 -134.5 -25c-55.333 0 -99.833 8.33301 -133.5 25s-58 43.834 -73 81.501
s-22.5 87.5 -22.5 149.5s7.5 111.833 22.5 149.5s39.333 64.834 73 81.501s78.167 25 133.5 25zM284 427c-35.333 0 -63.166 -5.5 -83.499 -16.5s-34.833 -29.833 -43.5 -56.5s-13 -63.667 -13 -111s4.33301 -84.333 13 -111s23.167 -45.5 43.5 -56.5
s48.166 -16.5 83.499 -16.5s63.333 5.5 84 16.5s35.334 29.833 44.001 56.5s13 63.667 13 111s-4.33301 84.333 -13 111s-23.334 45.5 -44.001 56.5s-48.667 16.5 -84 16.5zM205 695c15.333 -1.33301 29.167 -4.50293 41.5 -9.50293s24 -10.667 35 -17
s22.333 -12.166 34 -17.499s24.5 -9 38.5 -11c19.333 -2.66699 32.333 0.333008 39 9s10 22.334 10 41.001h40c4 -37.333 -1.5 -65.833 -16.5 -85.5s-35.5 -28.5 -61.5 -26.5c-22.667 2 -42.167 7.33301 -58.5 16s-31.666 17.334 -45.999 26.001s-29.833 13.667 -46.5 15
c-18.667 2 -31.167 -1.5 -37.5 -10.5s-9.5 -23.5 -9.5 -43.5h-40c-2.66699 26.667 -0.833984 48.667 5.49902 66s16 30 29 38s27.5 11.333 43.5 10z" />
    <glyph glyph-name="odieresis" unicode="&#xf6;" horiz-adv-x="568" 
d="M284 499c56 0 100.833 -8.33301 134.5 -25s57.834 -43.834 72.501 -81.501s22 -87.5 22 -149.5s-7.33301 -111.833 -22 -149.5s-38.834 -64.834 -72.501 -81.501s-78.5 -25 -134.5 -25c-55.333 0 -99.833 8.33301 -133.5 25s-58 43.834 -73 81.501
s-22.5 87.5 -22.5 149.5s7.5 111.833 22.5 149.5s39.333 64.834 73 81.501s78.167 25 133.5 25zM284 427c-35.333 0 -63.166 -5.5 -83.499 -16.5s-34.833 -29.833 -43.5 -56.5s-13 -63.667 -13 -111s4.33301 -84.333 13 -111s23.167 -45.5 43.5 -56.5
s48.166 -16.5 83.499 -16.5s63.333 5.5 84 16.5s35.334 29.833 44.001 56.5s13 63.667 13 111s-4.33301 84.333 -13 111s-23.334 45.5 -44.001 56.5s-48.667 16.5 -84 16.5zM388 686c16 0 24 -8 24 -24v-55c0 -16 -8 -24 -24 -24h-28c-16 0 -24 8 -24 24v55c0 16 8 24 24 24
h28zM211 686c15.333 0 23 -8 23 -24v-55c0 -16 -7.66699 -24 -23 -24h-29c-15.333 0 -23 8 -23 24v55c0 16 7.66699 24 23 24h29z" />
    <glyph glyph-name="divide" unicode="&#xf7;" horiz-adv-x="571" 
d="M504 327v-64h-438v64h438zM295 176c11.333 0 19.5 -2.33301 24.5 -7s7.5 -13 7.5 -25v-48c0 -12 -2.5 -20.333 -7.5 -25s-13.167 -7 -24.5 -7h-22c-12 0 -20.167 2.33301 -24.5 7s-6.5 13 -6.5 25v48c0 12 2.16699 20.333 6.5 25s12.5 7 24.5 7h22zM295 525
c11.333 0 19.5 -2.5 24.5 -7.5s7.5 -13.167 7.5 -24.5v-49c0 -11.333 -2.5 -19.333 -7.5 -24s-13.167 -7 -24.5 -7h-22c-12 0 -20.167 2.33301 -24.5 7s-6.5 12.667 -6.5 24v49c0 11.333 2.16699 19.5 6.5 24.5s12.5 7.5 24.5 7.5h22z" />
    <glyph glyph-name="oslash" unicode="&#xf8;" horiz-adv-x="568" 
d="M405 560l39 -19l-287 -616l-39 19zM284 499c56 0 100.833 -8.33301 134.5 -25s57.834 -43.834 72.501 -81.501s22 -87.5 22 -149.5s-7.33301 -111.833 -22 -149.5s-38.834 -64.834 -72.501 -81.501s-78.5 -25 -134.5 -25c-55.333 0 -99.833 8.33301 -133.5 25
s-58 43.834 -73 81.501s-22.5 87.5 -22.5 149.5s7.5 111.833 22.5 149.5s39.333 64.834 73 81.501s78.167 25 133.5 25zM284 427c-35.333 0 -63.166 -5.5 -83.499 -16.5s-34.833 -29.833 -43.5 -56.5s-13 -63.667 -13 -111s4.33301 -84.333 13 -111s23.167 -45.5 43.5 -56.5
s48.166 -16.5 83.499 -16.5s63.333 5.5 84 16.5s35.334 29.833 44.001 56.5s13 63.667 13 111s-4.33301 84.333 -13 111s-23.334 45.5 -44.001 56.5s-48.667 16.5 -84 16.5z" />
    <glyph glyph-name="ugrave" unicode="&#xf9;" horiz-adv-x="570" 
d="M160 487l0.000976562 -341.999c-0.666992 -30.667 5 -52.334 17 -65.001s32 -19 60 -19c27.333 0 54.5 6.5 81.5 19.5s59.5 31.833 97.5 56.5l11 -59c-38 -30 -74.833 -52.667 -110.5 -68s-71.834 -23 -108.501 -23c-88.667 0 -133 44.667 -133 134v366h85z
M492.001 487.001v-487h-68l-8 92l-9 15v380h85zM170.001 736.001l172 -146l-29 -39l-192 120z" />
    <glyph glyph-name="uacute" unicode="&#xfa;" horiz-adv-x="570" 
d="M160 487l0.000976562 -341.999c-0.666992 -30.667 5 -52.334 17 -65.001s32 -19 60 -19c27.333 0 54.5 6.5 81.5 19.5s59.5 31.833 97.5 56.5l11 -59c-38 -30 -74.833 -52.667 -110.5 -68s-71.834 -23 -108.501 -23c-88.667 0 -133 44.667 -133 134v366h85z
M492.001 487.001v-487h-68l-8 92l-9 15v380h85zM386.001 744.001l49 -66l-192 -120l-29 39z" />
    <glyph glyph-name="ucircumflex" unicode="&#xfb;" horiz-adv-x="570" 
d="M160 487l0.000976562 -341.999c-0.666992 -30.667 5 -52.334 17 -65.001s32 -19 60 -19c27.333 0 54.5 6.5 81.5 19.5s59.5 31.833 97.5 56.5l11 -59c-38 -30 -74.833 -52.667 -110.5 -68s-71.834 -23 -108.501 -23c-88.667 0 -133 44.667 -133 134v366h85z
M492.001 487.001v-487h-68l-8 92l-9 15v380h85zM315.001 719.001l133 -127l-30 -37l-129 97h-8l-130 -97l-29 37l132 127h61z" />
    <glyph glyph-name="udieresis" unicode="&#xfc;" horiz-adv-x="570" 
d="M160 487l0.000976562 -341.999c-0.666992 -30.667 5 -52.334 17 -65.001s32 -19 60 -19c27.333 0 54.5 6.5 81.5 19.5s59.5 31.833 97.5 56.5l11 -59c-38 -30 -74.833 -52.667 -110.5 -68s-71.834 -23 -108.501 -23c-88.667 0 -133 44.667 -133 134v366h85z
M492.001 487.001v-487h-68l-8 92l-9 15v380h85zM388.001 693.001c16 0 24 -8 24 -24v-55c0 -16 -8 -24 -24 -24h-28c-16 0 -24 8 -24 24v55c0 16 8 24 24 24h28zM211.001 693.001c15.333 0 23 -8 23 -24v-55c0 -16 -7.66699 -24 -23 -24h-29c-15.333 0 -23 8 -23 24v55
c0 16 7.66699 24 23 24h29z" />
    <glyph glyph-name="yacute" unicode="&#xfd;" horiz-adv-x="529" 
d="M510 487l-194.998 -514c-8 -21.333 -18 -42.333 -30 -63s-26.5 -39.5 -43.5 -56.5s-37 -30.833 -60 -41.5s-49.5 -16.667 -79.5 -18l-8 56c39.333 12.667 69.666 29.667 90.999 51s38.333 47.333 51 78l24 58c5.33301 13.333 10.666 28 15.999 44s10.333 30.333 15 43
l127 363h92zM109.002 487l129.001 -363l10 -29.5c3.33301 -9.66699 6 -19.5 8 -29.5h23l-28 -65h-26c-6.66699 0 -12.834 2 -18.501 6s-9.5 9.33301 -11.5 16l-177 465h91zM368.003 742l49 -66l-192 -120l-29 39z" />
    <glyph glyph-name="thorn" unicode="&#xfe;" horiz-adv-x="574" 
d="M342 499c63.333 0 108.332 -20.502 134.999 -61.502s40 -106.833 40 -197.5c0 -62.667 -6.16699 -112.5 -18.5 -149.5s-31.666 -63.5 -57.999 -79.5s-60.166 -24 -101.499 -24c-34.667 0 -69.167 4.83301 -103.5 14.5s-67.166 24.167 -98.499 43.5l16 53
c31.333 -12.667 59.666 -22.5 84.999 -29.5s50 -10.5 74 -10.5c28.667 0 51.5 5.5 68.5 16.5s29.333 29.833 37 56.5s11.5 63.334 11.5 110.001c0 47.333 -3.83301 84.333 -11.5 111s-19.834 45.667 -36.501 57s-38.667 17 -66 17c-24.667 0 -49.5 -6.16699 -74.5 -18.5
s-52.167 -29.5 -81.5 -51.5l-19 56c29.333 26.667 60.333 47.834 93 63.501s69 23.5 109 23.5zM162.999 699.998v-170.002c0 -19.333 -0.166992 -37.666 -0.5 -54.999s-1.5 -35.333 -3.5 -54l4 -12v-348l-4 -12c2 -18.667 3.16699 -36.667 3.5 -54s0.5 -35.666 0.5 -54.999
v-141h-85v901h85z" />
    <glyph glyph-name="ydieresis" unicode="&#xff;" horiz-adv-x="529" 
d="M510 487l-194.998 -514c-8 -21.333 -18 -42.333 -30 -63s-26.5 -39.5 -43.5 -56.5s-37 -30.833 -60 -41.5s-49.5 -16.667 -79.5 -18l-8 56c39.333 12.667 69.666 29.667 90.999 51s38.333 47.333 51 78l24 58c5.33301 13.333 10.666 28 15.999 44s10.333 30.333 15 43
l127 363h92zM109.002 487l129.001 -363l10 -29.5c3.33301 -9.66699 6 -19.5 8 -29.5h23l-28 -65h-26c-6.66699 0 -12.834 2 -18.501 6s-9.5 9.33301 -11.5 16l-177 465h91zM369.003 690c16 0 24 -8 24 -24v-55c0 -16 -8 -24 -24 -24h-28c-16 0 -24 8 -24 24v55
c0 16 8 24 24 24h28zM192.003 690c15.333 0 23 -8 23 -24v-55c0 -16 -7.66699 -24 -23 -24h-29c-15.333 0 -23 8 -23 24v55c0 16 7.66699 24 23 24h29z" />
    <glyph glyph-name="Amacron" unicode="&#x100;" horiz-adv-x="622" 
d="M357 690c8 0 15.001 -2.16602 21.001 -6.49902s10 -10.166 12 -17.499l222 -666h-91l-179 566l-8.5 28.5l-8.5 27.5h-28c-2.66699 -8.66699 -5.33398 -17.834 -8.00098 -27.501s-5.66699 -19.167 -9 -28.5l-179 -566h-91l222 666c2 7.33301 6 13.166 12 17.499
s13 6.5 21 6.5h92zM485.001 292.001v-76h-350v76h350zM450.001 842.001v-63h-278v63h278z" />
    <glyph glyph-name="amacron" unicode="&#x101;" horiz-adv-x="549" 
d="M308 499c36 0 66.499 -4.83203 91.499 -14.499s43.833 -25.834 56.5 -48.501s19 -53.667 19 -93v-343h-67l-13 106l-6 11v226c0 30 -6.83301 51.5 -20.5 64.5s-39.834 19.5 -78.501 19.5c-25.333 0 -57.166 -1.33301 -95.499 -4s-76.166 -5.66699 -113.499 -9l-8 63
c22.667 4 47.5 7.66699 74.5 11s54.5 6 82.5 8s54 3 78 3zM434.999 300.001l-1.00293 -63.9971l-233 -1c-23.333 -0.666992 -39.666 -6.83398 -48.999 -18.501s-14 -27.834 -14 -48.501v-31c0 -25.333 6 -43.833 18 -55.5s31.333 -17.5 58 -17.5
c18.667 0 39.834 3.5 63.501 10.5s47.5 17.833 71.5 32.5s46 33.334 66 56.001v-63c-7.33301 -9.33301 -17.833 -20.166 -31.5 -32.499s-30 -24.333 -49 -36s-40 -21.334 -63 -29.001s-47.833 -11.5 -74.5 -11.5c-28.667 0 -54 5.16699 -76 15.5
s-39.167 25.666 -51.5 45.999s-18.5 45.166 -18.5 74.499v53c0 38 11.833 67.5 35.5 88.5s56.834 31.5 99.501 31.5h249zM412.996 668.004v-63h-278v63h278z" />
    <glyph glyph-name="Abreve" unicode="&#x102;" horiz-adv-x="622" 
d="M357 690c8 0 15.001 -2.16602 21.001 -6.49902s10 -10.166 12 -17.499l222 -666h-91l-179 566l-8.5 28.5l-8.5 27.5h-28c-2.66699 -8.66699 -5.33398 -17.834 -8.00098 -27.501s-5.66699 -19.167 -9 -28.5l-179 -566h-91l222 666c2 7.33301 6 13.166 12 17.499
s13 6.5 21 6.5h92zM485.001 292.001v-76h-350v76h350zM417.001 876.001l44.002 -6c2 -26 -3 -48.833 -15 -68.5s-29.333 -35.167 -52 -46.5s-50.334 -17 -83.001 -17c-32 0 -59.5 5.66699 -82.5 17s-40.333 26.833 -52 46.5s-16.834 42.5 -15.501 68.5l44 6
c-0.666992 -23.333 8.33301 -41.666 27 -54.999s45.334 -20 80.001 -20c33.333 0 59.166 6.66699 77.499 20s27.5 31.666 27.5 54.999z" />
    <glyph glyph-name="abreve" unicode="&#x103;" horiz-adv-x="549" 
d="M308 499c36 0 66.499 -4.83203 91.499 -14.499s43.833 -25.834 56.5 -48.501s19 -53.667 19 -93v-343h-67l-13 106l-6 11v226c0 30 -6.83301 51.5 -20.5 64.5s-39.834 19.5 -78.501 19.5c-25.333 0 -57.166 -1.33301 -95.499 -4s-76.166 -5.66699 -113.499 -9l-8 63
c22.667 4 47.5 7.66699 74.5 11s54.5 6 82.5 8s54 3 78 3zM434.999 300.001l-1.00293 -63.9971l-233 -1c-23.333 -0.666992 -39.666 -6.83398 -48.999 -18.501s-14 -27.834 -14 -48.501v-31c0 -25.333 6 -43.833 18 -55.5s31.333 -17.5 58 -17.5
c18.667 0 39.834 3.5 63.501 10.5s47.5 17.833 71.5 32.5s46 33.334 66 56.001v-63c-7.33301 -9.33301 -17.833 -20.166 -31.5 -32.499s-30 -24.333 -49 -36s-40 -21.334 -63 -29.001s-47.833 -11.5 -74.5 -11.5c-28.667 0 -54 5.16699 -76 15.5
s-39.167 25.666 -51.5 45.999s-18.5 45.166 -18.5 74.499v53c0 38 11.833 67.5 35.5 88.5s56.834 31.5 99.501 31.5h249zM378.996 703.004l44.002 -6c2 -26 -3 -48.833 -15 -68.5s-29.333 -35.167 -52 -46.5s-50.334 -17 -83.001 -17c-32 0 -59.5 5.66699 -82.5 17
s-40.333 26.833 -52 46.5s-16.834 42.5 -15.501 68.5l44 6c-0.666992 -23.333 8.33301 -41.666 27 -54.999s45.334 -20 80.001 -20c33.333 0 59.166 6.66699 77.499 20s27.5 31.666 27.5 54.999z" />
    <glyph glyph-name="Aogonek" unicode="&#x104;" horiz-adv-x="622" 
d="M357 690c8 0 15.001 -2.16602 21.001 -6.49902s10 -10.166 12 -17.499l222 -666h-91l-179 566l-8.5 28.5l-8.5 27.5h-28c-2.66699 -8.66699 -5.33398 -17.834 -8.00098 -27.501s-5.66699 -19.167 -9 -28.5l-179 -566h-91l222 666c2 7.33301 6 13.166 12 17.499
s13 6.5 21 6.5h92zM485.001 292.001v-76h-350v76h350zM573.001 2.00098l38.001 -2.00195c-14.667 -16.667 -28.5 -34.167 -41.5 -52.5s-23.833 -38.833 -32.5 -61.5c-10 -24.667 -7.33301 -40.667 8 -48s38.666 -6 69.999 4l10 -35
c-31.333 -13.333 -57.833 -20.166 -79.5 -20.499s-38.667 3.83398 -51 12.501s-19.833 20.5 -22.5 35.5s-1 31.167 5 48.5c5.33301 16.667 15.5 35 30.5 55s36.833 41.333 65.5 64z" />
    <glyph glyph-name="aogonek" unicode="&#x105;" horiz-adv-x="549" 
d="M308 499c36 0 66.499 -4.83203 91.499 -14.499s43.833 -25.834 56.5 -48.501s19 -53.667 19 -93v-343h-67l-13 106l-6 11v226c0 30 -6.83301 51.5 -20.5 64.5s-39.834 19.5 -78.501 19.5c-25.333 0 -57.166 -1.33301 -95.499 -4s-76.166 -5.66699 -113.499 -9l-8 63
c22.667 4 47.5 7.66699 74.5 11s54.5 6 82.5 8s54 3 78 3zM434.999 300.001l-1.00293 -63.9971l-233 -1c-23.333 -0.666992 -39.666 -6.83398 -48.999 -18.501s-14 -27.834 -14 -48.501v-31c0 -25.333 6 -43.833 18 -55.5s31.333 -17.5 58 -17.5
c18.667 0 39.834 3.5 63.501 10.5s47.5 17.833 71.5 32.5s46 33.334 66 56.001v-63c-7.33301 -9.33301 -17.833 -20.166 -31.5 -32.499s-30 -24.333 -49 -36s-40 -21.334 -63 -29.001s-47.833 -11.5 -74.5 -11.5c-28.667 0 -54 5.16699 -76 15.5
s-39.167 25.666 -51.5 45.999s-18.5 45.166 -18.5 74.499v53c0 38 11.833 67.5 35.5 88.5s56.834 31.5 99.501 31.5h249zM434.996 2.00391l38.001 -2.00195c-14.667 -16.667 -28.5 -34.167 -41.5 -52.5s-23.833 -38.833 -32.5 -61.5c-10 -24.667 -7.33301 -40.667 8 -48
s38.666 -6 69.999 4l10 -35c-31.333 -13.333 -57.833 -20.166 -79.5 -20.499s-38.667 3.83398 -51 12.501s-19.833 20.5 -22.5 35.5s-1 31.167 5 48.5c5.33301 16.667 15.5 35 30.5 55s36.833 41.333 65.5 64z" />
    <glyph glyph-name="Cacute" unicode="&#x106;" horiz-adv-x="570" 
d="M332 702c29.333 0 54.498 -0.666992 75.498 -2s40.333 -3.5 58 -6.5s35.834 -6.83301 54.501 -11.5l-9 -67c-20 2 -38.5 3.66699 -55.5 5s-35.167 2.33301 -54.5 3s-42.333 1 -69 1c-44.667 0 -80 -8.66699 -106 -26s-44.5 -46.333 -55.5 -87s-16.5 -96 -16.5 -166
s5.5 -125.333 16.5 -166s29.5 -69.667 55.5 -87s61.333 -26 106 -26c42.667 0 78.5 0.833008 107.5 2.5s57.5 4.5 85.5 8.5l9 -66c-28.667 -8 -58.167 -13.833 -88.5 -17.5s-68.166 -5.5 -113.499 -5.5c-66 0 -118.833 11.5 -158.5 34.5s-68.334 60.5 -86.001 112.5
s-26.5 122 -26.5 210s8.83301 158 26.5 210s46.334 89.5 86.001 112.5s92.5 34.5 158.5 34.5zM420.998 921l49 -66l-192 -120l-29 39z" />
    <glyph glyph-name="cacute" unicode="&#x107;" horiz-adv-x="489" 
d="M286 499c14.667 0 30.999 -0.666016 48.999 -1.99902s36.5 -3.66602 55.5 -6.99902s36.5 -8 52.5 -14l-11 -55c-22 2 -45.167 3.5 -69.5 4.5s-45.166 1.5 -62.499 1.5c-38.667 0 -69.334 -5.33301 -92.001 -16s-39 -29.334 -49 -56.001s-15 -63.667 -15 -111
s5 -84.5 15 -111.5s26.333 -45.833 49 -56.5s53.334 -16 92.001 -16c10 0 23 0.333008 39 1s33.167 1.66699 51.5 3s35.833 3.33301 52.5 6l9 -57c-24.667 -8.66699 -51.5 -15 -80.5 -19s-57.833 -6 -86.5 -6c-56 0 -101 8.33301 -135 25s-58.5 43.667 -73.5 81
s-22.5 87.333 -22.5 150s7.66699 112.667 23 150s40 64.166 74 80.499s79 24.5 135 24.5zM367.999 742.001l49 -66l-192 -120l-29 39z" />
    <glyph glyph-name="Ccircumflex" unicode="&#x108;" horiz-adv-x="570" 
d="M332 702c29.333 0 54.498 -0.666992 75.498 -2s40.333 -3.5 58 -6.5s35.834 -6.83301 54.501 -11.5l-9 -67c-20 2 -38.5 3.66699 -55.5 5s-35.167 2.33301 -54.5 3s-42.333 1 -69 1c-44.667 0 -80 -8.66699 -106 -26s-44.5 -46.333 -55.5 -87s-16.5 -96 -16.5 -166
s5.5 -125.333 16.5 -166s29.5 -69.667 55.5 -87s61.333 -26 106 -26c42.667 0 78.5 0.833008 107.5 2.5s57.5 4.5 85.5 8.5l9 -66c-28.667 -8 -58.167 -13.833 -88.5 -17.5s-68.166 -5.5 -113.499 -5.5c-66 0 -118.833 11.5 -158.5 34.5s-68.334 60.5 -86.001 112.5
s-26.5 122 -26.5 210s8.83301 158 26.5 210s46.334 89.5 86.001 112.5s92.5 34.5 158.5 34.5zM350.998 896l133 -127l-30 -37l-129 97h-8l-130 -97l-29 37l132 127h61z" />
    <glyph glyph-name="ccircumflex" unicode="&#x109;" horiz-adv-x="489" 
d="M286 499c14.667 0 30.999 -0.666016 48.999 -1.99902s36.5 -3.66602 55.5 -6.99902s36.5 -8 52.5 -14l-11 -55c-22 2 -45.167 3.5 -69.5 4.5s-45.166 1.5 -62.499 1.5c-38.667 0 -69.334 -5.33301 -92.001 -16s-39 -29.334 -49 -56.001s-15 -63.667 -15 -111
s5 -84.5 15 -111.5s26.333 -45.833 49 -56.5s53.334 -16 92.001 -16c10 0 23 0.333008 39 1s33.167 1.66699 51.5 3s35.833 3.33301 52.5 6l9 -57c-24.667 -8.66699 -51.5 -15 -80.5 -19s-57.833 -6 -86.5 -6c-56 0 -101 8.33301 -135 25s-58.5 43.667 -73.5 81
s-22.5 87.333 -22.5 150s7.66699 112.667 23 150s40 64.166 74 80.499s79 24.5 135 24.5zM297.999 716.001l133 -127l-30 -37l-129 97h-8l-130 -97l-29 37l132 127h61z" />
    <glyph glyph-name="Cdotaccent" unicode="&#x10a;" horiz-adv-x="570" 
d="M332 702c29.333 0 54.498 -0.666992 75.498 -2s40.333 -3.5 58 -6.5s35.834 -6.83301 54.501 -11.5l-9 -67c-20 2 -38.5 3.66699 -55.5 5s-35.167 2.33301 -54.5 3s-42.333 1 -69 1c-44.667 0 -80 -8.66699 -106 -26s-44.5 -46.333 -55.5 -87s-16.5 -96 -16.5 -166
s5.5 -125.333 16.5 -166s29.5 -69.667 55.5 -87s61.333 -26 106 -26c42.667 0 78.5 0.833008 107.5 2.5s57.5 4.5 85.5 8.5l9 -66c-28.667 -8 -58.167 -13.833 -88.5 -17.5s-68.166 -5.5 -113.499 -5.5c-66 0 -118.833 11.5 -158.5 34.5s-68.334 60.5 -86.001 112.5
s-26.5 122 -26.5 210s8.83301 158 26.5 210s46.334 89.5 86.001 112.5s92.5 34.5 158.5 34.5zM333.998 867c17.333 0 26 -8.33301 26 -25v-57c0 -17.333 -8.66699 -26 -26 -26h-27c-17.333 0 -26 8.66699 -26 26v57c0 16.667 8.66699 25 26 25h27z" />
    <glyph glyph-name="cdotaccent" unicode="&#x10b;" horiz-adv-x="489" 
d="M286 499c14.667 0 30.999 -0.666016 48.999 -1.99902s36.5 -3.66602 55.5 -6.99902s36.5 -8 52.5 -14l-11 -55c-22 2 -45.167 3.5 -69.5 4.5s-45.166 1.5 -62.499 1.5c-38.667 0 -69.334 -5.33301 -92.001 -16s-39 -29.334 -49 -56.001s-15 -63.667 -15 -111
s5 -84.5 15 -111.5s26.333 -45.833 49 -56.5s53.334 -16 92.001 -16c10 0 23 0.333008 39 1s33.167 1.66699 51.5 3s35.833 3.33301 52.5 6l9 -57c-24.667 -8.66699 -51.5 -15 -80.5 -19s-57.833 -6 -86.5 -6c-56 0 -101 8.33301 -135 25s-58.5 43.667 -73.5 81
s-22.5 87.333 -22.5 150s7.66699 112.667 23 150s40 64.166 74 80.499s79 24.5 135 24.5zM281.999 687.001c17.333 0 26 -8.33301 26 -25v-57c0 -17.333 -8.66699 -26 -26 -26h-27c-17.333 0 -26 8.66699 -26 26v57c0 16.667 8.66699 25 26 25h27z" />
    <glyph glyph-name="Ccaron" unicode="&#x10c;" horiz-adv-x="570" 
d="M332 702c29.333 0 54.498 -0.666992 75.498 -2s40.333 -3.5 58 -6.5s35.834 -6.83301 54.501 -11.5l-9 -67c-20 2 -38.5 3.66699 -55.5 5s-35.167 2.33301 -54.5 3s-42.333 1 -69 1c-44.667 0 -80 -8.66699 -106 -26s-44.5 -46.333 -55.5 -87s-16.5 -96 -16.5 -166
s5.5 -125.333 16.5 -166s29.5 -69.667 55.5 -87s61.333 -26 106 -26c42.667 0 78.5 0.833008 107.5 2.5s57.5 4.5 85.5 8.5l9 -66c-28.667 -8 -58.167 -13.833 -88.5 -17.5s-68.166 -5.5 -113.499 -5.5c-66 0 -118.833 11.5 -158.5 34.5s-68.334 60.5 -86.001 112.5
s-26.5 122 -26.5 210s8.83301 158 26.5 210s46.334 89.5 86.001 112.5s92.5 34.5 158.5 34.5zM454.998 911l30 -36l-143 -128h-40l-143 128l29 36l130 -87h8z" />
    <glyph glyph-name="ccaron" unicode="&#x10d;" horiz-adv-x="489" 
d="M286 499c14.667 0 30.999 -0.666016 48.999 -1.99902s36.5 -3.66602 55.5 -6.99902s36.5 -8 52.5 -14l-11 -55c-22 2 -45.167 3.5 -69.5 4.5s-45.166 1.5 -62.499 1.5c-38.667 0 -69.334 -5.33301 -92.001 -16s-39 -29.334 -49 -56.001s-15 -63.667 -15 -111
s5 -84.5 15 -111.5s26.333 -45.833 49 -56.5s53.334 -16 92.001 -16c10 0 23 0.333008 39 1s33.167 1.66699 51.5 3s35.833 3.33301 52.5 6l9 -57c-24.667 -8.66699 -51.5 -15 -80.5 -19s-57.833 -6 -86.5 -6c-56 0 -101 8.33301 -135 25s-58.5 43.667 -73.5 81
s-22.5 87.333 -22.5 150s7.66699 112.667 23 150s40 64.166 74 80.499s79 24.5 135 24.5zM401.999 731.001l30 -36l-143 -128h-40l-143 128l29 36l130 -87h8z" />
    <glyph glyph-name="Dcaron" unicode="&#x10e;" horiz-adv-x="664" 
d="M333 699c49.333 0 91.166 -6.00293 125.499 -18.0029s62 -31.667 83 -59s36.333 -63.666 46 -108.999s14.5 -101.333 14.5 -168s-4.83301 -122.667 -14.5 -168s-25 -81.666 -46 -108.999s-48.667 -47 -83 -59s-76.166 -18 -125.499 -18
c-47.333 0 -91.166 0.833008 -131.499 2.5s-78.5 3.83398 -114.5 6.50098l38 72c28 -0.666992 59.167 -1.5 93.5 -2.5s72.5 -1.5 114.5 -1.5c44 0 79 8.5 105 25.5s44.5 45.667 55.5 86s16.5 95.5 16.5 165.5s-5.5 125.167 -16.5 165.5s-29.5 69.166 -55.5 86.499
s-61 26 -105 26c-41.333 0 -78.5 -0.333008 -111.5 -1l-96.5 -2l-38 70c36 2.66699 74.167 4.83398 114.5 6.50098s84.166 2.5 131.499 2.5zM175 689.997v-690h-88v690h88zM453 910.997l30 -36l-143 -128h-40l-143 128l29 36l130 -87h8z" />
    <glyph glyph-name="dcaron" unicode="&#x10f;" horiz-adv-x="573" 
d="M240 499c32 0 63.666 -4.16504 94.999 -12.498s61.333 -21.166 90 -38.499l-5 -53c-31.333 9.33301 -59 16.666 -83 21.999s-49.667 8 -77 8c-28 0 -50.5 -4.83301 -67.5 -14.5s-29.5 -27.5 -37.5 -53.5s-12 -63 -12 -111s3.83301 -85.333 11.5 -112
s19.834 -45.334 36.501 -56.001s38 -16 64 -16c19.333 0 36.833 2.5 52.5 7.5s32.334 13.167 50.001 24.5s38.5 25.666 62.5 42.999l8 -60c-26.667 -24.667 -57 -45.667 -91 -63s-70.667 -26 -110 -26c-61.333 0 -105.166 21.667 -131.499 65s-39.5 107.333 -39.5 192
c0 63.333 6.66699 113.5 20 150.5s33.666 63.5 60.999 79.5s61.666 24 102.999 24zM493.999 700.002l0.000976562 -699.999h-66l-10 85l-9 7v334l6 15c-2.66699 18.667 -4.33398 36.667 -5.00098 54s-1 35.666 -1 54.999v150h85zM598 706.003
c11.333 0 18.833 -2.00293 22.5 -6.00293s5.5 -10.667 5.5 -20v-54c0.666992 -23.333 -2 -45.666 -8 -66.999s-13.667 -41.666 -23 -60.999l-37 9c3.33301 17.333 5.66602 33.333 6.99902 48s2 32.334 2 53.001c-14 0 -21 7.33301 -21 22v50c0 9.33301 2.33301 16 7 20
s12.334 6 23.001 6h22z" />
    <glyph glyph-name="Dcroat" unicode="&#x110;" horiz-adv-x="669" 
d="M331 391v-49h-309v49h309zM337 699c49.333 0 91.166 -6.00293 125.499 -18.0029s62 -31.667 83 -59s36.333 -63.666 46 -108.999s14.5 -101.333 14.5 -168s-4.83301 -122.667 -14.5 -168s-25 -81.666 -46 -108.999s-48.667 -47 -83 -59s-76.166 -18 -125.499 -18
c-47.333 0 -91.166 0.833008 -131.499 2.5s-78.5 3.83398 -114.5 6.50098l38 72c28 -0.666992 59.167 -1.5 93.5 -2.5s72.5 -1.5 114.5 -1.5c44 0 79 8.5 105 25.5s44.5 45.667 55.5 86s16.5 95.5 16.5 165.5s-5.5 125.167 -16.5 165.5s-29.5 69.166 -55.5 86.499
s-61 26 -105 26c-41.333 0 -78.5 -0.333008 -111.5 -1l-96.5 -2l-38 70c36 2.66699 74.167 4.83398 114.5 6.50098s84.166 2.5 131.499 2.5zM179 689.997v-690h-88v690h88z" />
    <glyph glyph-name="dcroat" unicode="&#x111;" horiz-adv-x="568" 
d="M562 622v-49h-306v49h306zM240 499c32 0 63.666 -4.16504 94.999 -12.498s61.333 -21.166 90 -38.499l-5 -53c-31.333 9.33301 -59 16.666 -83 21.999s-49.667 8 -77 8c-28 0 -50.5 -4.83301 -67.5 -14.5s-29.5 -27.5 -37.5 -53.5s-12 -63 -12 -111
s3.83301 -85.333 11.5 -112s19.834 -45.334 36.501 -56.001s38 -16 64 -16c19.333 0 36.833 2.5 52.5 7.5s32.334 13.167 50.001 24.5s38.5 25.666 62.5 42.999l8 -60c-26.667 -24.667 -57 -45.667 -91 -63s-70.667 -26 -110 -26c-61.333 0 -105.166 21.667 -131.499 65
s-39.5 107.333 -39.5 192c0 63.333 6.66699 113.5 20 150.5s33.666 63.5 60.999 79.5s61.666 24 102.999 24zM493.999 700.002l0.000976562 -699.999h-66l-10 85l-9 7v334l6 15c-2.66699 18.667 -4.33398 36.667 -5.00098 54s-1 35.666 -1 54.999v150h85z" />
    <glyph glyph-name="Emacron" unicode="&#x112;" horiz-adv-x="560" 
d="M214 691l100.5 -0.000976562c33.667 0 67 -0.5 100 -1.5s64.833 -2.5 95.5 -4.5l-4 -69h-277c-20.667 0 -35.834 -5.16699 -45.501 -15.5s-14.5 -27.166 -14.5 -50.499v-410c0 -23.333 4.83301 -40.333 14.5 -51s24.834 -16 45.501 -16h277l4 -68
c-30.667 -2 -62.5 -3.33301 -95.5 -4s-66.333 -1.16699 -100 -1.5s-67.167 -0.5 -100.5 -0.5c-40.667 0 -72.834 10.833 -96.501 32.5s-35.834 50.834 -36.501 87.501v452c0.666992 37.333 12.834 66.666 36.501 87.999s55.834 32 96.501 32zM99 399.999h368v-71h-368v71z
M449 861.999v-63h-278v63h278z" />
    <glyph glyph-name="emacron" unicode="&#x113;" horiz-adv-x="537" 
d="M278 499c73.333 0 126.499 -13.3311 159.499 -39.998s49.5 -66.334 49.5 -119.001c0.666992 -43.333 -8.33301 -77.166 -27 -101.499s-48.334 -36.5 -89.001 -36.5h-284v66h262c22 0 36.333 7.5 43 22.5s10 31.5 10 49.5c-0.666992 31.333 -10 53.666 -28 66.999
s-48.667 20 -92 20c-35.333 0 -63.166 -5.16699 -83.499 -15.5s-34.666 -28.333 -42.999 -54s-12.5 -61.5 -12.5 -107.5c0 -52 5.16699 -91.667 15.5 -119s26.833 -46 49.5 -56s52.667 -15 90 -15c26 0 54.5 1.16699 85.5 3.5s58.833 5.16602 83.5 8.49902l9 -57
c-15.333 -6 -34.166 -11 -56.499 -15s-45.333 -7 -69 -9s-44.834 -3 -63.501 -3c-56 0 -101 8.5 -135 25.5s-58.833 44.333 -74.5 82s-23.5 87.5 -23.5 149.5c0 64 7.83301 114.5 23.5 151.5s40 63.333 73 79s75.5 23.5 127.5 23.5zM419.999 668.002v-63h-278v63h278z" />
    <glyph glyph-name="Ebreve" unicode="&#x114;" horiz-adv-x="560" 
d="M214 691l100.5 -0.000976562c33.667 0 67 -0.5 100 -1.5s64.833 -2.5 95.5 -4.5l-4 -69h-277c-20.667 0 -35.834 -5.16699 -45.501 -15.5s-14.5 -27.166 -14.5 -50.499v-410c0 -23.333 4.83301 -40.333 14.5 -51s24.834 -16 45.501 -16h277l4 -68
c-30.667 -2 -62.5 -3.33301 -95.5 -4s-66.333 -1.16699 -100 -1.5s-67.167 -0.5 -100.5 -0.5c-40.667 0 -72.834 10.833 -96.501 32.5s-35.834 50.834 -36.501 87.501v452c0.666992 37.333 12.834 66.666 36.501 87.999s55.834 32 96.501 32zM99 399.999h368v-71h-368v71z
M415 896.999l44.002 -6c2 -26 -3 -48.833 -15 -68.5s-29.333 -35.167 -52 -46.5s-50.334 -17 -83.001 -17c-32 0 -59.5 5.66699 -82.5 17s-40.333 26.833 -52 46.5s-16.834 42.5 -15.501 68.5l44 6c-0.666992 -23.333 8.33301 -41.666 27 -54.999s45.334 -20 80.001 -20
c33.333 0 59.166 6.66699 77.499 20s27.5 31.666 27.5 54.999z" />
    <glyph glyph-name="ebreve" unicode="&#x115;" horiz-adv-x="537" 
d="M278 499c73.333 0 126.499 -13.3311 159.499 -39.998s49.5 -66.334 49.5 -119.001c0.666992 -43.333 -8.33301 -77.166 -27 -101.499s-48.334 -36.5 -89.001 -36.5h-284v66h262c22 0 36.333 7.5 43 22.5s10 31.5 10 49.5c-0.666992 31.333 -10 53.666 -28 66.999
s-48.667 20 -92 20c-35.333 0 -63.166 -5.16699 -83.499 -15.5s-34.666 -28.333 -42.999 -54s-12.5 -61.5 -12.5 -107.5c0 -52 5.16699 -91.667 15.5 -119s26.833 -46 49.5 -56s52.667 -15 90 -15c26 0 54.5 1.16699 85.5 3.5s58.833 5.16602 83.5 8.49902l9 -57
c-15.333 -6 -34.166 -11 -56.499 -15s-45.333 -7 -69 -9s-44.834 -3 -63.501 -3c-56 0 -101 8.5 -135 25.5s-58.833 44.333 -74.5 82s-23.5 87.5 -23.5 149.5c0 64 7.83301 114.5 23.5 151.5s40 63.333 73 79s75.5 23.5 127.5 23.5zM386.999 703.002l44.002 -6
c2 -26 -3 -48.833 -15 -68.5s-29.333 -35.167 -52 -46.5s-50.334 -17 -83.001 -17c-32 0 -59.5 5.66699 -82.5 17s-40.333 26.833 -52 46.5s-16.834 42.5 -15.501 68.5l44 6c-0.666992 -23.333 8.33301 -41.666 27 -54.999s45.334 -20 80.001 -20
c33.333 0 59.166 6.66699 77.499 20s27.5 31.666 27.5 54.999z" />
    <glyph glyph-name="Edotaccent" unicode="&#x116;" horiz-adv-x="560" 
d="M214 691l100.5 -0.000976562c33.667 0 67 -0.5 100 -1.5s64.833 -2.5 95.5 -4.5l-4 -69h-277c-20.667 0 -35.834 -5.16699 -45.501 -15.5s-14.5 -27.166 -14.5 -50.499v-410c0 -23.333 4.83301 -40.333 14.5 -51s24.834 -16 45.501 -16h277l4 -68
c-30.667 -2 -62.5 -3.33301 -95.5 -4s-66.333 -1.16699 -100 -1.5s-67.167 -0.5 -100.5 -0.5c-40.667 0 -72.834 10.833 -96.501 32.5s-35.834 50.834 -36.501 87.501v452c0.666992 37.333 12.834 66.666 36.501 87.999s55.834 32 96.501 32zM99 399.999h368v-71h-368v71z
M324 879.999c17.333 0 26 -8.33301 26 -25v-57c0 -17.333 -8.66699 -26 -26 -26h-27c-17.333 0 -26 8.66699 -26 26v57c0 16.667 8.66699 25 26 25h27z" />
    <glyph glyph-name="edotaccent" unicode="&#x117;" horiz-adv-x="537" 
d="M278 499c73.333 0 126.499 -13.3311 159.499 -39.998s49.5 -66.334 49.5 -119.001c0.666992 -43.333 -8.33301 -77.166 -27 -101.499s-48.334 -36.5 -89.001 -36.5h-284v66h262c22 0 36.333 7.5 43 22.5s10 31.5 10 49.5c-0.666992 31.333 -10 53.666 -28 66.999
s-48.667 20 -92 20c-35.333 0 -63.166 -5.16699 -83.499 -15.5s-34.666 -28.333 -42.999 -54s-12.5 -61.5 -12.5 -107.5c0 -52 5.16699 -91.667 15.5 -119s26.833 -46 49.5 -56s52.667 -15 90 -15c26 0 54.5 1.16699 85.5 3.5s58.833 5.16602 83.5 8.49902l9 -57
c-15.333 -6 -34.166 -11 -56.499 -15s-45.333 -7 -69 -9s-44.834 -3 -63.501 -3c-56 0 -101 8.5 -135 25.5s-58.833 44.333 -74.5 82s-23.5 87.5 -23.5 149.5c0 64 7.83301 114.5 23.5 151.5s40 63.333 73 79s75.5 23.5 127.5 23.5zM294.999 686.002
c17.333 0 26 -8.33301 26 -25v-57c0 -17.333 -8.66699 -26 -26 -26h-27c-17.333 0 -26 8.66699 -26 26v57c0 16.667 8.66699 25 26 25h27z" />
    <glyph glyph-name="Eogonek" unicode="&#x118;" horiz-adv-x="560" 
d="M214 691l100.5 -0.000976562c33.667 0 67 -0.5 100 -1.5s64.833 -2.5 95.5 -4.5l-4 -69h-277c-20.667 0 -35.834 -5.16699 -45.501 -15.5s-14.5 -27.166 -14.5 -50.499v-410c0 -23.333 4.83301 -40.333 14.5 -51s24.834 -16 45.501 -16h277l4 -68
c-30.667 -2 -62.5 -3.33301 -95.5 -4s-66.333 -1.16699 -100 -1.5s-67.167 -0.5 -100.5 -0.5c-40.667 0 -72.834 10.833 -96.501 32.5s-35.834 50.834 -36.501 87.501v452c0.666992 37.333 12.834 66.666 36.501 87.999s55.834 32 96.501 32zM99 399.999h368v-71h-368v71z
M472 6.99902l38.001 -2.00195c-14.667 -16.667 -28.5 -34.167 -41.5 -52.5s-23.833 -38.833 -32.5 -61.5c-10 -24.667 -7.33301 -40.667 8 -48s38.666 -6 69.999 4l10 -35c-31.333 -13.333 -57.833 -20.166 -79.5 -20.499s-38.667 3.83398 -51 12.501
s-19.833 20.5 -22.5 35.5s-1 31.167 5 48.5c5.33301 16.667 15.5 35 30.5 55s36.833 41.333 65.5 64z" />
    <glyph glyph-name="eogonek" unicode="&#x119;" horiz-adv-x="537" 
d="M278 499c73.333 0 126.499 -13.3311 159.499 -39.998s49.5 -66.334 49.5 -119.001c0.666992 -43.333 -8.33301 -77.166 -27 -101.499s-48.334 -36.5 -89.001 -36.5h-284v66h262c22 0 36.333 7.5 43 22.5s10 31.5 10 49.5c-0.666992 31.333 -10 53.666 -28 66.999
s-48.667 20 -92 20c-35.333 0 -63.166 -5.16699 -83.499 -15.5s-34.666 -28.333 -42.999 -54s-12.5 -61.5 -12.5 -107.5c0 -52 5.16699 -91.667 15.5 -119s26.833 -46 49.5 -56s52.667 -15 90 -15c26 0 54.5 1.16699 85.5 3.5s58.833 5.16602 83.5 8.49902l9 -57
c-15.333 -6 -34.166 -11 -56.499 -15s-45.333 -7 -69 -9s-44.834 -3 -63.501 -3c-56 0 -101 8.5 -135 25.5s-58.833 44.333 -74.5 82s-23.5 87.5 -23.5 149.5c0 64 7.83301 114.5 23.5 151.5s40 63.333 73 79s75.5 23.5 127.5 23.5zM436.999 18.002l38.001 -2.00195
c-14.667 -16.667 -28.5 -34.167 -41.5 -52.5s-23.833 -38.833 -32.5 -61.5c-10 -24.667 -7.33301 -40.667 8 -48s38.666 -6 69.999 4l10 -35c-31.333 -13.333 -57.833 -20.166 -79.5 -20.499s-38.667 3.83398 -51 12.501s-19.833 20.5 -22.5 35.5s-1 31.167 5 48.5
c5.33301 16.667 15.5 35 30.5 55s36.833 41.333 65.5 64z" />
    <glyph glyph-name="Ecaron" unicode="&#x11a;" horiz-adv-x="560" 
d="M214 691l100.5 -0.000976562c33.667 0 67 -0.5 100 -1.5s64.833 -2.5 95.5 -4.5l-4 -69h-277c-20.667 0 -35.834 -5.16699 -45.501 -15.5s-14.5 -27.166 -14.5 -50.499v-410c0 -23.333 4.83301 -40.333 14.5 -51s24.834 -16 45.501 -16h277l4 -68
c-30.667 -2 -62.5 -3.33301 -95.5 -4s-66.333 -1.16699 -100 -1.5s-67.167 -0.5 -100.5 -0.5c-40.667 0 -72.834 10.833 -96.501 32.5s-35.834 50.834 -36.501 87.501v452c0.666992 37.333 12.834 66.666 36.501 87.999s55.834 32 96.501 32zM99 399.999h368v-71h-368v71z
M444 923.999l30 -36l-143 -128h-40l-143 128l29 36l130 -87h8z" />
    <glyph glyph-name="ecaron" unicode="&#x11b;" horiz-adv-x="537" 
d="M278 499c73.333 0 126.499 -13.3311 159.499 -39.998s49.5 -66.334 49.5 -119.001c0.666992 -43.333 -8.33301 -77.166 -27 -101.499s-48.334 -36.5 -89.001 -36.5h-284v66h262c22 0 36.333 7.5 43 22.5s10 31.5 10 49.5c-0.666992 31.333 -10 53.666 -28 66.999
s-48.667 20 -92 20c-35.333 0 -63.166 -5.16699 -83.499 -15.5s-34.666 -28.333 -42.999 -54s-12.5 -61.5 -12.5 -107.5c0 -52 5.16699 -91.667 15.5 -119s26.833 -46 49.5 -56s52.667 -15 90 -15c26 0 54.5 1.16699 85.5 3.5s58.833 5.16602 83.5 8.49902l9 -57
c-15.333 -6 -34.166 -11 -56.499 -15s-45.333 -7 -69 -9s-44.834 -3 -63.501 -3c-56 0 -101 8.5 -135 25.5s-58.833 44.333 -74.5 82s-23.5 87.5 -23.5 149.5c0 64 7.83301 114.5 23.5 151.5s40 63.333 73 79s75.5 23.5 127.5 23.5zM415.999 730.002l30 -36l-143 -128h-40
l-143 128l29 36l130 -87h8z" />
    <glyph glyph-name="Gcircumflex" unicode="&#x11c;" horiz-adv-x="628" 
d="M350 703c23.333 0 46 -0.666992 68 -2s43.333 -3.5 64 -6.5s40.667 -7.16699 60 -12.5l-9 -66c-20.667 2 -41.5 3.66699 -62.5 5s-41.167 2.16602 -60.5 2.49902s-37.666 0.5 -54.999 0.5c-37.333 0 -68.833 -3.5 -94.5 -10.5s-46.167 -20.5 -61.5 -40.5
s-26.5 -48.667 -33.5 -86s-10.5 -86 -10.5 -146c0 -68 4.66699 -122.167 14 -162.5s25 -69.5 47 -87.5s51.333 -27 88 -27c25.333 0 48.5 3.66699 69.5 11s40.667 16.833 59 28.5s36.166 23.834 53.499 36.501l12 -54c-12 -14 -28.5 -28.667 -49.5 -44
s-45.5 -28.333 -73.5 -39s-59.667 -16 -95 -16c-51.333 0 -93.166 12.833 -125.499 38.5s-55.833 65 -70.5 118s-22 120.833 -22 203.5c0 91.333 9.16699 162.833 27.5 214.5s48.666 88.167 90.999 109.5s98.833 32 169.5 32zM560 399v-399h-64l-14 102l-8 20v277h86z
M358 904l133 -127l-30 -37l-129 97h-8l-130 -97l-29 37l132 127h61z" />
    <glyph glyph-name="gcircumflex" unicode="&#x11d;" horiz-adv-x="558" 
d="M271 499c52 0 93.167 -5.33105 123.5 -15.998s52 -27.334 65 -50.001s19.5 -52.334 19.5 -89.001c0 -35.333 -6.5 -64.5 -19.5 -87.5s-34.833 -40 -65.5 -51s-72 -16.5 -124 -16.5s-93.167 5.5 -123.5 16.5s-52 27.833 -65 50.5s-19.5 51.667 -19.5 87
c0 36.667 6.5 66.5 19.5 89.5s34.833 39.833 65.5 50.5s72 16 124 16zM270 434.002c-48.667 0 -82.5 -6.83301 -101.5 -20.5s-28.5 -36.834 -28.5 -69.501c0 -32 9.5 -55 28.5 -69s52.833 -21 101.5 -21c49.333 0 83.333 7 102 21s28 37 28 69
c0 32.667 -9.33301 55.834 -28 69.501s-52.667 20.5 -102 20.5zM536 487.002l-5 -47l-124 -10l-35 57h164zM133 221.002l48.999 -7.00293c-11.333 -10 -19 -22.167 -23 -36.5s-2.83301 -27.5 3.5 -39.5s19.833 -19.667 40.5 -23l182 -29c46 -6.66699 78 -21 96 -43
s27 -53.333 27 -94c0 -38 -7.16699 -68 -21.5 -90s-38.5 -37.667 -72.5 -47s-80 -14 -138 -14c-44 0 -81 2.5 -111 7.5s-54.167 13.333 -72.5 25s-31.5 26.834 -39.5 45.501s-12 42 -12 70c0 21.333 3.16699 39.166 9.5 53.499s16.333 27.166 30 38.499s31.5 22.333 53.5 33
l60 33l39 -14l-49 -37c-13.333 -10 -24.5 -19.833 -33.5 -29.5s-15.667 -20 -20 -31s-6.5 -24.167 -6.5 -39.5c0 -22.667 4.33301 -40 13 -52s24 -20.167 46 -24.5s52.667 -6.5 92 -6.5s69.833 2.33301 91.5 7s36.834 13 45.501 25s13 29 13 51
c0 16.667 -2.16699 29.334 -6.5 38.001s-12.5 15.334 -24.5 20.001s-29.667 8.66699 -53 12l-175 24c-20.667 2.66699 -37.167 9.33398 -49.5 20.001s-20.833 23.334 -25.5 38.001s-6 29.5 -4 44.5s7 29 15 42s18.333 22.833 31 29.5zM301.999 715.999l133 -127l-30 -37
l-129 97h-8l-130 -97l-29 37l132 127h61z" />
    <glyph glyph-name="Gbreve" unicode="&#x11e;" horiz-adv-x="628" 
d="M350 703c23.333 0 46 -0.666992 68 -2s43.333 -3.5 64 -6.5s40.667 -7.16699 60 -12.5l-9 -66c-20.667 2 -41.5 3.66699 -62.5 5s-41.167 2.16602 -60.5 2.49902s-37.666 0.5 -54.999 0.5c-37.333 0 -68.833 -3.5 -94.5 -10.5s-46.167 -20.5 -61.5 -40.5
s-26.5 -48.667 -33.5 -86s-10.5 -86 -10.5 -146c0 -68 4.66699 -122.167 14 -162.5s25 -69.5 47 -87.5s51.333 -27 88 -27c25.333 0 48.5 3.66699 69.5 11s40.667 16.833 59 28.5s36.166 23.834 53.499 36.501l12 -54c-12 -14 -28.5 -28.667 -49.5 -44
s-45.5 -28.333 -73.5 -39s-59.667 -16 -95 -16c-51.333 0 -93.166 12.833 -125.499 38.5s-55.833 65 -70.5 118s-22 120.833 -22 203.5c0 91.333 9.16699 162.833 27.5 214.5s48.666 88.167 90.999 109.5s98.833 32 169.5 32zM560 399v-399h-64l-14 102l-8 20v277h86z
M433 891l44.002 -6c2 -26 -3 -48.833 -15 -68.5s-29.333 -35.167 -52 -46.5s-50.334 -17 -83.001 -17c-32 0 -59.5 5.66699 -82.5 17s-40.333 26.833 -52 46.5s-16.834 42.5 -15.501 68.5l44 6c-0.666992 -23.333 8.33301 -41.666 27 -54.999s45.334 -20 80.001 -20
c33.333 0 59.166 6.66699 77.499 20s27.5 31.666 27.5 54.999z" />
    <glyph glyph-name="gbreve" unicode="&#x11f;" horiz-adv-x="558" 
d="M271 499c52 0 93.167 -5.33105 123.5 -15.998s52 -27.334 65 -50.001s19.5 -52.334 19.5 -89.001c0 -35.333 -6.5 -64.5 -19.5 -87.5s-34.833 -40 -65.5 -51s-72 -16.5 -124 -16.5s-93.167 5.5 -123.5 16.5s-52 27.833 -65 50.5s-19.5 51.667 -19.5 87
c0 36.667 6.5 66.5 19.5 89.5s34.833 39.833 65.5 50.5s72 16 124 16zM270 434.002c-48.667 0 -82.5 -6.83301 -101.5 -20.5s-28.5 -36.834 -28.5 -69.501c0 -32 9.5 -55 28.5 -69s52.833 -21 101.5 -21c49.333 0 83.333 7 102 21s28 37 28 69
c0 32.667 -9.33301 55.834 -28 69.501s-52.667 20.5 -102 20.5zM536 487.002l-5 -47l-124 -10l-35 57h164zM133 221.002l48.999 -7.00293c-11.333 -10 -19 -22.167 -23 -36.5s-2.83301 -27.5 3.5 -39.5s19.833 -19.667 40.5 -23l182 -29c46 -6.66699 78 -21 96 -43
s27 -53.333 27 -94c0 -38 -7.16699 -68 -21.5 -90s-38.5 -37.667 -72.5 -47s-80 -14 -138 -14c-44 0 -81 2.5 -111 7.5s-54.167 13.333 -72.5 25s-31.5 26.834 -39.5 45.501s-12 42 -12 70c0 21.333 3.16699 39.166 9.5 53.499s16.333 27.166 30 38.499s31.5 22.333 53.5 33
l60 33l39 -14l-49 -37c-13.333 -10 -24.5 -19.833 -33.5 -29.5s-15.667 -20 -20 -31s-6.5 -24.167 -6.5 -39.5c0 -22.667 4.33301 -40 13 -52s24 -20.167 46 -24.5s52.667 -6.5 92 -6.5s69.833 2.33301 91.5 7s36.834 13 45.501 25s13 29 13 51
c0 16.667 -2.16699 29.334 -6.5 38.001s-12.5 15.334 -24.5 20.001s-29.667 8.66699 -53 12l-175 24c-20.667 2.66699 -37.167 9.33398 -49.5 20.001s-20.833 23.334 -25.5 38.001s-6 29.5 -4 44.5s7 29 15 42s18.333 22.833 31 29.5zM376.999 703.999l44.002 -6
c2 -26 -3 -48.833 -15 -68.5s-29.333 -35.167 -52 -46.5s-50.334 -17 -83.001 -17c-32 0 -59.5 5.66699 -82.5 17s-40.333 26.833 -52 46.5s-16.834 42.5 -15.501 68.5l44 6c-0.666992 -23.333 8.33301 -41.666 27 -54.999s45.334 -20 80.001 -20
c33.333 0 59.166 6.66699 77.499 20s27.5 31.666 27.5 54.999z" />
    <glyph glyph-name="Gdotaccent" unicode="&#x120;" horiz-adv-x="628" 
d="M350 703c23.333 0 46 -0.666992 68 -2s43.333 -3.5 64 -6.5s40.667 -7.16699 60 -12.5l-9 -66c-20.667 2 -41.5 3.66699 -62.5 5s-41.167 2.16602 -60.5 2.49902s-37.666 0.5 -54.999 0.5c-37.333 0 -68.833 -3.5 -94.5 -10.5s-46.167 -20.5 -61.5 -40.5
s-26.5 -48.667 -33.5 -86s-10.5 -86 -10.5 -146c0 -68 4.66699 -122.167 14 -162.5s25 -69.5 47 -87.5s51.333 -27 88 -27c25.333 0 48.5 3.66699 69.5 11s40.667 16.833 59 28.5s36.166 23.834 53.499 36.501l12 -54c-12 -14 -28.5 -28.667 -49.5 -44
s-45.5 -28.333 -73.5 -39s-59.667 -16 -95 -16c-51.333 0 -93.166 12.833 -125.499 38.5s-55.833 65 -70.5 118s-22 120.833 -22 203.5c0 91.333 9.16699 162.833 27.5 214.5s48.666 88.167 90.999 109.5s98.833 32 169.5 32zM560 399v-399h-64l-14 102l-8 20v277h86z
M341 874c17.333 0 26 -8.33301 26 -25v-57c0 -17.333 -8.66699 -26 -26 -26h-27c-17.333 0 -26 8.66699 -26 26v57c0 16.667 8.66699 25 26 25h27z" />
    <glyph glyph-name="gdotaccent" unicode="&#x121;" horiz-adv-x="558" 
d="M271 499c52 0 93.167 -5.33105 123.5 -15.998s52 -27.334 65 -50.001s19.5 -52.334 19.5 -89.001c0 -35.333 -6.5 -64.5 -19.5 -87.5s-34.833 -40 -65.5 -51s-72 -16.5 -124 -16.5s-93.167 5.5 -123.5 16.5s-52 27.833 -65 50.5s-19.5 51.667 -19.5 87
c0 36.667 6.5 66.5 19.5 89.5s34.833 39.833 65.5 50.5s72 16 124 16zM270 434.002c-48.667 0 -82.5 -6.83301 -101.5 -20.5s-28.5 -36.834 -28.5 -69.501c0 -32 9.5 -55 28.5 -69s52.833 -21 101.5 -21c49.333 0 83.333 7 102 21s28 37 28 69
c0 32.667 -9.33301 55.834 -28 69.501s-52.667 20.5 -102 20.5zM536 487.002l-5 -47l-124 -10l-35 57h164zM133 221.002l48.999 -7.00293c-11.333 -10 -19 -22.167 -23 -36.5s-2.83301 -27.5 3.5 -39.5s19.833 -19.667 40.5 -23l182 -29c46 -6.66699 78 -21 96 -43
s27 -53.333 27 -94c0 -38 -7.16699 -68 -21.5 -90s-38.5 -37.667 -72.5 -47s-80 -14 -138 -14c-44 0 -81 2.5 -111 7.5s-54.167 13.333 -72.5 25s-31.5 26.834 -39.5 45.501s-12 42 -12 70c0 21.333 3.16699 39.166 9.5 53.499s16.333 27.166 30 38.499s31.5 22.333 53.5 33
l60 33l39 -14l-49 -37c-13.333 -10 -24.5 -19.833 -33.5 -29.5s-15.667 -20 -20 -31s-6.5 -24.167 -6.5 -39.5c0 -22.667 4.33301 -40 13 -52s24 -20.167 46 -24.5s52.667 -6.5 92 -6.5s69.833 2.33301 91.5 7s36.834 13 45.501 25s13 29 13 51
c0 16.667 -2.16699 29.334 -6.5 38.001s-12.5 15.334 -24.5 20.001s-29.667 8.66699 -53 12l-175 24c-20.667 2.66699 -37.167 9.33398 -49.5 20.001s-20.833 23.334 -25.5 38.001s-6 29.5 -4 44.5s7 29 15 42s18.333 22.833 31 29.5zM285.999 686.999
c17.333 0 26 -8.33301 26 -25v-57c0 -17.333 -8.66699 -26 -26 -26h-27c-17.333 0 -26 8.66699 -26 26v57c0 16.667 8.66699 25 26 25h27z" />
    <glyph glyph-name="uni0122" unicode="&#x122;" horiz-adv-x="628" 
d="M336 -59c11.333 0 19.001 -2 23.001 -6s6 -11 6 -21v-55c-0.666992 -16.667 -2.16699 -32.5 -4.5 -47.5s-5.83301 -29.667 -10.5 -44s-10.334 -27.833 -17.001 -40.5l-37 10c3.33301 17.333 5.83301 33.5 7.5 48.5s2.5 33.167 2.5 54.5c-14.667 0 -22 8 -22 24v50
c0 10 2.5 17 7.5 21s12.5 6 22.5 6h22zM350.001 703c23.333 0 46 -0.666992 68 -2s43.333 -3.5 64 -6.5s40.667 -7.16699 60 -12.5l-9 -66c-20.667 2 -41.5 3.66699 -62.5 5s-41.167 2.16602 -60.5 2.49902s-37.666 0.5 -54.999 0.5c-37.333 0 -68.833 -3.5 -94.5 -10.5
s-46.167 -20.5 -61.5 -40.5s-26.5 -48.667 -33.5 -86s-10.5 -86 -10.5 -146c0 -68 4.66699 -122.167 14 -162.5s25 -69.5 47 -87.5s51.333 -27 88 -27c25.333 0 48.5 3.66699 69.5 11s40.667 16.833 59 28.5s36.166 23.834 53.499 36.501l12 -54
c-12 -14 -28.5 -28.667 -49.5 -44s-45.5 -28.333 -73.5 -39s-59.667 -16 -95 -16c-51.333 0 -93.166 12.833 -125.499 38.5s-55.833 65 -70.5 118s-22 120.833 -22 203.5c0 91.333 9.16699 162.833 27.5 214.5s48.666 88.167 90.999 109.5s98.833 32 169.5 32zM560.001 399
v-399h-64l-14 102l-8 20v277h86z" />
    <glyph glyph-name="uni0123" unicode="&#x123;" horiz-adv-x="558" 
d="M273 558c-11.333 0 -19.001 2 -23.001 6s-6 11 -6 21v55c0.666992 16.667 2.16699 32.5 4.5 47.5s5.83301 29.667 10.5 44s10.334 27.833 17.001 40.5l37 -10c-3.33301 -17.333 -5.83301 -33.5 -7.5 -48.5s-2.5 -33.167 -2.5 -54.5c14.667 0 22 -8 22 -24v-50
c0 -10 -2.5 -17 -7.5 -21s-12.5 -6 -22.5 -6h-22zM270.999 499c52 0 93.167 -5.33105 123.5 -15.998s52 -27.334 65 -50.001s19.5 -52.334 19.5 -89.001c0 -35.333 -6.5 -64.5 -19.5 -87.5s-34.833 -40 -65.5 -51s-72 -16.5 -124 -16.5s-93.167 5.5 -123.5 16.5
s-52 27.833 -65 50.5s-19.5 51.667 -19.5 87c0 36.667 6.5 66.5 19.5 89.5s34.833 39.833 65.5 50.5s72 16 124 16zM269.999 434.002c-48.667 0 -82.5 -6.83301 -101.5 -20.5s-28.5 -36.834 -28.5 -69.501c0 -32 9.5 -55 28.5 -69s52.833 -21 101.5 -21
c49.333 0 83.333 7 102 21s28 37 28 69c0 32.667 -9.33301 55.834 -28 69.501s-52.667 20.5 -102 20.5zM535.999 487.002l-5 -47l-124 -10l-35 57h164zM132.999 221.002l48.999 -7.00293c-11.333 -10 -19 -22.167 -23 -36.5s-2.83301 -27.5 3.5 -39.5
s19.833 -19.667 40.5 -23l182 -29c46 -6.66699 78 -21 96 -43s27 -53.333 27 -94c0 -38 -7.16699 -68 -21.5 -90s-38.5 -37.667 -72.5 -47s-80 -14 -138 -14c-44 0 -81 2.5 -111 7.5s-54.167 13.333 -72.5 25s-31.5 26.834 -39.5 45.501s-12 42 -12 70
c0 21.333 3.16699 39.166 9.5 53.499s16.333 27.166 30 38.499s31.5 22.333 53.5 33l60 33l39 -14l-49 -37c-13.333 -10 -24.5 -19.833 -33.5 -29.5s-15.667 -20 -20 -31s-6.5 -24.167 -6.5 -39.5c0 -22.667 4.33301 -40 13 -52s24 -20.167 46 -24.5s52.667 -6.5 92 -6.5
s69.833 2.33301 91.5 7s36.834 13 45.501 25s13 29 13 51c0 16.667 -2.16699 29.334 -6.5 38.001s-12.5 15.334 -24.5 20.001s-29.667 8.66699 -53 12l-175 24c-20.667 2.66699 -37.167 9.33398 -49.5 20.001s-20.833 23.334 -25.5 38.001s-6 29.5 -4 44.5s7 29 15 42
s18.333 22.833 31 29.5z" />
    <glyph glyph-name="Hcircumflex" unicode="&#x124;" 
d="M175 690v-690h-88v690h88zM504 407v-76h-337v76h337zM581 690v-690h-88v690h88zM365 904l133 -127l-30 -37l-129 97h-8l-130 -97l-29 37l132 127h61z" />
    <glyph glyph-name="hcircumflex" unicode="&#x125;" horiz-adv-x="581" 
d="M374 499c88 0 131.999 -44.668 131.999 -134.001v-365h-86v341c0 32.667 -5.16699 55.167 -15.5 67.5s-28.166 18.5 -53.499 18.5c-30 0 -60 -7 -90 -21s-65.667 -34.333 -107 -61l-4 61c38 28.667 75.667 51.334 113 68.001s74.333 25 111 25zM162.999 699.999l1 -193
c0 -22 -0.833008 -42.667 -2.5 -62s-4.16699 -36.333 -7.5 -51l9 -15v-379h-85v700h85zM149.999 867.999l133 -127l-30 -37l-129 97h-8l-130 -97l-29 37l132 127h61z" />
    <glyph glyph-name="Hbar" unicode="&#x126;" horiz-adv-x="676" 
d="M655 566v-47h-635v47h635zM179 690v-690h-88v690h88zM508 407v-76h-337v76h337zM585 690v-690h-88v690h88z" />
    <glyph glyph-name="hbar" unicode="&#x127;" horiz-adv-x="585" 
d="M313 622v-49h-307v49h307zM378 499c88 0 131.999 -44.668 131.999 -134.001v-365h-86v341c0 32.667 -5.16699 55.167 -15.5 67.5s-28.166 18.5 -53.499 18.5c-30 0 -60 -7 -90 -21s-65.667 -34.333 -107 -61l-4 61c38 28.667 75.667 51.334 113 68.001s74.333 25 111 25z
M166.999 699.999l1 -193c0 -22 -0.833008 -42.667 -2.5 -62s-4.16699 -36.333 -7.5 -51l9 -15v-379h-85v700h85z" />
    <glyph glyph-name="Itilde" unicode="&#x128;" horiz-adv-x="262" 
d="M175 690v-690h-88v690h88zM51 879c15.333 -1.33301 29.167 -4.50293 41.5 -9.50293s24 -10.667 35 -17s22.333 -12.166 34 -17.499s24.5 -9 38.5 -11c19.333 -2.66699 32.333 0.333008 39 9s10 22.334 10 41.001h40c4 -37.333 -1.5 -65.833 -16.5 -85.5
s-35.5 -28.5 -61.5 -26.5c-22.667 2 -42.167 7.33301 -58.5 16s-31.666 17.334 -45.999 26.001s-29.833 13.667 -46.5 15c-18.667 2 -31.167 -1.5 -37.5 -10.5s-9.5 -23.5 -9.5 -43.5h-40c-2.66699 26.667 -0.833984 48.667 5.49902 66s16 30 29 38s27.5 11.333 43.5 10z
" />
    <glyph glyph-name="itilde" unicode="&#x129;" horiz-adv-x="249" 
d="M167 487v-487h-85v487h85zM45 700c15.333 -1.33301 29.167 -4.50293 41.5 -9.50293s24 -10.667 35 -17s22.333 -12.166 34 -17.499s24.5 -9 38.5 -11c19.333 -2.66699 32.333 0.333008 39 9s10 22.334 10 41.001h40c4 -37.333 -1.5 -65.833 -16.5 -85.5
s-35.5 -28.5 -61.5 -26.5c-22.667 2 -42.167 7.33301 -58.5 16s-31.666 17.334 -45.999 26.001s-29.833 13.667 -46.5 15c-18.667 2 -31.167 -1.5 -37.5 -10.5s-9.5 -23.5 -9.5 -43.5h-40c-2.66699 26.667 -0.833984 48.667 5.49902 66s16 30 29 38s27.5 11.333 43.5 10z
" />
    <glyph glyph-name="Imacron" unicode="&#x12a;" horiz-adv-x="262" 
d="M175 690v-690h-88v690h88zM270 849v-63h-278v63h278z" />
    <glyph glyph-name="imacron" unicode="&#x12b;" horiz-adv-x="249" 
d="M167 487v-487h-85v487h85zM264 669v-63h-278v63h278z" />
    <glyph glyph-name="Ibreve" unicode="&#x12c;" horiz-adv-x="262" 
d="M175 690v-690h-88v690h88zM236 883l44.002 -6c2 -26 -3 -48.833 -15 -68.5s-29.333 -35.167 -52 -46.5s-50.334 -17 -83.001 -17c-32 0 -59.5 5.66699 -82.5 17s-40.333 26.833 -52 46.5s-16.834 42.5 -15.501 68.5l44 6c-0.666992 -23.333 8.33301 -41.666 27 -54.999
s45.334 -20 80.001 -20c33.333 0 59.166 6.66699 77.499 20s27.5 31.666 27.5 54.999z" />
    <glyph glyph-name="ibreve" unicode="&#x12d;" horiz-adv-x="249" 
d="M167 487v-487h-85v487h85zM230 704l44.002 -6c2 -26 -3 -48.833 -15 -68.5s-29.333 -35.167 -52 -46.5s-50.334 -17 -83.001 -17c-32 0 -59.5 5.66699 -82.5 17s-40.333 26.833 -52 46.5s-16.834 42.5 -15.501 68.5l44 6c-0.666992 -23.333 8.33301 -41.666 27 -54.999
s45.334 -20 80.001 -20c33.333 0 59.166 6.66699 77.499 20s27.5 31.666 27.5 54.999z" />
    <glyph glyph-name="Iogonek" unicode="&#x12e;" horiz-adv-x="262" 
d="M175 690v-690h-88v690h88zM127 2l38.001 -2.00195c-14.667 -16.667 -28.5 -34.167 -41.5 -52.5s-23.833 -38.833 -32.5 -61.5c-10 -24.667 -7.33301 -40.667 8 -48s38.666 -6 69.999 4l10 -35c-31.333 -13.333 -57.833 -20.166 -79.5 -20.499s-38.667 3.83398 -51 12.501
s-19.833 20.5 -22.5 35.5s-1 31.167 5 48.5c5.33301 16.667 15.5 35 30.5 55s36.833 41.333 65.5 64z" />
    <glyph glyph-name="iogonek" unicode="&#x12f;" horiz-adv-x="249" 
d="M167 487v-487h-85v487h85zM139 687c17.333 0 26 -8.33301 26 -25v-57c0 -17.333 -8.66699 -26 -26 -26h-27c-17.333 0 -26 8.66699 -26 26v57c0 16.667 8.66699 25 26 25h27zM122 2l38.001 -2.00195c-14.667 -16.667 -28.5 -34.167 -41.5 -52.5
s-23.833 -38.833 -32.5 -61.5c-10 -24.667 -7.33301 -40.667 8 -48s38.666 -6 69.999 4l10 -35c-31.333 -13.333 -57.833 -20.166 -79.5 -20.499s-38.667 3.83398 -51 12.501s-19.833 20.5 -22.5 35.5s-1 31.167 5 48.5c5.33301 16.667 15.5 35 30.5 55
s36.833 41.333 65.5 64z" />
    <glyph glyph-name="Idotaccent" unicode="&#x130;" horiz-adv-x="262" 
d="M175 690v-690h-88v690h88zM145 867c17.333 0 26 -8.33301 26 -25v-57c0 -17.333 -8.66699 -26 -26 -26h-27c-17.333 0 -26 8.66699 -26 26v57c0 16.667 8.66699 25 26 25h27z" />
    <glyph glyph-name="dotlessi" unicode="&#x131;" horiz-adv-x="249" 
d="M167 487v-487h-85v487h85z" />
    <glyph glyph-name="IJ" unicode="&#x132;" horiz-adv-x="602" 
d="M175 690v-690h-88v690h88zM518 690l0.000976562 -545c0 -50.667 -11.5 -89 -34.5 -115s-56.167 -39 -99.5 -39c-8.66699 0 -18.834 0.5 -30.501 1.5s-23 2.5 -34 4.5s-20.167 4.33301 -27.5 7l10 62h50c52 0 78 25.333 78 76v548h88z" />
    <glyph glyph-name="ij" unicode="&#x133;" horiz-adv-x="498" 
d="M166 487v-487h-84v487h84zM144 694c17.333 0 26 -8.66699 26 -26v-57c0 -17.333 -8.66699 -26 -26 -26h-40c-17.333 0 -26 8.66699 -26 26v57c0 17.333 8.66699 26 26 26h40zM416 487v-498.998c0 -26 -3.83301 -50.833 -11.5 -74.5s-18.5 -45.334 -32.5 -65.001
s-30.667 -36.834 -50 -51.501l-47 37c19.333 23.333 33.5 47 42.5 71s13.5 51.667 13.5 83v499h85zM394 694.002c16.667 0 25 -8.66699 25 -26v-57c0 -17.333 -8.33301 -26 -25 -26h-40c-17.333 0 -26 8.66699 -26 26v57c0 17.333 8.66699 26 26 26h40z" />
    <glyph glyph-name="Jcircumflex" unicode="&#x134;" horiz-adv-x="340" 
d="M256 690l0.000976562 -545c0 -50.667 -11.5 -89 -34.5 -115s-56.167 -39 -99.5 -39c-8.66699 0 -18.834 0.5 -30.501 1.5s-23 2.5 -34 4.5s-20.167 4.33301 -27.5 7l10 62h50c52 0 78 25.333 78 76v548h88zM242.001 898l133 -127l-30 -37l-129 97h-8l-130 -97l-29 37
l132 127h61z" />
    <glyph glyph-name="jcircumflex" unicode="&#x135;" horiz-adv-x="250" 
d="M168 487v-498.998c0 -26 -3.83301 -50.833 -11.5 -74.5s-18.5 -45.334 -32.5 -65.001s-30.667 -36.834 -50 -51.501l-47 37c19.333 23.333 33.5 47 42.5 71s13.5 51.667 13.5 83v499h85zM155 716.002l133 -127l-30 -37l-129 97h-8l-130 -97l-29 37l132 127h61z" />
    <glyph glyph-name="uni0136" unicode="&#x136;" horiz-adv-x="591" 
d="M326 -59c11.333 0 19.001 -2 23.001 -6s6 -11 6 -21v-55c-0.666992 -16.667 -2.16699 -32.5 -4.5 -47.5s-5.83301 -29.667 -10.5 -44s-10.334 -27.833 -17.001 -40.5l-37 10c3.33301 17.333 5.83301 33.5 7.5 48.5s2.5 33.167 2.5 54.5c-14.667 0 -22 8 -22 24v50
c0 10 2.5 17 7.5 21s12.5 6 22.5 6h22zM558.001 690l-200.999 -286c-6 -8.66699 -11.833 -16.167 -17.5 -22.5s-12.5 -13.5 -20.5 -21.5v-2c8.66699 -8 16.667 -16 24 -24s13.666 -16 18.999 -24l210 -310h-99l-245 361l234 329h96zM174.002 690l0.000976562 -215.999
c0 -20 -1 -39 -3 -57s-5 -36.667 -9 -56c3.33301 -18.667 6.16602 -37.334 8.49902 -56.001s3.5 -36.667 3.5 -54v-251h-87v690h87zM276.003 395.001v-71h-133v71h133z" />
    <glyph glyph-name="uni0137" unicode="&#x137;" horiz-adv-x="509" 
d="M287 -59c11.333 0 19.001 -2 23.001 -6s6 -11 6 -21v-55c-0.666992 -16.667 -2.16699 -32.5 -4.5 -47.5s-5.83301 -29.667 -10.5 -44s-10.334 -27.833 -17.001 -40.5l-37 10c3.33301 17.333 5.83301 33.5 7.5 48.5s2.5 33.167 2.5 54.5c-14.667 0 -22 8 -22 24v50
c0 10 2.5 17 7.5 21s12.5 6 22.5 6h22zM476.001 487l-153 -179.001c-4.66699 -6 -10.334 -12.167 -17.001 -18.5s-12.334 -11.166 -17.001 -14.499v-2c4.66699 -3.33301 10.334 -8.83301 17.001 -16.5s12.334 -15.167 17.001 -22.5l169 -234h-99l-193 279l177 208h99z
M163.001 699.999l1.00098 -310.998c0 -20.667 -0.833008 -39.834 -2.5 -57.501s-4.16699 -36.167 -7.5 -55.5c3.33301 -18.667 5.66602 -37.334 6.99902 -56.001s2 -36.667 2 -54v-166h-85v700h85zM246.002 306.001v-62h-113v62h113z" />
    <glyph glyph-name="kgreenlandic" unicode="&#x138;" horiz-adv-x="509" 
d="M476 487l-154 -196c-4.66699 -6 -10.5 -12.333 -17.5 -19s-12.5 -11.667 -16.5 -15v-2c4 -2.66699 9.33301 -8 16 -16s12.667 -15.667 18 -23l170 -216h-99l-193 252l177 235h99zM163 487l1.00098 -124.998c0.666992 -20.667 0 -39.834 -2 -57.501
s-4.66699 -36.167 -8 -55.5c3.33301 -18.667 5.66602 -37.334 6.99902 -56.001s2 -36.667 2 -54v-139h-85v487h85zM246.001 278.002v-61h-113v61h113z" />
    <glyph glyph-name="Lacute" unicode="&#x139;" horiz-adv-x="514" 
d="M172 690v-549.999c0 -22.667 5.5 -39.334 16.5 -50.001s27.833 -16 50.5 -16h249l4 -68c-43.333 -3.33301 -87.5 -5.33301 -132.5 -6s-89.833 -1 -134.5 -1c-50.667 0 -86.667 12.333 -108 37s-32 55.667 -32 93v561h87zM231 923.001l49 -66l-192 -120l-29 39z" />
    <glyph glyph-name="lacute" unicode="&#x13a;" horiz-adv-x="297" 
d="M164 700l-1 -566c0 -21.333 5.83301 -37.5 17.5 -48.5s28.167 -16.5 49.5 -16.5h47l10 -65c-6 -2.66699 -14.5 -5 -25.5 -7s-22.333 -3.5 -34 -4.5s-21.5 -1.5 -29.5 -1.5c-36 0 -64.833 10.667 -86.5 32s-32.5 52 -32.5 92v585h85zM222 938l49 -66l-192 -120l-29 39z
" />
    <glyph glyph-name="uni013B" unicode="&#x13b;" horiz-adv-x="514" 
d="M307 -61c11.333 0 19.001 -2 23.001 -6s6 -11 6 -21v-55c-0.666992 -16.667 -2.16699 -32.5 -4.5 -47.5s-5.83301 -29.667 -10.5 -44s-10.334 -27.833 -17.001 -40.5l-37 10c3.33301 17.333 5.83301 33.5 7.5 48.5s2.5 33.167 2.5 54.5c-14.667 0 -22 8 -22 24v50
c0 10 2.5 17 7.5 21s12.5 6 22.5 6h22zM172.001 690v-549.999c0 -22.667 5.5 -39.334 16.5 -50.001s27.833 -16 50.5 -16h249l4 -68c-43.333 -3.33301 -87.5 -5.33301 -132.5 -6s-89.833 -1 -134.5 -1c-50.667 0 -86.667 12.333 -108 37s-32 55.667 -32 93v561h87z" />
    <glyph glyph-name="uni013C" unicode="&#x13c;" horiz-adv-x="297" 
d="M184 -61c11.333 0 19.001 -2 23.001 -6s6 -11 6 -21v-55c-0.666992 -16.667 -2.16699 -32.5 -4.5 -47.5s-5.83301 -29.667 -10.5 -44s-10.334 -27.833 -17.001 -40.5l-37 10c3.33301 17.333 5.83301 33.5 7.5 48.5s2.5 33.167 2.5 54.5c-14.667 0 -22 8 -22 24v50
c0 10 2.5 17 7.5 21s12.5 6 22.5 6h22zM164.001 700l-1 -566c0 -21.333 5.83301 -37.5 17.5 -48.5s28.167 -16.5 49.5 -16.5h47l10 -65c-6 -2.66699 -14.5 -5 -25.5 -7s-22.333 -3.5 -34 -4.5s-21.5 -1.5 -29.5 -1.5c-36 0 -64.833 10.667 -86.5 32s-32.5 52 -32.5 92v585
h85z" />
    <glyph glyph-name="Lcaron" unicode="&#x13d;" horiz-adv-x="514" 
d="M172 690v-549.999c0 -22.667 5.5 -39.334 16.5 -50.001s27.833 -16 50.5 -16h249l4 -68c-43.333 -3.33301 -87.5 -5.33301 -132.5 -6s-89.833 -1 -134.5 -1c-50.667 0 -86.667 12.333 -108 37s-32 55.667 -32 93v561h87zM352 689.001
c11.333 0 18.833 -2.00293 22.5 -6.00293s5.5 -10.667 5.5 -20v-54c0.666992 -23.333 -2 -45.666 -8 -66.999s-13.667 -41.666 -23 -60.999l-37 9c3.33301 17.333 5.66602 33.333 6.99902 48s2 32.334 2 53.001c-14 0 -21 7.33301 -21 22v50c0 9.33301 2.33301 16 7 20
s12.334 6 23.001 6h22z" />
    <glyph glyph-name="lcaron" unicode="&#x13e;" horiz-adv-x="297" 
d="M164 700l-1 -566c0 -21.333 5.83301 -37.5 17.5 -48.5s28.167 -16.5 49.5 -16.5h47l10 -65c-6 -2.66699 -14.5 -5 -25.5 -7s-22.333 -3.5 -34 -4.5s-21.5 -1.5 -29.5 -1.5c-36 0 -64.833 10.667 -86.5 32s-32.5 52 -32.5 92v585h85zM272 702
c11.333 0 18.833 -2.00293 22.5 -6.00293s5.5 -10.667 5.5 -20v-54c0.666992 -23.333 -2 -45.666 -8 -66.999s-13.667 -41.666 -23 -60.999l-37 9c3.33301 17.333 5.66602 33.333 6.99902 48s2 32.334 2 53.001c-14 0 -21 7.33301 -21 22v50c0 9.33301 2.33301 16 7 20
s12.334 6 23.001 6h22z" />
    <glyph glyph-name="Ldot" unicode="&#x13f;" horiz-adv-x="514" 
d="M335 352c-17.333 0 -26 8.33301 -26 25v57c0 17.333 8.66699 26 26 26h27c17.333 0 26 -8.66699 26 -26v-57c0 -16.667 -8.66699 -25 -26 -25h-27zM172 690v-549.999c0 -22.667 5.5 -39.334 16.5 -50.001s27.833 -16 50.5 -16h249l4 -68
c-43.333 -3.33301 -87.5 -5.33301 -132.5 -6s-89.833 -1 -134.5 -1c-50.667 0 -86.667 12.333 -108 37s-32 55.667 -32 93v561h87z" />
    <glyph glyph-name="ldot" unicode="&#x140;" horiz-adv-x="320" 
d="M265 336c-17.333 0 -26 8.33301 -26 25v57c0 17.333 8.66699 26 26 26h27c17.333 0 26 -8.66699 26 -26v-57c0 -16.667 -8.66699 -25 -26 -25h-27zM164 700l-1 -566c0 -21.333 5.83301 -37.5 17.5 -48.5s28.167 -16.5 49.5 -16.5h47l10 -65
c-6 -2.66699 -14.5 -5 -25.5 -7s-22.333 -3.5 -34 -4.5s-21.5 -1.5 -29.5 -1.5c-36 0 -64.833 10.667 -86.5 32s-32.5 52 -32.5 92v585h85z" />
    <glyph glyph-name="Lslash" unicode="&#x141;" horiz-adv-x="520" 
d="M294 474v-54l-274 -115v55zM178 690v-549.999c0 -22.667 5.5 -39.334 16.5 -50.001s27.833 -16 50.5 -16h249l4 -68c-43.333 -3.33301 -87.5 -5.33301 -132.5 -6s-89.833 -1 -134.5 -1c-50.667 0 -86.667 12.333 -108 37s-32 55.667 -32 93v561h87z" />
    <glyph glyph-name="lslash" unicode="&#x142;" horiz-adv-x="328" 
d="M294 470v-55l-273 -114v55zM186 700l-1 -566c0 -21.333 5.83301 -37.5 17.5 -48.5s28.167 -16.5 49.5 -16.5h47l10 -65c-6 -2.66699 -14.5 -5 -25.5 -7s-22.333 -3.5 -34 -4.5s-21.5 -1.5 -29.5 -1.5c-36 0 -64.833 10.667 -86.5 32s-32.5 52 -32.5 92v585h85z" />
    <glyph glyph-name="Nacute" unicode="&#x143;" horiz-adv-x="705" 
d="M618 690l0.00195312 -655c0 -23.333 -11.333 -35 -34 -35h-86c-10 -0 -18 2.33301 -24 7s-11 11.667 -15 21l-233 489l-21 45c-8 16.667 -14 32 -18 46h-16c1.33301 -14.667 2.33301 -29.667 3 -45s1 -30.666 1 -45.999v-517h-88v655c0 23.333 11.667 35 35 35h83
c10 0 18 -2.33301 24 -7s11 -11.667 15 -21l226 -477c7.33301 -14 15.166 -29.833 23.499 -47.5s16.166 -35.167 23.499 -52.5h17l-2 53c-0.666992 17.333 -1 34.666 -1 51.999v500h87zM464.002 921l49 -66l-192 -120l-29 39z" />
    <glyph glyph-name="nacute" unicode="&#x144;" horiz-adv-x="581" 
d="M374 499c88 0 132 -44.666 132 -133.999v-365h-85v341c0 32.667 -5.33301 55.167 -16 67.5s-28.667 18.5 -54 18.5c-30 0 -60 -7.33301 -90 -22s-65.667 -34.667 -107 -60l-4 61c38 29.333 75.667 52.166 113 68.499s74.333 24.5 111 24.5zM150 487.001l7 -93l6 -15v-379
h-85v487h72zM404 741.001l49 -66l-192 -120l-29 39z" />
    <glyph glyph-name="uni0145" unicode="&#x145;" horiz-adv-x="705" 
d="M351 -59c11.333 0 19.001 -2 23.001 -6s6 -11 6 -21v-55c-0.666992 -16.667 -2.16699 -32.5 -4.5 -47.5s-5.83301 -29.667 -10.5 -44s-10.334 -27.833 -17.001 -40.5l-37 10c3.33301 17.333 5.83301 33.5 7.5 48.5s2.5 33.167 2.5 54.5c-14.667 0 -22 8 -22 24v50
c0 10 2.5 17 7.5 21s12.5 6 22.5 6h22zM618.001 690l0.00195312 -655c0 -23.333 -11.333 -35 -34 -35h-86c-10 -0 -18 2.33301 -24 7s-11 11.667 -15 21l-233 489l-21 45c-8 16.667 -14 32 -18 46h-16c1.33301 -14.667 2.33301 -29.667 3 -45s1 -30.666 1 -45.999v-517h-88
v655c0 23.333 11.667 35 35 35h83c10 0 18 -2.33301 24 -7s11 -11.667 15 -21l226 -477c7.33301 -14 15.166 -29.833 23.499 -47.5s16.166 -35.167 23.499 -52.5h17l-2 53c-0.666992 17.333 -1 34.666 -1 51.999v500h87z" />
    <glyph glyph-name="uni0146" unicode="&#x146;" horiz-adv-x="581" 
d="M302 -59c11.333 0 19.001 -2 23.001 -6s6 -11 6 -21v-55c-0.666992 -16.667 -2.16699 -32.5 -4.5 -47.5s-5.83301 -29.667 -10.5 -44s-10.334 -27.833 -17.001 -40.5l-37 10c3.33301 17.333 5.83301 33.5 7.5 48.5s2.5 33.167 2.5 54.5c-14.667 0 -22 8 -22 24v50
c0 10 2.5 17 7.5 21s12.5 6 22.5 6h22zM374.001 499c88 0 132 -44.666 132 -133.999v-365h-85v341c0 32.667 -5.33301 55.167 -16 67.5s-28.667 18.5 -54 18.5c-30 0 -60 -7.33301 -90 -22s-65.667 -34.667 -107 -60l-4 61c38 29.333 75.667 52.166 113 68.499
s74.333 24.5 111 24.5zM150.001 487.001l7 -93l6 -15v-379h-85v487h72z" />
    <glyph glyph-name="Ncaron" unicode="&#x147;" horiz-adv-x="705" 
d="M618 690l0.00195312 -655c0 -23.333 -11.333 -35 -34 -35h-86c-10 -0 -18 2.33301 -24 7s-11 11.667 -15 21l-233 489l-21 45c-8 16.667 -14 32 -18 46h-16c1.33301 -14.667 2.33301 -29.667 3 -45s1 -30.666 1 -45.999v-517h-88v655c0 23.333 11.667 35 35 35h83
c10 0 18 -2.33301 24 -7s11 -11.667 15 -21l226 -477c7.33301 -14 15.166 -29.833 23.499 -47.5s16.166 -35.167 23.499 -52.5h17l-2 53c-0.666992 17.333 -1 34.666 -1 51.999v500h87zM498.002 911l30 -36l-143 -128h-40l-143 128l29 36l130 -87h8z" />
    <glyph glyph-name="ncaron" unicode="&#x148;" horiz-adv-x="581" 
d="M374 499c88 0 132 -44.666 132 -133.999v-365h-85v341c0 32.667 -5.33301 55.167 -16 67.5s-28.667 18.5 -54 18.5c-30 0 -60 -7.33301 -90 -22s-65.667 -34.667 -107 -60l-4 61c38 29.333 75.667 52.166 113 68.499s74.333 24.5 111 24.5zM150 487.001l7 -93l6 -15v-379
h-85v487h72zM438 730.001l30 -36l-143 -128h-40l-143 128l29 36l130 -87h8z" />
    <glyph glyph-name="Eng" unicode="&#x14a;" horiz-adv-x="705" 
d="M618 690v-768.999c0 -44.667 -12.167 -78.834 -36.5 -102.501s-57.166 -35.167 -98.499 -34.5c-12 0 -26.667 1 -44 3s-32 5 -44 9l9 56h49c54.667 0 82 25.333 82 76v72h-35c-6 0 -11 2.5 -15 7.5s-7.66699 10.833 -11 17.5l-248 477
c-6.66699 12.667 -13.667 27.5 -21 44.5l-20 47.5h-14c2 -15.333 3.16699 -30.833 3.5 -46.5s0.5 -31.167 0.5 -46.5v-501h-88v655c0 23.333 11.667 35 35 35h67c10 0 18 -2.33301 24 -7s11.333 -11.667 16 -21l241 -462c7.33301 -13.333 15.166 -29 23.499 -47l23.5 -53h17
c-0.666992 17.333 -1.5 34.5 -2.5 51.5s-1.5 33.833 -1.5 50.5v488h88z" />
    <glyph glyph-name="eng" unicode="&#x14b;" horiz-adv-x="581" 
d="M373 499c88.667 0 133.002 -44.666 133.002 -133.999v-433c0 -44.667 -10.5 -78.834 -31.5 -102.501s-51.833 -35.167 -92.5 -34.5c-8 0 -17 0.5 -27 1.5s-20 2.5 -30 4.5s-19.667 4.33301 -29 7l10 54h43c48 0 72 25.667 72 77v402c0 28.667 -5.33301 49.167 -16 61.5
s-29.334 18.5 -56.001 18.5s-55.334 -6.5 -86.001 -19.5s-64 -30.167 -100 -51.5v-350h-85v487h66l8 -80c38 30 75.5 52.833 112.5 68.5s73.167 23.5 108.5 23.5z" />
    <glyph glyph-name="Omacron" unicode="&#x14c;" 
d="M334 703c50 0 92.5 -6 127.5 -18s63 -31.833 84 -59.5s36.333 -64.5 46 -110.5s14.5 -102.667 14.5 -170s-4.83301 -124 -14.5 -170s-25 -82.833 -46 -110.5s-49 -47.5 -84 -59.5s-77.5 -18 -127.5 -18s-92.5 6 -127.5 18s-63.167 31.833 -84.5 59.5
s-36.833 64.5 -46.5 110.5s-14.5 102.667 -14.5 170s4.83301 124 14.5 170s25.167 82.833 46.5 110.5s49.5 47.5 84.5 59.5s77.5 18 127.5 18zM334 624c-45.333 0 -81.166 -8.66699 -107.499 -26s-45 -46.166 -56 -86.499s-16.5 -95.833 -16.5 -166.5
c0 -70 5.5 -125.333 16.5 -166s29.667 -69.667 56 -87s62.166 -26 107.499 -26s81.166 8.66699 107.499 26s45 46.333 56 87s16.5 96 16.5 166c0 70.667 -5.5 126.167 -16.5 166.5s-29.667 69.166 -56 86.499s-62.166 26 -107.499 26zM475 849v-63h-278v63h278z" />
    <glyph glyph-name="omacron" unicode="&#x14d;" horiz-adv-x="568" 
d="M284 499c56 0 100.833 -8.33301 134.5 -25s57.834 -43.834 72.501 -81.501s22 -87.5 22 -149.5s-7.33301 -111.833 -22 -149.5s-38.834 -64.834 -72.501 -81.501s-78.5 -25 -134.5 -25c-55.333 0 -99.833 8.33301 -133.5 25s-58 43.834 -73 81.501
s-22.5 87.5 -22.5 149.5s7.5 111.833 22.5 149.5s39.333 64.834 73 81.501s78.167 25 133.5 25zM284 427c-35.333 0 -63.166 -5.5 -83.499 -16.5s-34.833 -29.833 -43.5 -56.5s-13 -63.667 -13 -111s4.33301 -84.333 13 -111s23.167 -45.5 43.5 -56.5
s48.166 -16.5 83.499 -16.5s63.333 5.5 84 16.5s35.334 29.833 44.001 56.5s13 63.667 13 111s-4.33301 84.333 -13 111s-23.334 45.5 -44.001 56.5s-48.667 16.5 -84 16.5zM425 665v-63h-278v63h278z" />
    <glyph glyph-name="Obreve" unicode="&#x14e;" 
d="M334 703c50 0 92.5 -6 127.5 -18s63 -31.833 84 -59.5s36.333 -64.5 46 -110.5s14.5 -102.667 14.5 -170s-4.83301 -124 -14.5 -170s-25 -82.833 -46 -110.5s-49 -47.5 -84 -59.5s-77.5 -18 -127.5 -18s-92.5 6 -127.5 18s-63.167 31.833 -84.5 59.5
s-36.833 64.5 -46.5 110.5s-14.5 102.667 -14.5 170s4.83301 124 14.5 170s25.167 82.833 46.5 110.5s49.5 47.5 84.5 59.5s77.5 18 127.5 18zM334 624c-45.333 0 -81.166 -8.66699 -107.499 -26s-45 -46.166 -56 -86.499s-16.5 -95.833 -16.5 -166.5
c0 -70 5.5 -125.333 16.5 -166s29.667 -69.667 56 -87s62.166 -26 107.499 -26s81.166 8.66699 107.499 26s45 46.333 56 87s16.5 96 16.5 166c0 70.667 -5.5 126.167 -16.5 166.5s-29.667 69.166 -56 86.499s-62.166 26 -107.499 26zM441 883l44.002 -6
c2 -26 -3 -48.833 -15 -68.5s-29.333 -35.167 -52 -46.5s-50.334 -17 -83.001 -17c-32 0 -59.5 5.66699 -82.5 17s-40.333 26.833 -52 46.5s-16.834 42.5 -15.501 68.5l44 6c-0.666992 -23.333 8.33301 -41.666 27 -54.999s45.334 -20 80.001 -20
c33.333 0 59.166 6.66699 77.499 20s27.5 31.666 27.5 54.999z" />
    <glyph glyph-name="obreve" unicode="&#x14f;" horiz-adv-x="568" 
d="M284 499c56 0 100.833 -8.33301 134.5 -25s57.834 -43.834 72.501 -81.501s22 -87.5 22 -149.5s-7.33301 -111.833 -22 -149.5s-38.834 -64.834 -72.501 -81.501s-78.5 -25 -134.5 -25c-55.333 0 -99.833 8.33301 -133.5 25s-58 43.834 -73 81.501
s-22.5 87.5 -22.5 149.5s7.5 111.833 22.5 149.5s39.333 64.834 73 81.501s78.167 25 133.5 25zM284 427c-35.333 0 -63.166 -5.5 -83.499 -16.5s-34.833 -29.833 -43.5 -56.5s-13 -63.667 -13 -111s4.33301 -84.333 13 -111s23.167 -45.5 43.5 -56.5
s48.166 -16.5 83.499 -16.5s63.333 5.5 84 16.5s35.334 29.833 44.001 56.5s13 63.667 13 111s-4.33301 84.333 -13 111s-23.334 45.5 -44.001 56.5s-48.667 16.5 -84 16.5zM391 699l44.002 -6c2 -26 -3 -48.833 -15 -68.5s-29.333 -35.167 -52 -46.5
s-50.334 -17 -83.001 -17c-32 0 -59.5 5.66699 -82.5 17s-40.333 26.833 -52 46.5s-16.834 42.5 -15.501 68.5l44 6c-0.666992 -23.333 8.33301 -41.666 27 -54.999s45.334 -20 80.001 -20c33.333 0 59.166 6.66699 77.499 20s27.5 31.666 27.5 54.999z" />
    <glyph glyph-name="Ohungarumlaut" unicode="&#x150;" 
d="M334 703c50 0 92.5 -6 127.5 -18s63 -31.833 84 -59.5s36.333 -64.5 46 -110.5s14.5 -102.667 14.5 -170s-4.83301 -124 -14.5 -170s-25 -82.833 -46 -110.5s-49 -47.5 -84 -59.5s-77.5 -18 -127.5 -18s-92.5 6 -127.5 18s-63.167 31.833 -84.5 59.5
s-36.833 64.5 -46.5 110.5s-14.5 102.667 -14.5 170s4.83301 124 14.5 170s25.167 82.833 46.5 110.5s49.5 47.5 84.5 59.5s77.5 18 127.5 18zM334 624c-45.333 0 -81.166 -8.66699 -107.499 -26s-45 -46.166 -56 -86.499s-16.5 -95.833 -16.5 -166.5
c0 -70 5.5 -125.333 16.5 -166s29.667 -69.667 56 -87s62.166 -26 107.499 -26s81.166 8.66699 107.499 26s45 46.333 56 87s16.5 96 16.5 166c0 70.667 -5.5 126.167 -16.5 166.5s-29.667 69.166 -56 86.499s-62.166 26 -107.499 26zM307 931l62 -42l-134 -160l-38 28z
M471 931l62 -42l-134 -160l-38 28z" />
    <glyph glyph-name="ohungarumlaut" unicode="&#x151;" horiz-adv-x="568" 
d="M284 499c56 0 100.833 -8.33301 134.5 -25s57.834 -43.834 72.501 -81.501s22 -87.5 22 -149.5s-7.33301 -111.833 -22 -149.5s-38.834 -64.834 -72.501 -81.501s-78.5 -25 -134.5 -25c-55.333 0 -99.833 8.33301 -133.5 25s-58 43.834 -73 81.501
s-22.5 87.5 -22.5 149.5s7.5 111.833 22.5 149.5s39.333 64.834 73 81.501s78.167 25 133.5 25zM284 427c-35.333 0 -63.166 -5.5 -83.499 -16.5s-34.833 -29.833 -43.5 -56.5s-13 -63.667 -13 -111s4.33301 -84.333 13 -111s23.167 -45.5 43.5 -56.5
s48.166 -16.5 83.499 -16.5s63.333 5.5 84 16.5s35.334 29.833 44.001 56.5s13 63.667 13 111s-4.33301 84.333 -13 111s-23.334 45.5 -44.001 56.5s-48.667 16.5 -84 16.5zM257 747l62 -42l-134 -160l-38 28zM421 747l62 -42l-134 -160l-38 28z" />
    <glyph glyph-name="OE" unicode="&#x152;" horiz-adv-x="913" 
d="M334 703c25.333 0 47.168 -1.16797 65.501 -3.50098s36 -6 53 -11s35.167 -11.5 54.5 -19.5l-32 -66c-15.333 4.66699 -29.5 8.5 -42.5 11.5s-27.167 5.33301 -42.5 7s-34 2.5 -56 2.5c-45.333 0 -81.166 -8.5 -107.499 -25.5s-45 -45.667 -56 -86
s-16.5 -96.166 -16.5 -167.499c0 -70 5.5 -125.333 16.5 -166s29.667 -69.667 56 -87s62.166 -26 107.499 -26c23.333 0 42.666 0.833008 57.999 2.5s29.5 4.33398 42.5 8.00098l43.5 12.5l31 -63c-19.333 -9.33301 -37.5 -16.833 -54.5 -22.5
s-34.833 -9.83398 -53.5 -12.501s-41 -4 -67 -4c-50 0 -92.5 6 -127.5 18s-63.167 31.833 -84.5 59.5s-36.833 64.5 -46.5 110.5s-14.5 102.667 -14.5 170s4.83301 124 14.5 170s25.167 82.833 46.5 110.5s49.5 47.5 84.5 59.5s77.5 18 127.5 18zM573.002 690.999
l97.999 -0.000976562c32.667 0 65.167 -0.5 97.5 -1.5s63.5 -2.5 93.5 -4.5l-3 -69h-257c-22.667 0 -39.5 -5.16699 -50.5 -15.5s-16.5 -27.166 -16.5 -50.499v-410c0 -23.333 5.5 -40.333 16.5 -51s27.833 -16 50.5 -16h257l3 -68c-30.667 -2 -62.5 -3.33301 -95.5 -4
s-66.333 -1.16699 -100 -1.5s-67.167 -0.5 -100.5 -0.5c-34.667 0 -63.167 12 -85.5 36s-33.5 55.333 -33.5 94v432c0 38.667 11.833 70 35.5 94s53.834 36 90.501 36zM464.001 400.998l355 -1v-71l-355 -1v73z" />
    <glyph glyph-name="oe" unicode="&#x153;" horiz-adv-x="907" 
d="M284 -13c-55.333 0 -99.833 8.33301 -133.5 25s-58 43.834 -73 81.501s-22.5 87.5 -22.5 149.5s7.5 111.833 22.5 149.5s39.333 64.834 73 81.501s78.167 25 133.5 25c56 0 100.833 -8.33301 134.5 -25s57.834 -43.834 72.501 -81.501s22 -87.5 22 -149.5
s-7.33301 -111.833 -22 -149.5s-38.834 -64.834 -72.501 -81.501s-78.5 -25 -134.5 -25zM284 59c35.333 0 63.333 5.5 84 16.5s35.334 29.833 44.001 56.5s13 63.667 13 111s-4.33301 84.333 -13 111s-23.334 45.5 -44.001 56.5s-48.667 16.5 -84 16.5
s-63.166 -5.5 -83.499 -16.5s-34.833 -29.833 -43.5 -56.5s-13 -63.667 -13 -111s4.33301 -84.333 13 -111s23.167 -45.5 43.5 -56.5s48.166 -16.5 83.499 -16.5zM656 -12c-56 0 -101.002 8.50488 -135.002 25.5049s-58.667 44.5 -74 82.5s-23 88.333 -23 151
c0 62 7.33301 111.333 22 148s38.167 63.167 70.5 79.5s74.5 24.5 126.5 24.5c76 0 130.667 -13.333 164 -40s50.333 -63.334 51 -110.001c0 -36.667 -5.16699 -65.334 -15.5 -86.001s-26.5 -35.334 -48.5 -44.001s-51.333 -13 -88 -13h-250v63h245c27.333 0 46.333 6 57 18
s15.334 33 14.001 63c-1.33301 26 -12 45.333 -32 58s-51.667 19 -95 19c-33.333 0 -59.666 -5.33301 -78.999 -16s-33 -28.834 -41 -54.501s-12 -61.167 -12 -106.5c0 -52 5.16699 -91.667 15.5 -119s26.833 -46 49.5 -56s53 -15 91 -15c25.333 0 53.5 1.16699 84.5 3.5
s58.833 5.16602 83.5 8.49902l8 -57c-14.667 -6 -33.167 -11 -55.5 -15s-45.333 -7 -69 -9s-45.167 -3 -64.5 -3z" />
    <glyph glyph-name="Racute" unicode="&#x154;" horiz-adv-x="618" 
d="M325 699c53.333 0 96.335 -5.83008 129.002 -17.4971s56.5 -31.834 71.5 -60.501s22.5 -69 22.5 -121c0 -37.333 -4.33301 -68.5 -13 -93.5s-22.167 -44.333 -40.5 -58s-42.833 -22.5 -73.5 -26.5v-5c11.333 -2.66699 22.5 -8.16699 33.5 -16.5s21.167 -19.333 30.5 -33
s16.333 -30.167 21 -49.5l67 -218h-94l-61 216c-8.66699 26 -20.334 44.5 -35.001 55.5s-33.667 16.5 -57 16.5c-40.667 0 -76 0.166992 -106 0.5s-55 0.833008 -75 1.5s-36 1 -48 1l3 73h223c34 0.666992 60.833 4.66699 80.5 12s33.834 20.5 42.501 39.5s13 45.5 13 79.5
s-4.33301 60.167 -13 78.5s-22.834 31.166 -42.501 38.499s-46.5 11 -80.5 11c-54.667 0 -101.834 -0.333008 -141.501 -1s-66.5 -1 -80.5 -1l-14 69c25.333 2.66699 49 4.66699 71 6s46.167 2.16602 72.5 2.49902s57.833 0.5 94.5 0.5zM174.002 690.003v-690h-87v690h87z
M404.002 921.003l49 -66l-192 -120l-29 39z" />
    <glyph glyph-name="racute" unicode="&#x155;" horiz-adv-x="401" 
d="M144 487l11 -93l8 -15v-379h-85v487h66zM383 499l-9.99902 -80h-28c-28.667 0 -57.334 -5.83301 -86.001 -17.5s-63.667 -28.167 -105 -49.5l-7 53c36 29.333 72.167 52.333 108.5 69s71.5 25 105.5 25h22zM321.001 742l49 -66l-192 -120l-29 39z" />
    <glyph glyph-name="uni0156" unicode="&#x156;" horiz-adv-x="618" 
d="M339 -59c11.333 0 19.001 -2 23.001 -6s6 -11 6 -21v-55c-0.666992 -16.667 -2.16699 -32.5 -4.5 -47.5s-5.83301 -29.667 -10.5 -44s-10.334 -27.833 -17.001 -40.5l-37 10c3.33301 17.333 5.83301 33.5 7.5 48.5s2.5 33.167 2.5 54.5c-14.667 0 -22 8 -22 24v50
c0 10 2.5 17 7.5 21s12.5 6 22.5 6h22zM325.001 699c53.333 0 96.335 -5.83008 129.002 -17.4971s56.5 -31.834 71.5 -60.501s22.5 -69 22.5 -121c0 -37.333 -4.33301 -68.5 -13 -93.5s-22.167 -44.333 -40.5 -58s-42.833 -22.5 -73.5 -26.5v-5
c11.333 -2.66699 22.5 -8.16699 33.5 -16.5s21.167 -19.333 30.5 -33s16.333 -30.167 21 -49.5l67 -218h-94l-61 216c-8.66699 26 -20.334 44.5 -35.001 55.5s-33.667 16.5 -57 16.5c-40.667 0 -76 0.166992 -106 0.5s-55 0.833008 -75 1.5s-36 1 -48 1l3 73h223
c34 0.666992 60.833 4.66699 80.5 12s33.834 20.5 42.501 39.5s13 45.5 13 79.5s-4.33301 60.167 -13 78.5s-22.834 31.166 -42.501 38.499s-46.5 11 -80.5 11c-54.667 0 -101.834 -0.333008 -141.501 -1s-66.5 -1 -80.5 -1l-14 69c25.333 2.66699 49 4.66699 71 6
s46.167 2.16602 72.5 2.49902s57.833 0.5 94.5 0.5zM174.003 690.003v-690h-87v690h87z" />
    <glyph glyph-name="uni0157" unicode="&#x157;" horiz-adv-x="401" 
d="M124 -59c11.333 0 19.001 -2 23.001 -6s6 -11 6 -21v-55c-0.666992 -16.667 -2.16699 -32.5 -4.5 -47.5s-5.83301 -29.667 -10.5 -44s-10.334 -27.833 -17.001 -40.5l-37 10c3.33301 17.333 5.83301 33.5 7.5 48.5s2.5 33.167 2.5 54.5c-14.667 0 -22 8 -22 24v50
c0 10 2.5 17 7.5 21s12.5 6 22.5 6h22zM144.001 487l11 -93l8 -15v-379h-85v487h66zM383.001 499l-9.99902 -80h-28c-28.667 0 -57.334 -5.83301 -86.001 -17.5s-63.667 -28.167 -105 -49.5l-7 53c36 29.333 72.167 52.333 108.5 69s71.5 25 105.5 25h22z" />
    <glyph glyph-name="Rcaron" unicode="&#x158;" horiz-adv-x="618" 
d="M325 699c53.333 0 96.335 -5.83008 129.002 -17.4971s56.5 -31.834 71.5 -60.501s22.5 -69 22.5 -121c0 -37.333 -4.33301 -68.5 -13 -93.5s-22.167 -44.333 -40.5 -58s-42.833 -22.5 -73.5 -26.5v-5c11.333 -2.66699 22.5 -8.16699 33.5 -16.5s21.167 -19.333 30.5 -33
s16.333 -30.167 21 -49.5l67 -218h-94l-61 216c-8.66699 26 -20.334 44.5 -35.001 55.5s-33.667 16.5 -57 16.5c-40.667 0 -76 0.166992 -106 0.5s-55 0.833008 -75 1.5s-36 1 -48 1l3 73h223c34 0.666992 60.833 4.66699 80.5 12s33.834 20.5 42.501 39.5s13 45.5 13 79.5
s-4.33301 60.167 -13 78.5s-22.834 31.166 -42.501 38.499s-46.5 11 -80.5 11c-54.667 0 -101.834 -0.333008 -141.501 -1s-66.5 -1 -80.5 -1l-14 69c25.333 2.66699 49 4.66699 71 6s46.167 2.16602 72.5 2.49902s57.833 0.5 94.5 0.5zM174.002 690.003v-690h-87v690h87z
M437.002 911.003l30 -36l-143 -128h-40l-143 128l29 36l130 -87h8z" />
    <glyph glyph-name="rcaron" unicode="&#x159;" horiz-adv-x="401" 
d="M144 487l11 -93l8 -15v-379h-85v487h66zM383 499l-9.99902 -80h-28c-28.667 0 -57.334 -5.83301 -86.001 -17.5s-63.667 -28.167 -105 -49.5l-7 53c36 29.333 72.167 52.333 108.5 69s71.5 25 105.5 25h22zM355.001 731l30 -36l-143 -128h-40l-143 128l29 36l130 -87h8z
" />
    <glyph glyph-name="Sacute" unicode="&#x15a;" horiz-adv-x="561" 
d="M279 702c32.667 -0.666992 66.334 -2.33594 101.001 -5.00293s69.334 -7.66699 104.001 -15l-6 -64c-28.667 1.33301 -60.334 2.5 -95.001 3.5s-68 1.5 -100 1.5c-24.667 0 -45.834 -0.833008 -63.501 -2.5s-32.167 -5.66699 -43.5 -12s-19.5 -16.666 -24.5 -30.999
s-7.5 -34.166 -7.5 -59.499c0 -38 6.83301 -64.5 20.5 -79.5s35.834 -26.167 66.501 -33.5l140 -35c53.333 -12.667 89.833 -34.834 109.5 -66.501s29.5 -74.167 29.5 -127.5c0 -40 -4.5 -72.333 -13.5 -97s-22.833 -43.5 -41.5 -56.5s-42.667 -22 -72 -27
s-64 -7.5 -104 -7.5c-22.667 0 -52.167 1 -88.5 3s-78.166 7.33301 -125.499 16l6 65c39.333 -1.33301 71 -2.5 95 -3.5s44.667 -1.5 62 -1.5h54c35.333 0 63.166 2.66699 83.499 8s34.666 16 42.999 32s12.5 39.667 12.5 71c0 26.667 -3 47.334 -9 62.001
s-15.5 25.834 -28.5 33.501s-29.5 13.834 -49.5 18.501l-143 36c-50 12.667 -85.167 34.667 -105.5 66s-30.5 73.333 -30.5 126c0 40 4.5 72.167 13.5 96.5s22.667 42.666 41 54.999s41.5 20.5 69.5 24.5s61.333 6 100 6zM386 920.998l49 -66l-192 -120l-29 39z" />
    <glyph glyph-name="sacute" unicode="&#x15b;" horiz-adv-x="508" 
d="M240 499c21.333 0 43.9961 -0.668945 67.9961 -2.00195s47.833 -3 71.5 -5s45.5 -4.66699 65.5 -8l-7 -62c-30.667 1.33301 -61.5 2.5 -92.5 3.5s-61.833 1.5 -92.5 1.5c-30 0.666992 -53.667 0 -71 -2s-29.833 -7.33301 -37.5 -16s-11.5 -23.334 -11.5 -44.001
c0 -25.333 6 -42 18 -50s29.667 -14.667 53 -20l142 -32c38.667 -9.33301 67.167 -23.666 85.5 -42.999s27.5 -49.666 27.5 -90.999c0 -40 -7.5 -70 -22.5 -90s-37.833 -33.333 -68.5 -40s-69.667 -10 -117 -10c-17.333 0 -43.166 0.666992 -77.499 2
s-72.166 5.33301 -113.499 12l6 62c16 -0.666992 33 -1.5 51 -2.5s36.833 -1.5 56.5 -1.5h60.5c36.667 0 65.334 1.66699 86.001 5s35.334 9.83301 44.001 19.5s13 24.167 13 43.5c0 24 -7 40 -21 48s-32.667 14.667 -56 20l-140 32c-26.667 6.66699 -48 15.5 -64 26.5
s-27.667 25.333 -35 43s-11 39.834 -11 66.501c0 38 6.66699 66.667 20 86s34 32.333 62 39s64 9.66699 108 9zM358.996 741.998l49 -66l-192 -120l-29 39z" />
    <glyph glyph-name="Scircumflex" unicode="&#x15c;" horiz-adv-x="561" 
d="M279 702c32.667 -0.666992 66.334 -2.33594 101.001 -5.00293s69.334 -7.66699 104.001 -15l-6 -64c-28.667 1.33301 -60.334 2.5 -95.001 3.5s-68 1.5 -100 1.5c-24.667 0 -45.834 -0.833008 -63.501 -2.5s-32.167 -5.66699 -43.5 -12s-19.5 -16.666 -24.5 -30.999
s-7.5 -34.166 -7.5 -59.499c0 -38 6.83301 -64.5 20.5 -79.5s35.834 -26.167 66.501 -33.5l140 -35c53.333 -12.667 89.833 -34.834 109.5 -66.501s29.5 -74.167 29.5 -127.5c0 -40 -4.5 -72.333 -13.5 -97s-22.833 -43.5 -41.5 -56.5s-42.667 -22 -72 -27
s-64 -7.5 -104 -7.5c-22.667 0 -52.167 1 -88.5 3s-78.166 7.33301 -125.499 16l6 65c39.333 -1.33301 71 -2.5 95 -3.5s44.667 -1.5 62 -1.5h54c35.333 0 63.166 2.66699 83.499 8s34.666 16 42.999 32s12.5 39.667 12.5 71c0 26.667 -3 47.334 -9 62.001
s-15.5 25.834 -28.5 33.501s-29.5 13.834 -49.5 18.501l-143 36c-50 12.667 -85.167 34.667 -105.5 66s-30.5 73.333 -30.5 126c0 40 4.5 72.167 13.5 96.5s22.667 42.666 41 54.999s41.5 20.5 69.5 24.5s61.333 6 100 6zM315 895.998l133 -127l-30 -37l-129 97h-8l-130 -97
l-29 37l132 127h61z" />
    <glyph glyph-name="scircumflex" unicode="&#x15d;" horiz-adv-x="508" 
d="M240 499c21.333 0 43.9961 -0.668945 67.9961 -2.00195s47.833 -3 71.5 -5s45.5 -4.66699 65.5 -8l-7 -62c-30.667 1.33301 -61.5 2.5 -92.5 3.5s-61.833 1.5 -92.5 1.5c-30 0.666992 -53.667 0 -71 -2s-29.833 -7.33301 -37.5 -16s-11.5 -23.334 -11.5 -44.001
c0 -25.333 6 -42 18 -50s29.667 -14.667 53 -20l142 -32c38.667 -9.33301 67.167 -23.666 85.5 -42.999s27.5 -49.666 27.5 -90.999c0 -40 -7.5 -70 -22.5 -90s-37.833 -33.333 -68.5 -40s-69.667 -10 -117 -10c-17.333 0 -43.166 0.666992 -77.499 2
s-72.166 5.33301 -113.499 12l6 62c16 -0.666992 33 -1.5 51 -2.5s36.833 -1.5 56.5 -1.5h60.5c36.667 0 65.334 1.66699 86.001 5s35.334 9.83301 44.001 19.5s13 24.167 13 43.5c0 24 -7 40 -21 48s-32.667 14.667 -56 20l-140 32c-26.667 6.66699 -48 15.5 -64 26.5
s-27.667 25.333 -35 43s-11 39.834 -11 66.501c0 38 6.66699 66.667 20 86s34 32.333 62 39s64 9.66699 108 9zM287.996 715.998l133 -127l-30 -37l-129 97h-8l-130 -97l-29 37l132 127h61z" />
    <glyph glyph-name="Scedilla" unicode="&#x15e;" horiz-adv-x="561" 
d="M279 702c32.667 -0.666992 66.334 -2.33594 101.001 -5.00293s69.334 -7.66699 104.001 -15l-6 -64c-28.667 1.33301 -60.334 2.5 -95.001 3.5s-68 1.5 -100 1.5c-24.667 0 -45.834 -0.833008 -63.501 -2.5s-32.167 -5.66699 -43.5 -12s-19.5 -16.666 -24.5 -30.999
s-7.5 -34.166 -7.5 -59.499c0 -38 6.83301 -64.5 20.5 -79.5s35.834 -26.167 66.501 -33.5l140 -35c53.333 -12.667 89.833 -34.834 109.5 -66.501s29.5 -74.167 29.5 -127.5c0 -40 -4.5 -72.333 -13.5 -97s-22.833 -43.5 -41.5 -56.5s-42.667 -22 -72 -27
s-64 -7.5 -104 -7.5c-22.667 0 -52.167 1 -88.5 3s-78.166 7.33301 -125.499 16l6 65c39.333 -1.33301 71 -2.5 95 -3.5s44.667 -1.5 62 -1.5h54c35.333 0 63.166 2.66699 83.499 8s34.666 16 42.999 32s12.5 39.667 12.5 71c0 26.667 -3 47.334 -9 62.001
s-15.5 25.834 -28.5 33.501s-29.5 13.834 -49.5 18.501l-143 36c-50 12.667 -85.167 34.667 -105.5 66s-30.5 73.333 -30.5 126c0 40 4.5 72.167 13.5 96.5s22.667 42.666 41 54.999s41.5 20.5 69.5 24.5s61.333 6 100 6zM241 -55.002
c26 2.66699 47.1689 2.50098 63.502 -0.499023s28.5 -9.5 36.5 -19.5s11.667 -25 11 -45c-0.666992 -28 -8.33398 -51.833 -23.001 -71.5s-34.334 -33.834 -59.001 -42.501s-53 -11 -85 -7l13 45c27.333 -0.666992 49.5 5.5 66.5 18.5s25.833 29.833 26.5 50.5
c0.666992 12 -3 20.167 -11 24.5s-24 6.83301 -48 7.5z" />
    <glyph glyph-name="scedilla" unicode="&#x15f;" horiz-adv-x="508" 
d="M240 499c21.333 0 43.9961 -0.668945 67.9961 -2.00195s47.833 -3 71.5 -5s45.5 -4.66699 65.5 -8l-7 -62c-30.667 1.33301 -61.5 2.5 -92.5 3.5s-61.833 1.5 -92.5 1.5c-30 0.666992 -53.667 0 -71 -2s-29.833 -7.33301 -37.5 -16s-11.5 -23.334 -11.5 -44.001
c0 -25.333 6 -42 18 -50s29.667 -14.667 53 -20l142 -32c38.667 -9.33301 67.167 -23.666 85.5 -42.999s27.5 -49.666 27.5 -90.999c0 -40 -7.5 -70 -22.5 -90s-37.833 -33.333 -68.5 -40s-69.667 -10 -117 -10c-17.333 0 -43.166 0.666992 -77.499 2
s-72.166 5.33301 -113.499 12l6 62c16 -0.666992 33 -1.5 51 -2.5s36.833 -1.5 56.5 -1.5h60.5c36.667 0 65.334 1.66699 86.001 5s35.334 9.83301 44.001 19.5s13 24.167 13 43.5c0 24 -7 40 -21 48s-32.667 14.667 -56 20l-140 32c-26.667 6.66699 -48 15.5 -64 26.5
s-27.667 25.333 -35 43s-11 39.834 -11 66.501c0 38 6.66699 66.667 20 86s34 32.333 62 39s64 9.66699 108 9zM205.996 -54.002c26 2.66699 47.1689 2.50098 63.502 -0.499023s28.5 -9.5 36.5 -19.5s11.667 -25 11 -45c-0.666992 -28 -8.33398 -51.833 -23.001 -71.5
s-34.334 -33.834 -59.001 -42.501s-53 -11 -85 -7l13 45c27.333 -0.666992 49.5 5.5 66.5 18.5s25.833 29.833 26.5 50.5c0.666992 12 -3 20.167 -11 24.5s-24 6.83301 -48 7.5z" />
    <glyph glyph-name="Scaron" unicode="&#x160;" horiz-adv-x="561" 
d="M279 702c32.667 -0.666992 66.334 -2.33594 101.001 -5.00293s69.334 -7.66699 104.001 -15l-6 -64c-28.667 1.33301 -60.334 2.5 -95.001 3.5s-68 1.5 -100 1.5c-24.667 0 -45.834 -0.833008 -63.501 -2.5s-32.167 -5.66699 -43.5 -12s-19.5 -16.666 -24.5 -30.999
s-7.5 -34.166 -7.5 -59.499c0 -38 6.83301 -64.5 20.5 -79.5s35.834 -26.167 66.501 -33.5l140 -35c53.333 -12.667 89.833 -34.834 109.5 -66.501s29.5 -74.167 29.5 -127.5c0 -40 -4.5 -72.333 -13.5 -97s-22.833 -43.5 -41.5 -56.5s-42.667 -22 -72 -27
s-64 -7.5 -104 -7.5c-22.667 0 -52.167 1 -88.5 3s-78.166 7.33301 -125.499 16l6 65c39.333 -1.33301 71 -2.5 95 -3.5s44.667 -1.5 62 -1.5h54c35.333 0 63.166 2.66699 83.499 8s34.666 16 42.999 32s12.5 39.667 12.5 71c0 26.667 -3 47.334 -9 62.001
s-15.5 25.834 -28.5 33.501s-29.5 13.834 -49.5 18.501l-143 36c-50 12.667 -85.167 34.667 -105.5 66s-30.5 73.333 -30.5 126c0 40 4.5 72.167 13.5 96.5s22.667 42.666 41 54.999s41.5 20.5 69.5 24.5s61.333 6 100 6zM420 910.998l30 -36l-143 -128h-40l-143 128l29 36
l130 -87h8z" />
    <glyph glyph-name="scaron" unicode="&#x161;" horiz-adv-x="508" 
d="M240 499c21.333 0 43.9961 -0.668945 67.9961 -2.00195s47.833 -3 71.5 -5s45.5 -4.66699 65.5 -8l-7 -62c-30.667 1.33301 -61.5 2.5 -92.5 3.5s-61.833 1.5 -92.5 1.5c-30 0.666992 -53.667 0 -71 -2s-29.833 -7.33301 -37.5 -16s-11.5 -23.334 -11.5 -44.001
c0 -25.333 6 -42 18 -50s29.667 -14.667 53 -20l142 -32c38.667 -9.33301 67.167 -23.666 85.5 -42.999s27.5 -49.666 27.5 -90.999c0 -40 -7.5 -70 -22.5 -90s-37.833 -33.333 -68.5 -40s-69.667 -10 -117 -10c-17.333 0 -43.166 0.666992 -77.499 2
s-72.166 5.33301 -113.499 12l6 62c16 -0.666992 33 -1.5 51 -2.5s36.833 -1.5 56.5 -1.5h60.5c36.667 0 65.334 1.66699 86.001 5s35.334 9.83301 44.001 19.5s13 24.167 13 43.5c0 24 -7 40 -21 48s-32.667 14.667 -56 20l-140 32c-26.667 6.66699 -48 15.5 -64 26.5
s-27.667 25.333 -35 43s-11 39.834 -11 66.501c0 38 6.66699 66.667 20 86s34 32.333 62 39s64 9.66699 108 9zM392.996 730.998l30 -36l-143 -128h-40l-143 128l29 36l130 -87h8z" />
    <glyph glyph-name="uni0162" unicode="&#x162;" horiz-adv-x="581" 
d="M334 690v-690h-88v690h88zM557 690v-78h-533v78h533zM247 -43c26 2.66699 47.1689 2.50098 63.502 -0.499023s28.5 -9.5 36.5 -19.5s11.667 -25 11 -45c-0.666992 -28 -8.33398 -51.833 -23.001 -71.5s-34.334 -33.834 -59.001 -42.501s-53 -11 -85 -7l13 45
c27.333 -0.666992 49.5 5.5 66.5 18.5s25.833 29.833 26.5 50.5c0.666992 12 -3 20.167 -11 24.5s-24 6.83301 -48 7.5z" />
    <glyph glyph-name="uni0163" unicode="&#x163;" horiz-adv-x="381" 
d="M200 631v-497.001c0 -23.333 5 -40 15 -50s27 -15 51 -15h74l10 -65c-10.667 -2.66699 -23 -5 -37 -7s-27.667 -3.5 -41 -4.5s-24 -1.5 -32 -1.5c-40.667 0 -71.667 11.333 -93 34s-32 55.334 -32 98.001v508h85zM355 486.999v-67h-328v62l96 5h232zM204 -52.001
c26 2.66699 47.1689 2.50098 63.502 -0.499023s28.5 -9.5 36.5 -19.5s11.667 -25 11 -45c-0.666992 -28 -8.33398 -51.833 -23.001 -71.5s-34.334 -33.834 -59.001 -42.501s-53 -11 -85 -7l13 45c27.333 -0.666992 49.5 5.5 66.5 18.5s25.833 29.833 26.5 50.5
c0.666992 12 -3 20.167 -11 24.5s-24 6.83301 -48 7.5z" />
    <glyph glyph-name="Tcaron" unicode="&#x164;" horiz-adv-x="581" 
d="M334 690v-690h-88v690h88zM557 690v-78h-533v78h533zM425 911l30 -36l-143 -128h-40l-143 128l29 36l130 -87h8z" />
    <glyph glyph-name="tcaron" unicode="&#x165;" horiz-adv-x="381" 
d="M200 631v-497.001c0 -23.333 5 -40 15 -50s27 -15 51 -15h74l10 -65c-10.667 -2.66699 -23 -5 -37 -7s-27.667 -3.5 -41 -4.5s-24 -1.5 -32 -1.5c-40.667 0 -71.667 11.333 -93 34s-32 55.334 -32 98.001v508h85zM355 486.999v-67h-328v62l96 5h232zM323 757.999
c11.333 0 18.833 -2.00293 22.5 -6.00293s5.5 -10.667 5.5 -20v-54c0.666992 -23.333 -2 -45.666 -8 -66.999s-13.667 -41.666 -23 -60.999l-37 9c3.33301 17.333 5.66602 33.333 6.99902 48s2 32.334 2 53.001c-14 0 -21 7.33301 -21 22v50c0 9.33301 2.33301 16 7 20
s12.334 6 23.001 6h22z" />
    <glyph glyph-name="Tbar" unicode="&#x166;" horiz-adv-x="581" 
d="M474 401v-50h-369v50h369zM334 690v-690h-88v690h88zM557 690v-78h-533v78h533z" />
    <glyph glyph-name="tbar" unicode="&#x167;" horiz-adv-x="381" 
d="M330 305v-48h-280v48h280zM200 631v-497.001c0 -23.333 5 -40 15 -50s27 -15 51 -15h74l10 -65c-10.667 -2.66699 -23 -5 -37 -7s-27.667 -3.5 -41 -4.5s-24 -1.5 -32 -1.5c-40.667 0 -71.667 11.333 -93 34s-32 55.334 -32 98.001v508h85zM355 486.999v-67h-328v62l96 5
h232z" />
    <glyph glyph-name="Utilde" unicode="&#x168;" horiz-adv-x="666" 
d="M584 690l-0.000976562 -426c0 -66.667 -8 -120.334 -24 -161.001s-42 -70.167 -78 -88.5s-84.333 -27.5 -145 -27.5c-62 0 -111.667 9.16699 -149 27.5s-64.333 47.833 -81 88.5s-25 94.334 -25 161.001v426h88v-426c0 -49.333 5.16699 -88.5 15.5 -117.5
s27.5 -49.667 51.5 -62s56 -18.5 96 -18.5s71.833 6.16699 95.5 18.5s40.834 33 51.501 62s16 68.167 16 117.5v426h88zM253.999 879c15.333 -1.33301 29.167 -4.50293 41.5 -9.50293s24 -10.667 35 -17s22.333 -12.166 34 -17.499s24.5 -9 38.5 -11
c19.333 -2.66699 32.333 0.333008 39 9s10 22.334 10 41.001h40c4 -37.333 -1.5 -65.833 -16.5 -85.5s-35.5 -28.5 -61.5 -26.5c-22.667 2 -42.167 7.33301 -58.5 16s-31.666 17.334 -45.999 26.001s-29.833 13.667 -46.5 15c-18.667 2 -31.167 -1.5 -37.5 -10.5
s-9.5 -23.5 -9.5 -43.5h-40c-2.66699 26.667 -0.833984 48.667 5.49902 66s16 30 29 38s27.5 11.333 43.5 10z" />
    <glyph glyph-name="utilde" unicode="&#x169;" horiz-adv-x="570" 
d="M160 487l0.000976562 -341.999c-0.666992 -30.667 5 -52.334 17 -65.001s32 -19 60 -19c27.333 0 54.5 6.5 81.5 19.5s59.5 31.833 97.5 56.5l11 -59c-38 -30 -74.833 -52.667 -110.5 -68s-71.834 -23 -108.501 -23c-88.667 0 -133 44.667 -133 134v366h85z
M492.001 487.001v-487h-68l-8 92l-9 15v380h85zM205.001 703.001c15.333 -1.33301 29.167 -4.50293 41.5 -9.50293s24 -10.667 35 -17s22.333 -12.166 34 -17.499s24.5 -9 38.5 -11c19.333 -2.66699 32.333 0.333008 39 9s10 22.334 10 41.001h40
c4 -37.333 -1.5 -65.833 -16.5 -85.5s-35.5 -28.5 -61.5 -26.5c-22.667 2 -42.167 7.33301 -58.5 16s-31.666 17.334 -45.999 26.001s-29.833 13.667 -46.5 15c-18.667 2 -31.167 -1.5 -37.5 -10.5s-9.5 -23.5 -9.5 -43.5h-40c-2.66699 26.667 -0.833984 48.667 5.49902 66
s16 30 29 38s27.5 11.333 43.5 10z" />
    <glyph glyph-name="Umacron" unicode="&#x16a;" horiz-adv-x="666" 
d="M584 690l-0.000976562 -426c0 -66.667 -8 -120.334 -24 -161.001s-42 -70.167 -78 -88.5s-84.333 -27.5 -145 -27.5c-62 0 -111.667 9.16699 -149 27.5s-64.333 47.833 -81 88.5s-25 94.334 -25 161.001v426h88v-426c0 -49.333 5.16699 -88.5 15.5 -117.5
s27.5 -49.667 51.5 -62s56 -18.5 96 -18.5s71.833 6.16699 95.5 18.5s40.834 33 51.501 62s16 68.167 16 117.5v426h88zM472.999 849v-63h-278v63h278z" />
    <glyph glyph-name="umacron" unicode="&#x16b;" horiz-adv-x="570" 
d="M160 487l0.000976562 -341.999c-0.666992 -30.667 5 -52.334 17 -65.001s32 -19 60 -19c27.333 0 54.5 6.5 81.5 19.5s59.5 31.833 97.5 56.5l11 -59c-38 -30 -74.833 -52.667 -110.5 -68s-71.834 -23 -108.501 -23c-88.667 0 -133 44.667 -133 134v366h85z
M492.001 487.001v-487h-68l-8 92l-9 15v380h85zM424.001 672.001v-63h-278v63h278z" />
    <glyph glyph-name="Ubreve" unicode="&#x16c;" horiz-adv-x="666" 
d="M584 690l-0.000976562 -426c0 -66.667 -8 -120.334 -24 -161.001s-42 -70.167 -78 -88.5s-84.333 -27.5 -145 -27.5c-62 0 -111.667 9.16699 -149 27.5s-64.333 47.833 -81 88.5s-25 94.334 -25 161.001v426h88v-426c0 -49.333 5.16699 -88.5 15.5 -117.5
s27.5 -49.667 51.5 -62s56 -18.5 96 -18.5s71.833 6.16699 95.5 18.5s40.834 33 51.501 62s16 68.167 16 117.5v426h88zM439.999 883l44.002 -6c2 -26 -3 -48.833 -15 -68.5s-29.333 -35.167 -52 -46.5s-50.334 -17 -83.001 -17c-32 0 -59.5 5.66699 -82.5 17
s-40.333 26.833 -52 46.5s-16.834 42.5 -15.501 68.5l44 6c-0.666992 -23.333 8.33301 -41.666 27 -54.999s45.334 -20 80.001 -20c33.333 0 59.166 6.66699 77.499 20s27.5 31.666 27.5 54.999z" />
    <glyph glyph-name="ubreve" unicode="&#x16d;" horiz-adv-x="570" 
d="M160 487l0.000976562 -341.999c-0.666992 -30.667 5 -52.334 17 -65.001s32 -19 60 -19c27.333 0 54.5 6.5 81.5 19.5s59.5 31.833 97.5 56.5l11 -59c-38 -30 -74.833 -52.667 -110.5 -68s-71.834 -23 -108.501 -23c-88.667 0 -133 44.667 -133 134v366h85z
M492.001 487.001v-487h-68l-8 92l-9 15v380h85zM390.001 707.001l44.002 -6c2 -26 -3 -48.833 -15 -68.5s-29.333 -35.167 -52 -46.5s-50.334 -17 -83.001 -17c-32 0 -59.5 5.66699 -82.5 17s-40.333 26.833 -52 46.5s-16.834 42.5 -15.501 68.5l44 6
c-0.666992 -23.333 8.33301 -41.666 27 -54.999s45.334 -20 80.001 -20c33.333 0 59.166 6.66699 77.499 20s27.5 31.666 27.5 54.999z" />
    <glyph glyph-name="Uring" unicode="&#x16e;" horiz-adv-x="666" 
d="M584 690l-0.000976562 -426c0 -66.667 -8 -120.334 -24 -161.001s-42 -70.167 -78 -88.5s-84.333 -27.5 -145 -27.5c-62 0 -111.667 9.16699 -149 27.5s-64.333 47.833 -81 88.5s-25 94.334 -25 161.001v426h88v-426c0 -49.333 5.16699 -88.5 15.5 -117.5
s27.5 -49.667 51.5 -62s56 -18.5 96 -18.5s71.833 6.16699 95.5 18.5s40.834 33 51.501 62s16 68.167 16 117.5v426h88zM333.999 932c19.333 0 37.167 -4.66699 53.5 -14s29.333 -21.833 39 -37.5s14.5 -33.5 14.5 -53.5c0 -19.333 -4.83301 -37 -14.5 -53
s-22.5 -28.667 -38.5 -38s-34 -14 -54 -14c-19.333 0 -37.166 4.66699 -53.499 14s-29.333 21.833 -39 37.5s-14.5 33.5 -14.5 53.5s4.83301 37.833 14.5 53.5s22.667 28.167 39 37.5s34.166 14 53.499 14zM334 888c-16.667 0 -30.667 -5.5 -42 -16.5s-17 -25.833 -17 -44.5
s5.66699 -33.5 17 -44.5s25.333 -16.5 42 -16.5c17.333 0 31.666 5.5 42.999 16.5s17 25.833 17 44.5s-5.66699 33.5 -17 44.5s-25.666 16.5 -42.999 16.5z" />
    <glyph glyph-name="uring" unicode="&#x16f;" horiz-adv-x="570" 
d="M160 487l0.000976562 -341.999c-0.666992 -30.667 5 -52.334 17 -65.001s32 -19 60 -19c27.333 0 54.5 6.5 81.5 19.5s59.5 31.833 97.5 56.5l11 -59c-38 -30 -74.833 -52.667 -110.5 -68s-71.834 -23 -108.501 -23c-88.667 0 -133 44.667 -133 134v366h85z
M492.001 487.001v-487h-68l-8 92l-9 15v380h85zM285.001 755.001c19.333 0 37.167 -4.66699 53.5 -14s29.333 -21.833 39 -37.5s14.5 -33.5 14.5 -53.5c0 -19.333 -4.83301 -37 -14.5 -53s-22.5 -28.667 -38.5 -38s-34 -14 -54 -14c-19.333 0 -37.166 4.66699 -53.499 14
s-29.333 21.833 -39 37.5s-14.5 33.5 -14.5 53.5s4.83301 37.833 14.5 53.5s22.667 28.167 39 37.5s34.166 14 53.499 14zM285.002 711.001c-16.667 0 -30.667 -5.5 -42 -16.5s-17 -25.833 -17 -44.5s5.66699 -33.5 17 -44.5s25.333 -16.5 42 -16.5
c17.333 0 31.666 5.5 42.999 16.5s17 25.833 17 44.5s-5.66699 33.5 -17 44.5s-25.666 16.5 -42.999 16.5z" />
    <glyph glyph-name="Uhungarumlaut" unicode="&#x170;" horiz-adv-x="666" 
d="M584 690l-0.000976562 -426c0 -66.667 -8 -120.334 -24 -161.001s-42 -70.167 -78 -88.5s-84.333 -27.5 -145 -27.5c-62 0 -111.667 9.16699 -149 27.5s-64.333 47.833 -81 88.5s-25 94.334 -25 161.001v426h88v-426c0 -49.333 5.16699 -88.5 15.5 -117.5
s27.5 -49.667 51.5 -62s56 -18.5 96 -18.5s71.833 6.16699 95.5 18.5s40.834 33 51.501 62s16 68.167 16 117.5v426h88zM304.999 931l62 -42l-134 -160l-38 28zM468.999 931l62 -42l-134 -160l-38 28z" />
    <glyph glyph-name="uhungarumlaut" unicode="&#x171;" horiz-adv-x="570" 
d="M160 487l0.000976562 -341.999c-0.666992 -30.667 5 -52.334 17 -65.001s32 -19 60 -19c27.333 0 54.5 6.5 81.5 19.5s59.5 31.833 97.5 56.5l11 -59c-38 -30 -74.833 -52.667 -110.5 -68s-71.834 -23 -108.501 -23c-88.667 0 -133 44.667 -133 134v366h85z
M492.001 487.001v-487h-68l-8 92l-9 15v380h85zM256.001 754.001l62 -42l-134 -160l-38 28zM420.001 754.001l62 -42l-134 -160l-38 28z" />
    <glyph glyph-name="Uogonek" unicode="&#x172;" horiz-adv-x="666" 
d="M584 690l-0.000976562 -426c0 -66.667 -8 -120.334 -24 -161.001s-42 -70.167 -78 -88.5s-84.333 -27.5 -145 -27.5c-62 0 -111.667 9.16699 -149 27.5s-64.333 47.833 -81 88.5s-25 94.334 -25 161.001v426h88v-426c0 -49.333 5.16699 -88.5 15.5 -117.5
s27.5 -49.667 51.5 -62s56 -18.5 96 -18.5s71.833 6.16699 95.5 18.5s40.834 33 51.501 62s16 68.167 16 117.5v426h88zM335.999 -7l38.001 -2.00195c-14.667 -16.667 -28.5 -34.167 -41.5 -52.5s-23.833 -38.833 -32.5 -61.5c-10 -24.667 -7.33301 -40.667 8 -48
s38.666 -6 69.999 4l10 -35c-31.333 -13.333 -57.833 -20.166 -79.5 -20.499s-38.667 3.83398 -51 12.501s-19.833 20.5 -22.5 35.5s-1 31.167 5 48.5c5.33301 16.667 15.5 35 30.5 55s36.833 41.333 65.5 64z" />
    <glyph glyph-name="uogonek" unicode="&#x173;" horiz-adv-x="570" 
d="M160 487l0.000976562 -341.999c-0.666992 -30.667 5 -52.334 17 -65.001s32 -19 60 -19c27.333 0 54.5 6.5 81.5 19.5s59.5 31.833 97.5 56.5l11 -59c-38 -30 -74.833 -52.667 -110.5 -68s-71.834 -23 -108.501 -23c-88.667 0 -133 44.667 -133 134v366h85z
M492.001 487.001v-487h-68l-8 92l-9 15v380h85zM456.001 2.00098l38.001 -2.00195c-14.667 -16.667 -28.5 -34.167 -41.5 -52.5s-23.833 -38.833 -32.5 -61.5c-10 -24.667 -7.33301 -40.667 8 -48s38.666 -6 69.999 4l10 -35c-31.333 -13.333 -57.833 -20.166 -79.5 -20.499
s-38.667 3.83398 -51 12.501s-19.833 20.5 -22.5 35.5s-1 31.167 5 48.5c5.33301 16.667 15.5 35 30.5 55s36.833 41.333 65.5 64z" />
    <glyph glyph-name="Wcircumflex" unicode="&#x174;" horiz-adv-x="948" 
d="M917 690l-139.999 -664c-2 -7.33301 -6 -13.5 -12 -18.5s-13.667 -7.5 -23 -7.5h-100c-8.66699 0 -16.167 2.5 -22.5 7.5s-10.166 11.5 -11.499 19.5l-108 519l-8 39.5l-8 38.5h-21c-2.66699 -12.667 -5.16699 -25.667 -7.5 -39s-4.83301 -26.333 -7.5 -39l-107 -519
c-2 -8 -6.16699 -14.5 -12.5 -19.5s-13.833 -7.5 -22.5 -7.5h-101c-8.66699 0 -16.167 2.5 -22.5 7.5s-10.166 11.167 -11.499 18.5l-140 664h93l108 -538c2.66699 -12.667 5 -26.167 7 -40.5s4.33301 -29.166 7 -44.499h23l8 44l8 41l107 509
c1.33301 8.66699 5.16602 15.667 11.499 21s13.833 8 22.5 8h96c8.66699 0 16 -2.66699 22 -8s10 -12.333 12 -21l107 -509c3.33301 -14.667 6.16602 -29 8.49902 -43s4.16602 -28 5.49902 -42h25l6 42.5c2 14.333 4.33301 28.166 7 41.499l109 539h93zM505.001 896
l133 -127l-30 -37l-129 97h-8l-130 -97l-29 37l132 127h61z" />
    <glyph glyph-name="wcircumflex" unicode="&#x175;" horiz-adv-x="824" 
d="M799 487l-142.003 -463.002c-2 -7.33301 -6 -13.166 -12 -17.499s-13 -6.5 -21 -6.5h-77c-8 0 -15.167 2.5 -21.5 7.5s-10.166 11.5 -11.499 19.5l-80 331c-2.66699 12.667 -5.16699 25.334 -7.5 38.001s-5.16602 25.667 -8.49902 39h-12
c-2.66699 -13.333 -5.5 -26.333 -8.5 -39s-5.83301 -25.334 -8.5 -38.001l-79 -331c-2 -8 -6 -14.5 -12 -19.5s-13.333 -7.5 -22 -7.5h-76c-8 0 -15 2.16699 -21 6.5s-10 10.166 -12 17.499l-142 463h88l101 -359c3.33301 -12 6.33301 -24.167 9 -36.5s5 -24.5 7 -36.5h13
c3.33301 12 6.5 24.167 9.5 36.5l8.5 36.5l81 332c1.33301 8 4.83301 14.5 10.5 19.5s12.834 7.5 21.501 7.5h77c8 0 14.833 -2.5 20.5 -7.5s9.5 -11.833 11.5 -20.5l80 -331c2.66699 -12 5.5 -24 8.5 -36s5.83301 -24.333 8.5 -37h13c3.33301 12.667 6 24.834 8 36.501
s5 23.834 9 36.501l101 359h88zM442.997 715.998l133 -127l-30 -37l-129 97h-8l-130 -97l-29 37l132 127h61z" />
    <glyph glyph-name="Ycircumflex" unicode="&#x176;" horiz-adv-x="569" 
d="M557 690l-232.999 -456h-79l-234 456h94l145 -291c6 -12.667 11.5 -25.667 16.5 -39l14.5 -39h7l15 39c5.33301 13.333 10.666 26 15.999 38l145 292h93zM328.001 296v-296h-88v296h88zM316.001 886l133 -127l-30 -37l-129 97h-8l-130 -97l-29 37l132 127h61z" />
    <glyph glyph-name="ycircumflex" unicode="&#x177;" horiz-adv-x="529" 
d="M510 487l-194.998 -514c-8 -21.333 -18 -42.333 -30 -63s-26.5 -39.5 -43.5 -56.5s-37 -30.833 -60 -41.5s-49.5 -16.667 -79.5 -18l-8 56c39.333 12.667 69.666 29.667 90.999 51s38.333 47.333 51 78l24 58c5.33301 13.333 10.666 28 15.999 44s10.333 30.333 15 43
l127 363h92zM109.002 487l129.001 -363l10 -29.5c3.33301 -9.66699 6 -19.5 8 -29.5h23l-28 -65h-26c-6.66699 0 -12.834 2 -18.501 6s-9.5 9.33301 -11.5 16l-177 465h91zM297.003 716l133 -127l-30 -37l-129 97h-8l-130 -97l-29 37l132 127h61z" />
    <glyph glyph-name="Ydieresis" unicode="&#x178;" horiz-adv-x="569" 
d="M557 690l-232.999 -456h-79l-234 456h94l145 -291c6 -12.667 11.5 -25.667 16.5 -39l14.5 -39h7l15 39c5.33301 13.333 10.666 26 15.999 38l145 292h93zM328.001 296v-296h-88v296h88zM388.001 860c16 0 24 -8 24 -24v-55c0 -16 -8 -24 -24 -24h-28c-16 0 -24 8 -24 24
v55c0 16 8 24 24 24h28zM211.001 860c15.333 0 23 -8 23 -24v-55c0 -16 -7.66699 -24 -23 -24h-29c-15.333 0 -23 8 -23 24v55c0 16 7.66699 24 23 24h29z" />
    <glyph glyph-name="Zacute" unicode="&#x179;" horiz-adv-x="566" 
d="M416 616l96 -1l-367 -541l-97 1zM519 75v-75h-471v75h471zM512 690v-75h-458v75h458zM382 921l49 -66l-192 -120l-29 39z" />
    <glyph glyph-name="zacute" unicode="&#x17a;" horiz-adv-x="510" 
d="M363 418l95 -1l-314 -349l-95 1zM461 69v-69h-412v69h412zM458 487v-70h-406v70h406zM355 742l49 -66l-192 -120l-29 39z" />
    <glyph glyph-name="Zdotaccent" unicode="&#x17b;" horiz-adv-x="566" 
d="M416 616l96 -1l-367 -541l-97 1zM519 75v-75h-471v75h471zM512 690v-75h-458v75h458zM295 867c17.333 0 26 -8.33301 26 -25v-57c0 -17.333 -8.66699 -26 -26 -26h-27c-17.333 0 -26 8.66699 -26 26v57c0 16.667 8.66699 25 26 25h27z" />
    <glyph glyph-name="zdotaccent" unicode="&#x17c;" horiz-adv-x="510" 
d="M363 418l95 -1l-314 -349l-95 1zM461 69v-69h-412v69h412zM458 487v-70h-406v70h406zM268 687c17.333 0 26 -8.33301 26 -25v-57c0 -17.333 -8.66699 -26 -26 -26h-27c-17.333 0 -26 8.66699 -26 26v57c0 16.667 8.66699 25 26 25h27z" />
    <glyph glyph-name="Zcaron" unicode="&#x17d;" horiz-adv-x="566" 
d="M416 616l96 -1l-367 -541l-97 1zM519 75v-75h-471v75h471zM512 690v-75h-458v75h458zM416 911l30 -36l-143 -128h-40l-143 128l29 36l130 -87h8z" />
    <glyph glyph-name="zcaron" unicode="&#x17e;" horiz-adv-x="510" 
d="M363 418l95 -1l-314 -349l-95 1zM461 69v-69h-412v69h412zM458 487v-70h-406v70h406zM389 731l30 -36l-143 -128h-40l-143 128l29 36l130 -87h8z" />
    </font>
</defs>
</svg>
