<svg width="100" height="100" viewBox="0 0 100 100" fill="none" xmlns="http://www.w3.org/2000/svg">
<path d="M44.5703 3.41796C38.6914 4.37499 33.75 6.28905 29.0039 9.47265C20.8594 14.9219 15.2344 23.3398 13.1641 33.1055C12.5 36.2695 12.3047 41.7773 12.7734 44.4727C14.3359 53.4961 21.9726 66.543 34.3555 81.3477C39.5312 87.5195 47.4023 96.0547 48.457 96.582C49.1601 96.9531 50.8398 96.9531 51.543 96.582C52.168 96.2695 56.875 91.3867 60.6836 87.1094C75.8984 70 85.4492 54.668 87.2266 44.4727C87.6953 41.7773 87.5 36.2695 86.8359 33.1055C84.0625 19.9609 74.8047 9.43359 62.207 5.09765C58.0273 3.65234 55.8398 3.28124 50.6836 3.22265C47.5391 3.16405 45.7031 3.22265 44.5703 3.41796ZM52.0703 19.7266C52.7148 20.1562 55.8203 22.4609 58.9844 24.8437C62.8711 27.793 64.8633 29.4141 65.1367 29.8828C65.5078 30.5469 65.5273 30.8789 65.5273 40.625C65.5273 50.332 65.5078 50.7031 65.1367 51.3477C64.6289 52.207 63.9258 52.7148 62.9687 52.9297C61.9726 53.1641 38.0273 53.1641 37.0312 52.9297C36.0742 52.7148 35.3711 52.207 34.8633 51.3477C34.4922 50.7031 34.4726 50.332 34.4726 40.625C34.4726 30.8789 34.4922 30.5469 34.8633 29.8828C35.1367 29.4141 37.1289 27.793 41.0156 24.8437C48.75 19.0234 48.8476 18.9453 50 18.9453C50.7617 18.9453 51.1328 19.082 52.0703 19.7266Z" fill="white"/>
<path d="M45.1758 29.2383L40.625 32.6562V39.7656V46.875H43.7305H46.8359L46.9141 43.3984C46.9727 40.332 47.0117 39.8633 47.3828 39.2578C48.6133 37.168 51.3867 37.168 52.6172 39.2578C52.9883 39.8633 53.0273 40.332 53.0859 43.3984L53.1641 46.875H56.2695H59.375V39.7656V32.6562L54.7852 29.2188C52.2656 27.3242 50.0977 25.7812 49.9609 25.8008C49.8242 25.8008 47.6562 27.3438 45.1758 29.2383Z" fill="white"/>
</svg>
