<svg width="100" height="100" viewBox="0 0 100 100" fill="none" xmlns="http://www.w3.org/2000/svg">
<path d="M7.05078 3.12497C3.69141 3.78577 0.839844 6.66218 0.195312 10.0828C0.078125 10.763 0 19.9559 0 36.1648V61.2168H8.88672H17.7734V56.5523C17.7734 52.2377 17.8125 51.8102 18.1641 51.1105C18.8281 49.8278 19.6289 49.5557 22.6562 49.5557H25.1953L25.6836 48.4673C25.957 47.8648 26.1719 47.2623 26.1719 47.1457C26.1719 47.0291 25.4102 46.1739 24.4922 45.2799C23.5742 44.3665 22.6953 43.3947 22.5391 43.1032C22.207 42.4813 22.1875 41.4512 22.4609 40.6738C22.7344 39.9547 31.3672 31.3255 32.168 30.9756C32.9883 30.6258 34.0625 30.6258 34.7266 30.9756C35.0195 31.1311 35.9961 32.0057 36.9141 32.9191C37.8125 33.8326 38.6719 34.5906 38.7891 34.5906C38.9062 34.5906 39.5117 34.3768 40.1172 34.1047L41.2109 33.6188V31.0922C41.2109 28.0798 41.4844 27.2829 42.7734 26.6221C43.4961 26.2529 43.9062 26.2334 50 26.2334C56.0938 26.2334 56.5039 26.2529 57.2266 26.6221C58.5156 27.2829 58.7891 28.0798 58.7891 31.0922V33.6188L59.8828 34.1047C60.4883 34.3768 61.0938 34.5906 61.2109 34.5906C61.3281 34.5906 62.1875 33.8326 63.0859 32.9191C64.0039 32.0057 64.9805 31.1311 65.2734 30.9756C65.9375 30.6258 67.0117 30.6258 67.832 30.9756C68.6328 31.3255 77.2656 39.9547 77.5391 40.6738C77.8125 41.4512 77.793 42.4813 77.4609 43.1032C77.3047 43.3947 76.4258 44.3665 75.5078 45.2799C74.5898 46.1739 73.8281 47.0291 73.8281 47.1457C73.8281 47.2623 74.043 47.8648 74.3164 48.4673L74.8047 49.5557H77.3438C80.3711 49.5557 81.1719 49.8278 81.8359 51.1105C82.1875 51.8102 82.2266 52.2377 82.2266 56.5523V61.2168H91.1133H100V36.1648C100 20.2668 99.9219 10.7436 99.8047 10.0828C99.375 7.76998 97.6758 5.45719 95.5078 4.19391C93.2812 2.91118 97.0312 3.00836 50.3906 2.98892C26.9727 2.96949 7.51953 3.02779 7.05078 3.12497ZM80.8789 14.7667C85.4688 15.6412 88.6719 20.1113 87.9297 24.6009C87.3047 28.4102 84.4141 31.2866 80.5859 31.9085C74.9414 32.8414 69.7266 27.6522 70.6641 22.0354C71.4844 17.1378 76.0742 13.8726 80.8789 14.7667Z" fill="white"/>
<path d="M77.8906 20.811C77.0508 21.2386 76.3672 22.3852 76.3672 23.3181C76.3672 24.2899 77.0508 25.3977 77.9297 25.8447C78.3398 26.0585 78.9648 26.2334 79.2969 26.2334C80.2734 26.2334 81.3867 25.5532 81.8359 24.6786C82.0508 24.2704 82.2266 23.6485 82.2266 23.3181C82.2266 22.3464 81.543 21.2386 80.6641 20.7915C79.707 20.3057 78.8281 20.3057 77.8906 20.811Z" fill="white"/>
<path d="M47.0703 34.1047C47.0703 37.3309 46.6797 37.9917 44.2578 38.7886C43.3984 39.0801 41.7773 39.7409 40.6836 40.2462C37.793 41.6261 37.4023 41.5678 35.0586 39.2356L33.4961 37.7002L31.3867 39.7992L29.2969 41.8788L30.7812 43.3364C32.2852 44.8135 32.8125 45.6492 32.8125 46.5432C32.8125 46.8153 32.3828 47.9426 31.8555 49.0309C31.3477 50.1193 30.6836 51.7324 30.3906 52.5876C29.5898 54.9975 28.9258 55.3862 25.6836 55.3862H23.6328V58.3015V61.2168H29.6875H35.7422L35.6055 60.3811C35.3711 59.1178 35.4492 56.1831 35.7422 54.9975C37.0117 49.7306 41.3281 45.4354 46.6797 44.0944C47.2852 43.9389 48.7305 43.8223 50 43.8223C52.4023 43.8223 53.6719 44.0555 55.5664 44.8524C59.8438 46.6598 63.1836 50.5469 64.2578 54.9975C64.5508 56.1831 64.6289 59.1178 64.3945 60.3811L64.2578 61.2168H70.3125H76.3672V58.3015V55.3862H74.3164C71.0742 55.3862 70.4102 54.9975 69.6094 52.5876C69.3164 51.7324 68.6523 50.1193 68.1445 49.0309C67.6172 47.9426 67.1875 46.8153 67.1875 46.5432C67.1875 45.6492 67.7148 44.8135 69.2188 43.3364L70.7031 41.8788L68.6133 39.7992L66.5039 37.7002L64.9414 39.2356C62.5977 41.5678 62.207 41.6261 59.3164 40.2462C58.2227 39.7409 56.6016 39.0801 55.7422 38.7886C53.3203 37.9917 52.9297 37.3309 52.9297 34.1047V32.064H50H47.0703V34.1047Z" fill="white"/>
<path d="M48.2617 49.7695C43.7109 50.6635 40.4687 55.464 41.4258 59.8563L41.6992 61.1196H50H58.3008L58.5742 59.8563C59.3555 56.2608 57.2656 52.1017 53.8672 50.5274C51.9336 49.6334 50.1953 49.3808 48.2617 49.7695Z" fill="white"/>
<path d="M0 68.7771C0 69.71 0.0976562 70.9538 0.195312 71.5369C0.859375 75.0352 3.71094 77.8728 7.24609 78.5141C7.94922 78.6502 22.5 78.6891 50.5859 78.6696C96.9922 78.6113 93.2812 78.7085 95.5078 77.4258C97.6758 76.1625 99.375 73.8497 99.8047 71.5369C99.9023 70.9733 100 69.71 100 68.7771V67.0474H50H0V68.7771Z" fill="white"/>
<path d="M31.3086 87.396L30.332 90.2725L25.0781 90.3696C20.5469 90.4474 19.7461 90.5057 19.1992 90.8166C18.457 91.2053 17.7734 92.4103 17.7734 93.2849C17.7734 94.2567 18.457 95.3645 19.3359 95.8115C20.0977 96.2002 20.4297 96.2002 50 96.2002C79.5703 96.2002 79.9023 96.2002 80.6641 95.8115C81.543 95.3645 82.2266 94.2567 82.2266 93.2849C82.2266 92.4103 81.543 91.2053 80.8008 90.8166C80.2539 90.5057 79.4531 90.4474 74.9219 90.3696L69.668 90.2725L68.6914 87.396L67.7344 84.5391H50H32.2656L31.3086 87.396Z" fill="white"/>
</svg>
