<svg width="100" height="101" viewBox="0 0 100 101" fill="none" xmlns="http://www.w3.org/2000/svg">
<path d="M7.05078 3.4635C3.69141 4.12756 0.839844 7.01818 0.195312 10.4557C0.078125 11.1393 0 20.3776 0 36.6666V61.8424H8.88672H17.7734V57.1549C17.7734 52.819 17.8125 52.3893 18.1641 51.6862C18.8281 50.3971 19.6289 50.1237 22.6562 50.1237H25.1953L25.6836 49.0299C25.957 48.4244 26.1719 47.819 26.1719 47.7018C26.1719 47.5846 25.4102 46.7252 24.4922 45.8268C23.5742 44.9088 22.6953 43.9322 22.5391 43.6393C22.207 43.0143 22.1875 41.9791 22.4609 41.1979C22.7344 40.4752 31.3672 31.8033 32.168 31.4518C32.9883 31.1002 34.0625 31.1002 34.7266 31.4518C35.0195 31.608 35.9961 32.4869 36.9141 33.4049C37.8125 34.3229 38.6719 35.0846 38.7891 35.0846C38.9062 35.0846 39.5117 34.8697 40.1172 34.5963L41.2109 34.108V31.569C41.2109 28.5416 41.4844 27.7408 42.7734 27.0768C43.4961 26.7057 43.9062 26.6862 50 26.6862C56.0938 26.6862 56.5039 26.7057 57.2266 27.0768C58.5156 27.7408 58.7891 28.5416 58.7891 31.569V34.108L59.8828 34.5963C60.4883 34.8697 61.0938 35.0846 61.2109 35.0846C61.3281 35.0846 62.1875 34.3229 63.0859 33.4049C64.0039 32.4869 64.9805 31.608 65.2734 31.4518C65.9375 31.1002 67.0117 31.1002 67.832 31.4518C68.6328 31.8033 77.2656 40.4752 77.5391 41.1979C77.8125 41.9791 77.793 43.0143 77.4609 43.6393C77.3047 43.9322 76.4258 44.9088 75.5078 45.8268C74.5898 46.7252 73.8281 47.5846 73.8281 47.7018C73.8281 47.819 74.043 48.4244 74.3164 49.0299L74.8047 50.1237H77.3438C80.3711 50.1237 81.1719 50.3971 81.8359 51.6862C82.1875 52.3893 82.2266 52.819 82.2266 57.1549V61.8424H91.1133H100V36.6666C100 20.6901 99.9219 11.1197 99.8047 10.4557C99.375 8.13147 97.6758 5.80725 95.5078 4.53772C93.2812 3.24865 97.0312 3.34631 50.3906 3.32678C26.9727 3.30725 7.51953 3.36584 7.05078 3.4635ZM80.8789 15.1627C85.4688 16.0416 88.6719 20.5338 87.9297 25.0455C87.3047 28.8737 84.4141 31.7643 80.5859 32.3893C74.9414 33.3268 69.7266 28.1119 70.6641 22.4674C71.4844 17.5455 76.0742 14.2643 80.8789 15.1627Z" fill="white"/>
<path d="M77.8906 21.2369C77.0508 21.6666 76.3672 22.819 76.3672 23.7565C76.3672 24.733 77.0508 25.8463 77.9297 26.2955C78.3398 26.5104 78.9648 26.6862 79.2969 26.6862C80.2734 26.6862 81.3867 26.0026 81.8359 25.1237C82.0508 24.7135 82.2266 24.0885 82.2266 23.7565C82.2266 22.7799 81.543 21.6666 80.6641 21.2174C79.707 20.7291 78.8281 20.7291 77.8906 21.2369Z" fill="white"/>
<path d="M47.0703 34.5963C47.0703 37.8385 46.6797 38.5026 44.2578 39.3033C43.3984 39.5963 41.7773 40.2604 40.6836 40.7682C37.793 42.1549 37.4023 42.0963 35.0586 39.7526L33.4961 38.2096L31.3867 40.319L29.2969 42.4088L30.7812 43.8737C32.2852 45.358 32.8125 46.1979 32.8125 47.0963C32.8125 47.3698 32.3828 48.5026 31.8555 49.5963C31.3477 50.6901 30.6836 52.3112 30.3906 53.1705C29.5898 55.5924 28.9258 55.983 25.6836 55.983H23.6328V58.9127V61.8424H29.6875H35.7422L35.6055 61.0026C35.3711 59.733 35.4492 56.7838 35.7422 55.5924C37.0117 50.2994 41.3281 45.983 46.6797 44.6354C47.2852 44.4791 48.7305 44.3619 50 44.3619C52.4023 44.3619 53.6719 44.5963 55.5664 45.3971C59.8438 47.2135 63.1836 51.1198 64.2578 55.5924C64.5508 56.7838 64.6289 59.733 64.3945 61.0026L64.2578 61.8424H70.3125H76.3672V58.9127V55.983H74.3164C71.0742 55.983 70.4102 55.5924 69.6094 53.1705C69.3164 52.3112 68.6523 50.6901 68.1445 49.5963C67.6172 48.5026 67.1875 47.3698 67.1875 47.0963C67.1875 46.1979 67.7148 45.358 69.2188 43.8737L70.7031 42.4088L68.6133 40.319L66.5039 38.2096L64.9414 39.7526C62.5977 42.0963 62.207 42.1549 59.3164 40.7682C58.2227 40.2604 56.6016 39.5963 55.7422 39.3033C53.3203 38.5026 52.9297 37.8385 52.9297 34.5963V32.5455H50H47.0703V34.5963Z" fill="white"/>
<path d="M48.2617 50.3385C43.7109 51.2369 40.4687 56.0612 41.4258 60.4752L41.6992 61.7448H50H58.3008L58.5742 60.4752C59.3555 56.8619 57.2656 52.6823 53.8672 51.1002C51.9336 50.2018 50.1953 49.9479 48.2617 50.3385Z" fill="white"/>
<path d="M0 69.4401C0 70.3776 0.0976562 71.6276 0.195312 72.2135C0.859375 75.7292 3.71094 78.5807 7.24609 79.2253C7.94922 79.362 22.5 79.401 50.5859 79.3815C96.9922 79.3229 93.2812 79.4206 95.5078 78.1315C97.6758 76.862 99.375 74.5378 99.8047 72.2135C99.9023 71.6471 100 70.3776 100 69.4401V67.7018H50H0V69.4401Z" fill="white"/>
<path d="M31.3086 88.151L30.332 91.0416L25.0781 91.1393C20.5469 91.2174 19.7461 91.276 19.1992 91.5885C18.457 91.9791 17.7734 93.1901 17.7734 94.069C17.7734 95.0455 18.457 96.1588 19.3359 96.608C20.0977 96.9987 20.4297 96.9987 50 96.9987C79.5703 96.9987 79.9023 96.9987 80.6641 96.608C81.543 96.1588 82.2266 95.0455 82.2266 94.069C82.2266 93.1901 81.543 91.9791 80.8008 91.5885C80.2539 91.276 79.4531 91.2174 74.9219 91.1393L69.668 91.0416L68.6914 88.151L67.7344 85.2799H50H32.2656L31.3086 88.151Z" fill="white"/>
</svg>
