<svg width="75" height="53" viewBox="0 0 75 53" fill="none" xmlns="http://www.w3.org/2000/svg">
<g clip-path="url(#clip0_10_16)">
<path d="M42.0319 0.443081C41.295 0.814144 40.5232 1.65934 40.1547 2.46331C40.0144 2.77253 37.3303 13.0592 34.2077 25.325C30.1201 41.3632 28.5237 47.8774 28.5237 48.5989C28.5237 50.8871 30.2429 52.8867 32.2078 52.8867C33.4708 52.8867 34.9094 51.8766 35.4708 50.5573C35.6286 50.2275 38.3127 39.9407 41.4354 27.675C45.365 12.2553 47.1193 5.1226 47.1193 4.46294C47.1018 1.41197 44.3651 -0.752571 42.0319 0.443081Z" fill="white"/>
<path d="M17.922 4.64846C17.6062 4.73092 17.0974 4.9783 16.7817 5.22567C16.4484 5.47305 12.6941 9.7609 8.43118 14.7909C3.13319 21.0165 0.589446 24.1705 0.396473 24.6859C0.0631549 25.6754 0.0631549 27.3246 0.396473 28.3141C0.72979 29.2417 15.8168 47.094 16.8869 47.8362C18.4658 48.9081 20.0622 48.6607 21.3604 47.1146C22.5884 45.6922 22.8516 43.8575 22.1148 42.0641C21.9569 41.7136 18.9921 38.0854 15.5186 33.9625L9.16799 26.5L15.5186 19.0169C18.9921 14.9146 21.9569 11.2658 22.1148 10.9359C22.8516 9.14246 22.5884 7.30775 21.3604 5.88534C20.3254 4.64846 19.2552 4.25679 17.922 4.64846Z" fill="white"/>
<path d="M55.8264 4.68969C55.458 4.79277 54.8089 5.2669 54.3704 5.72042C53.0897 7.03976 52.7739 9.10123 53.5283 10.9359C53.6862 11.2658 56.6509 14.9146 60.1245 19.0169L66.475 26.5L60.1245 33.9625C56.6509 38.0854 53.6862 41.7136 53.5283 42.0641C52.7915 43.8575 53.0546 45.6922 54.2826 47.1146C55.5808 48.6607 57.1772 48.9081 58.7561 47.8362C59.8262 47.094 74.9133 29.2417 75.229 28.3141C75.5799 27.3246 75.5799 25.6754 75.229 24.6859C74.9133 23.7582 59.8438 5.90596 58.7561 5.16383C57.914 4.58662 56.7211 4.38047 55.8264 4.68969Z" fill="white"/>
</g>
<defs>
<clipPath id="clip0_10_16">
<rect width="75" height="53" fill="white"/>
</clipPath>
</defs>
</svg>
