<svg width="100" height="100" viewBox="0 0 100 100" fill="none" xmlns="http://www.w3.org/2000/svg">
<g clip-path="url(#clip0_13_231)">
<path d="M47.3796 0.760529C45.438 1.2292 43.8535 2.16654 41.6887 4.15282C40.5505 5.20176 39.3231 6.20606 38.966 6.40692C38.0733 6.8756 36.6227 6.83096 34.4802 6.29533C31.8691 5.6258 30.6416 5.53653 28.9009 5.80434C25.5979 6.29533 22.228 8.68333 20.7997 11.4954C20.4426 12.2319 19.8178 13.8834 19.416 15.1778C18.4341 18.3469 17.8985 18.9049 14.7294 19.8645C13.435 20.2663 11.7835 20.8911 11.0694 21.2482C8.21276 22.6766 5.86945 26.0242 5.35615 29.3496C5.08834 31.0904 5.17761 32.3178 5.84713 34.929C6.38274 37.0715 6.42738 38.5222 5.95872 39.4149C5.75786 39.772 4.75358 40.9994 3.70467 42.1377C1.07123 45.0166 0 47.427 0 50.4399C0 53.4974 1.04891 55.7961 3.88321 58.9652C5.04371 60.2597 6.04799 61.5764 6.15957 61.8442C6.42738 62.7146 6.31579 64.0537 5.84713 65.9507C5.17761 68.5619 5.08834 69.7894 5.35615 71.5301C5.84713 74.8332 8.23508 78.2032 11.0471 79.6315C11.7835 79.9886 13.435 80.6135 14.7294 81.0152C17.8985 81.9972 18.4341 82.5328 19.416 85.7019C19.8178 86.9963 20.4426 88.6479 20.7997 89.3843C22.228 92.1964 25.5979 94.5844 28.9009 95.0754C30.6416 95.3432 31.8691 95.2539 34.4802 94.5844C36.6227 94.0488 38.0733 94.0041 38.966 94.4728C39.3231 94.6513 40.5282 95.6556 41.6441 96.6599C44.456 99.2711 47.0225 100.432 49.9238 100.432C53.0705 100.432 55.3246 99.405 58.5382 96.5484C59.855 95.3655 61.194 94.3612 61.5288 94.2719C61.8858 94.205 62.2876 94.0934 62.4661 94.0488C62.6223 94.0041 63.8721 94.2273 65.2558 94.5621C69.6076 95.6333 72.5758 95.2762 75.5887 93.3123C78.0436 91.7277 79.3156 89.7861 80.5654 85.7019C81.5474 82.5328 82.083 81.9972 85.252 81.0152C86.5464 80.6135 88.1979 79.9886 88.9344 79.6315C91.7464 78.2032 94.1343 74.8332 94.6253 71.5301C94.8931 69.7894 94.8038 68.5619 94.1343 65.9507C93.5987 63.8082 93.5541 62.3575 94.0227 61.4648C94.2236 61.1077 95.2279 59.8803 96.2768 58.7421C98.2853 56.5549 99.0888 55.1935 99.6467 53.0064C100.629 49.1454 99.5797 45.7754 96.2991 42.16C95.2502 40.9994 94.2236 39.772 94.0227 39.4149C93.5541 38.5222 93.5987 37.0715 94.1343 34.929C94.8038 32.3178 94.8931 31.0904 94.6253 29.3496C94.1343 26.0465 91.7464 22.6766 88.9344 21.2482C88.1979 20.8911 86.5464 20.2663 85.252 19.8645C82.083 18.8825 81.5474 18.3469 80.5654 15.1778C79.5835 11.9864 78.7354 10.4241 77.1955 8.88419C75.6333 7.29963 73.3346 6.16142 71.0806 5.80434C69.3398 5.53653 68.1124 5.6258 65.5012 6.29533C63.3588 6.83096 61.9082 6.8756 61.0155 6.40692C60.6584 6.20606 59.4309 5.17944 58.2704 4.13051C54.6997 0.872116 51.3074 -0.176819 47.3796 0.760529ZM72.308 35.0629C73.8702 35.9333 74.5621 38.1651 73.7586 39.705C73.4239 40.3969 47.6697 65.2365 46.5985 65.9284C45.8174 66.4194 44.099 66.4863 43.2509 66.04C42.9385 65.8614 38.9883 62.2236 34.5025 57.9163C27.852 51.5781 26.2674 49.9489 25.9773 49.1677C25.1069 46.936 26.5353 44.7042 28.9678 44.4587C29.682 44.3917 30.2846 44.481 30.7309 44.7042C31.088 44.9051 34.3909 47.9403 38.051 51.4442C41.6887 54.948 44.7685 57.8047 44.8801 57.7601C44.9693 57.7155 50.2808 52.6716 56.6859 46.5343C63.091 40.3969 68.648 35.1968 69.0274 34.9736C69.987 34.4603 71.2814 34.4827 72.308 35.0629Z" fill="white"/>
</g>
<defs>
<clipPath id="clip0_13_231">
<rect width="100" height="100" fill="white"/>
</clipPath>
</defs>
</svg>
