<svg width="100" height="100" viewBox="0 0 100 100" fill="none" xmlns="http://www.w3.org/2000/svg">
<path d="M48.8281 0.117134C48.5547 0.156197 47.7344 0.292915 46.9727 0.410103C42.3047 1.17182 37.6172 3.73042 34.0234 7.48042C29.7461 11.9726 27.5391 17.5195 27.5391 23.8281C27.5391 34.2187 34.1797 43.2617 44.1406 46.4453C46.582 47.2265 48.6133 47.5195 51.4648 47.4999C57.9102 47.4609 63.6328 45.039 68.1836 40.4296C72.5781 35.957 75 30.0976 75 23.9062C75 19.9999 74.2969 16.9531 72.5781 13.3789C69.5703 7.10932 63.8867 2.48042 57.0703 0.761665C55.2148 0.273384 54.2773 0.156197 52.0508 0.0976028C50.5469 0.0585403 49.1016 0.0585403 48.8281 0.117134ZM46.4258 9.66792C48.1641 10.3906 49.4922 11.7968 50.1172 13.5156C50.5078 14.6093 50.4883 16.582 50.0977 17.7929C49.707 18.9843 48.1641 20.7226 47.0117 21.2695C43.7305 22.8515 40.0195 21.621 38.4375 18.4179C36.6406 14.746 38.5547 10.5664 42.5586 9.43354C43.6328 9.14057 45.4102 9.23823 46.4258 9.66792ZM65.1562 9.92182C65.5273 10.1562 65.8398 10.9374 65.7422 11.289C65.6836 11.4648 59.8438 17.4023 52.7539 24.4921C40.5273 36.7187 39.8633 37.3437 39.3164 37.2265C39.0234 37.1484 38.6523 36.9531 38.5352 36.7773C37.8516 35.8789 37.7344 35.996 51.1133 22.6171C64.1992 9.5312 64.3555 9.37495 65.1562 9.92182ZM62.5391 25.6445C64.7461 26.6406 66.0352 28.5546 66.1719 31.0351C66.2695 32.8515 65.7812 34.2968 64.668 35.5859C63.4961 36.8945 62.1484 37.5585 60.332 37.6562C57.6562 37.8124 55.5859 36.6992 54.3359 34.414C51.4258 29.082 57.0117 23.1054 62.5391 25.6445Z" fill="white"/>
<path d="M42.7734 11.9726C41.3867 12.4219 40.2344 14.1406 40.2344 15.7422C40.2539 17.1875 41.6797 18.9453 43.1836 19.3359C45.0586 19.8437 47.1875 18.6328 47.7539 16.7383C48.6719 13.6719 45.8789 10.9961 42.7734 11.9726Z" fill="white"/>
<path d="M58.3008 27.9102C57.3633 28.3398 56.7578 28.9648 56.3477 29.9219C55.7422 31.4258 56.0742 33.0078 57.2461 34.1211C58.086 34.9023 58.75 35.1562 59.9805 35.1562C62.0508 35.1562 63.6719 33.5547 63.6719 31.5234C63.6719 30.2734 63.418 29.5703 62.7344 28.8281C61.582 27.5977 59.7656 27.2266 58.3008 27.9102Z" fill="white"/>
<path d="M84.7656 48.1641C84.3359 48.3398 81.1328 51.3867 76.3672 56.1328C69.1016 63.3594 68.5742 63.8477 67.4805 64.2578C66.3281 64.6875 66.2109 64.6875 59.375 64.5703C55.5664 64.5117 50.8008 64.3945 48.7891 64.3359L45.1172 64.1992V62.9883V61.7773L50.7422 61.7969L56.3672 61.8164L57.0898 61.2695C58.0859 60.5078 58.457 59.707 58.4375 58.3594C58.418 57.1875 58.2227 56.6406 57.5391 55.8984C56.543 54.7852 56.5625 54.7852 48.5352 54.7266C43.4961 54.668 40.8789 54.7266 40.3906 54.8633C39.8242 55.0391 38.0859 56.6992 31.9336 62.9297L24.2188 70.8008L31.5234 78.1055L38.8477 85.4297L40.1758 84.1602C41.5625 82.8125 42.0312 82.5 43.0469 82.207C43.3789 82.1094 47.793 81.6406 52.832 81.1523C57.8906 80.6641 62.3633 80.1758 62.793 80.0586C63.457 79.8828 65.3906 78.0469 76.5234 66.9336C83.6523 59.8242 89.6094 53.75 89.7852 53.4375C90.1758 52.6953 90.1758 51.2109 89.7852 50.4688C89.375 49.707 87.9102 48.3203 87.2461 48.0664C86.4844 47.7734 85.5859 47.8125 84.7656 48.1641Z" fill="white"/>
<path d="M17.1875 68.6914C16.6797 68.8672 10.3321 75.2539 10.0782 75.8398C9.94145 76.1523 9.86333 76.6016 9.90239 76.8359C9.96098 77.1094 14.668 81.9531 21.3672 88.6328C31.9922 99.2578 32.7735 100 33.3985 100C34.004 100 34.3946 99.6875 37.6368 96.4258C41.0547 93.0078 41.211 92.832 41.211 92.0898C41.211 91.3281 41.0157 91.1328 30.1368 80.2148C24.0235 74.1016 18.8086 68.9844 18.5157 68.8281C17.9688 68.5352 17.6758 68.5156 17.1875 68.6914ZM34.6875 91.6797C35.625 92.5977 35.7422 93.0859 35.1954 93.75C34.6094 94.4727 33.8477 94.3359 32.8711 93.3008C31.9532 92.3047 31.836 91.7969 32.4219 91.2109C33.0469 90.5859 33.7305 90.7227 34.6875 91.6797Z" fill="white"/>
</svg>
