<svg width="100" height="100" viewBox="0 0 100 100" fill="none" xmlns="http://www.w3.org/2000/svg">
<g clip-path="url(#clip0_15_253)">
<path d="M43.6523 0.292969C32.0898 1.81641 21.8359 7.01172 13.7305 15.5078C6.69922 22.8906 2.08985 32.168 0.468755 42.2852C-0.0195259 45.3125 -0.117182 52.7734 0.273443 56.0547C2.16797 71.6797 11.25 85.3711 25 93.418C30.1172 96.4062 36.0742 98.4961 42.4805 99.5508C45.5664 100.059 54.4336 100.059 57.5195 99.5508C61.8555 98.8281 65.6641 97.7539 69.2773 96.2695C71.8164 95.2148 75 93.5547 75 93.2617C75 93.0859 69.082 82.6953 68.8477 82.4414C68.8086 82.4023 67.9883 82.7734 67.0508 83.2617C58.7891 87.4805 49.1016 88.4766 40.1172 86.0352C30.8789 83.4961 22.832 77.3242 17.7539 68.8477C15.5078 65.0781 13.6719 59.8828 13.0078 55.332C12.5977 52.4805 12.5977 47.5195 13.0078 44.668C15.3906 28.3594 28.3789 15.3711 44.7266 13.0078C47.6367 12.5781 52.5977 12.5781 55.293 12.9883C66.7188 14.7461 76.2891 21.2109 82.2461 31.1523C84.4922 34.9219 86.3281 40.1367 86.9727 44.6289C87.3828 47.5 87.5977 54.1602 87.3438 56.1523C86.9922 58.8281 85.957 60.5273 84.0039 61.6797C83.2031 62.1484 82.9102 62.207 81.25 62.207C79.6875 62.207 79.2578 62.1289 78.5547 61.7578C77.5 61.1914 76.3086 60 75.8008 59.0234C75.0781 57.5977 75 56.1523 75 43.4961V31.25H70.8203H66.6406L64.9805 30C60.4883 26.6211 55.6445 25 50.0195 25C44.707 25 40.3125 26.3086 35.8594 29.2383C34.082 30.4102 30.4102 34.082 29.2383 35.8594C26.3281 40.293 25 44.707 25 50C25 55.3125 26.3281 59.707 29.2383 64.1211C30.4297 65.9375 34.082 69.5898 35.8399 70.7422C38.8477 72.7148 42.3242 74.1211 45.5859 74.707C49.2773 75.3516 54.3359 74.9805 57.8125 73.8281C59.8438 73.1641 62.8711 71.582 64.5508 70.332C65.4102 69.6875 66.3086 69.0039 66.5625 68.8281C66.9922 68.5156 67.0312 68.5156 68.125 69.6289C70.6836 72.207 73.9258 73.9453 77.5977 74.7266C79.375 75.0977 83.2227 75.0781 85.1172 74.6875C90.7422 73.5352 95.332 69.9023 97.9492 64.5508C99.7656 60.8398 99.8633 60.293 99.9609 52.8711C100.039 45.8203 99.8438 43.3398 98.9062 39.082C94.3555 18.5742 77.0898 2.87109 56.25 0.292969C53.2813 -0.0585938 46.4648 -0.0585938 43.6523 0.292969ZM53.0078 38.0078C56.7383 38.9062 60.0977 41.9141 61.5625 45.6055C62.0898 46.9531 62.1875 47.4805 62.2656 49.4141C62.3242 51.1133 62.2656 51.9727 62.0117 52.9297C59.7852 61.5039 49.6484 65.1758 42.6758 59.9219C40.3516 58.1641 38.6914 55.7227 37.9883 53.0273C37.6172 51.543 37.6172 48.457 37.9883 46.9727C39.707 40.4102 46.4063 36.4062 53.0078 38.0078Z" fill="white"/>
</g>
<defs>
<clipPath id="clip0_15_253">
<rect width="100" height="100" fill="white"/>
</clipPath>
</defs>
</svg>
