<svg width="50" height="50" viewBox="0 0 50 50" fill="none" xmlns="http://www.w3.org/2000/svg">
<g clip-path="url(#clip0_51_3)">
<path d="M5.12695 0.146484C3.87695 0.419922 2.79297 1.01562 1.91406 1.89453C1.18164 2.62695 0.693359 3.41797 0.322266 4.44336L0.0488281 5.22461V11.7188V18.2129L0.322266 18.9941C1.03516 21.0059 2.44141 22.4023 4.48242 23.125L5.22461 23.3887H11.7188H18.2129L18.9941 23.1152C21.0059 22.4023 22.4023 20.9961 23.125 18.9551L23.3887 18.2129V11.7188V5.22461L23.125 4.48242C22.4023 2.44141 21.0059 1.03516 18.9941 0.322266L18.2129 0.0488281L11.9629 0.0292969C7.04102 0.0195312 5.58594 0.0390625 5.12695 0.146484ZM18.3789 3.44727C19.082 3.78906 19.6484 4.35547 19.9902 5.05859L20.2637 5.61523V11.7188V17.8223L20 18.3594C19.6582 19.0527 19.0527 19.6582 18.3691 20L17.8223 20.2637H11.7188H5.61523L5.07812 20C4.38477 19.6582 3.7793 19.0527 3.4375 18.3691L3.17383 17.8223L3.14453 12.0117C3.125 7.95898 3.14453 6.04492 3.22266 5.69336C3.44727 4.66797 4.35547 3.67188 5.40039 3.30078C5.86914 3.14453 6.34766 3.13477 11.8652 3.1543L17.8223 3.17383L18.3789 3.44727Z" fill="white"/>
<path d="M31.6895 0.146484C30.4395 0.419922 29.3555 1.01562 28.4766 1.89453C27.7441 2.62695 27.2559 3.41797 26.8848 4.44336L26.6113 5.22461V11.7188V18.2129L26.8848 18.9941C27.5977 21.0059 29.0039 22.4023 31.0449 23.125L31.7871 23.3887H38.2812H44.7754L45.5566 23.1152C47.5684 22.4023 48.9648 20.9961 49.6875 18.9551L49.9512 18.2129V11.7188V5.22461L49.6875 4.48242C48.9648 2.44141 47.5684 1.03516 45.5566 0.322266L44.7754 0.0488281L38.5254 0.0292969C33.6035 0.0195312 32.1484 0.0390625 31.6895 0.146484ZM44.9414 3.44727C45.6445 3.78906 46.2109 4.35547 46.5527 5.05859L46.8262 5.61523V11.7188V17.8223L46.5625 18.3594C46.2207 19.0527 45.6152 19.6582 44.9316 20L44.3848 20.2637H38.2812H32.1777L31.6406 20C30.9473 19.6582 30.3418 19.0527 30 18.3691L29.7363 17.8223L29.707 12.0117C29.6875 7.95898 29.707 6.04492 29.7852 5.69336C30.0098 4.66797 30.918 3.67188 31.9629 3.30078C32.4316 3.14453 32.9102 3.13477 38.4277 3.1543L44.3848 3.17383L44.9414 3.44727Z" fill="white"/>
<path d="M5.12695 26.709C3.87695 26.9824 2.79297 27.5781 1.91406 28.457C1.18164 29.1895 0.693359 29.9805 0.322266 31.0059L0.0488281 31.7871V38.2813V44.7754L0.322266 45.5566C1.03516 47.5684 2.44141 48.9648 4.48242 49.6875L5.22461 49.9512H11.7188H18.2129L18.9941 49.6777C21.0059 48.9648 22.4023 47.5586 23.125 45.5176L23.3887 44.7754V38.2813V31.7871L23.125 31.0449C22.4023 29.0039 21.0059 27.5977 18.9941 26.8848L18.2129 26.6113L11.9629 26.5918C7.04102 26.582 5.58594 26.6016 5.12695 26.709ZM18.3789 30.0098C19.082 30.3516 19.6484 30.918 19.9902 31.6211L20.2637 32.1777V38.2813V44.3848L20 44.9219C19.6582 45.6152 19.0527 46.2207 18.3691 46.5625L17.8223 46.8262H11.7188H5.61523L5.07812 46.5625C4.38477 46.2207 3.7793 45.6152 3.4375 44.9316L3.17383 44.3848L3.14453 38.5742C3.125 34.5215 3.14453 32.6074 3.22266 32.2559C3.44727 31.2305 4.35547 30.2344 5.40039 29.8633C5.86914 29.707 6.34766 29.6973 11.8652 29.7168L17.8223 29.7363L18.3789 30.0098Z" fill="white"/>
<path d="M37.1094 26.6113C37.0312 26.6309 36.6309 26.6992 36.2305 26.7578C32.7344 27.3242 29.4531 29.7754 27.8125 33.0566C26.9434 34.7852 26.6211 36.1816 26.6113 38.2324C26.6113 39.8242 26.7188 40.5664 27.1582 41.9141C28.1055 44.8438 30.2734 47.3535 33.0859 48.7695C33.916 49.1895 35.1953 49.6191 36.1816 49.8145C37.1875 50.0195 39.5898 49.9902 40.625 49.7656C44.7559 48.877 48.125 45.8691 49.4043 41.9141C49.834 40.5859 49.9512 39.8145 49.9512 38.2813C49.9512 37.4707 49.8926 36.5723 49.8145 36.1816C48.8867 31.5039 45.4102 27.8906 40.8203 26.8457C40.0586 26.6699 37.5195 26.5039 37.1094 26.6113ZM39.7949 29.834C41.4941 30.1367 43.0859 30.9766 44.3359 32.2266C47.6953 35.5762 47.6953 40.9961 44.3457 44.3457C40.9961 47.6953 35.6152 47.6953 32.2363 44.3457C28.8574 40.9961 28.8574 35.5664 32.2363 32.2168C34.2676 30.1953 36.9824 29.3457 39.7949 29.834Z" fill="white"/>
</g>
<defs>
<clipPath id="clip0_51_3">
<rect width="50" height="50" fill="white"/>
</clipPath>
</defs>
</svg>
