<svg width="100" height="100" viewBox="0 0 100 100" fill="none" xmlns="http://www.w3.org/2000/svg">
<g clip-path="url(#clip0_13_206)">
<path d="M43.75 3.32031C43.75 5.82031 43.6914 6.66016 43.5156 6.71875C43.3789 6.75781 42.2461 6.97266 41.0156 7.22656C39.7852 7.46094 37.7539 7.98828 36.5234 8.39844C35.293 8.80859 34.1602 9.16016 34.0039 9.19922C33.8281 9.25781 33.1641 8.30078 32.1289 6.54297C31.1133 4.80469 30.4102 3.80859 30.2344 3.82812C29.9023 3.86719 20.3906 9.25781 19.9414 9.6875C19.707 9.90234 19.9023 10.3516 21.25 12.7148C22.1289 14.2383 22.8516 15.5273 22.8516 15.6055C22.8516 15.6641 22.3633 16.1133 21.7773 16.582C20.5664 17.5586 16.6211 21.5625 16.1133 22.3438C15.918 22.6172 15.7031 22.8516 15.625 22.8516C15.5469 22.8516 14.2383 22.1289 12.7148 21.25C10.3516 19.9023 9.90234 19.707 9.6875 19.9414C9.25781 20.4102 3.86719 29.8828 3.82812 30.2148C3.80859 30.4297 4.72656 31.0547 6.54297 32.1289C8.30078 33.1641 9.25781 33.8281 9.19922 34.0039C9.16016 34.1602 8.80859 35.293 8.39844 36.5234C7.98828 37.7539 7.46094 39.7852 7.22656 41.0156C6.97266 42.2461 6.75781 43.3789 6.71875 43.4961C6.66016 43.6914 5.82031 43.75 3.32031 43.75H0V50V56.25H3.32031C5.82031 56.25 6.66016 56.3086 6.71875 56.4844C6.75781 56.6211 6.97266 57.7539 7.22656 58.9844C7.46094 60.2148 7.98828 62.2461 8.39844 63.4766C8.80859 64.707 9.16016 65.8398 9.19922 65.9961C9.25781 66.1719 8.30078 66.8359 6.54297 67.8711C4.80469 68.8867 3.80859 69.5898 3.82812 69.7656C3.86719 70.0977 9.25781 79.6094 9.6875 80.0586C9.90234 80.293 10.3516 80.0977 12.7148 78.75C14.2383 77.8711 15.5469 77.1484 15.625 77.1484C15.7031 77.1484 15.918 77.3828 16.1133 77.6562C16.6211 78.4375 20.5664 82.4414 21.7773 83.418C22.3633 83.8867 22.8516 84.3359 22.8516 84.3945C22.8516 84.4727 22.1289 85.7617 21.25 87.2852C19.9023 89.6484 19.707 90.0977 19.9414 90.3125C20.3906 90.7422 29.9023 96.1328 30.2344 96.1719C30.4102 96.1914 31.1133 95.1953 32.1289 93.457C33.1641 91.6992 33.8281 90.7422 34.0039 90.8008C34.1602 90.8398 35.293 91.1914 36.5234 91.6016C37.7734 92.0117 39.7852 92.5391 41.0156 92.7734C42.2461 93.0078 43.3789 93.2422 43.5156 93.2812C43.6914 93.3203 43.75 94.1797 43.75 96.6797V100H50H56.25V96.6797C56.25 94.1797 56.3086 93.3203 56.5039 93.2812C56.6211 93.2422 57.7148 93.0273 58.9062 92.793C60.1172 92.5781 62.1289 92.0508 63.3984 91.6211C64.6875 91.2109 65.8398 90.8398 65.9961 90.8008C66.1719 90.7422 66.8359 91.6992 67.8711 93.457C68.9648 95.332 69.5703 96.1914 69.7852 96.1719C70.1367 96.1328 79.5898 90.7422 80.0586 90.3125C80.293 90.0977 80.0977 89.6484 78.75 87.2852C77.8711 85.7617 77.1484 84.4727 77.1484 84.3945C77.1484 84.3359 77.6367 83.8867 78.2227 83.418C79.4336 82.4414 83.3789 78.4375 83.8867 77.6562C84.082 77.3828 84.2969 77.1484 84.375 77.1484C84.4531 77.1484 85.7617 77.8711 87.2852 78.75C89.6484 80.0977 90.0977 80.293 90.3125 80.0586C90.7422 79.5898 96.1523 70.0977 96.1719 69.7656C96.1914 69.5508 95.2734 68.9062 93.457 67.8516C91.6992 66.8359 90.7422 66.1719 90.8008 65.9961C90.8398 65.8398 91.1914 64.707 91.6016 63.4766C92.0117 62.2266 92.5391 60.2148 92.7734 58.9844C93.0078 57.7539 93.2422 56.6211 93.2812 56.4844C93.3203 56.3086 94.1797 56.25 96.6797 56.25H100V50V43.75H96.6797C94.1797 43.75 93.3203 43.6914 93.2812 43.4961C93.2422 43.3789 93.0078 42.2461 92.7734 41.0156C92.5391 39.7852 92.0117 37.7734 91.6016 36.5234C91.1914 35.293 90.8398 34.1602 90.8008 34.0039C90.7422 33.8281 91.6992 33.1641 93.457 32.1484C95.2734 31.0938 96.1914 30.4492 96.1719 30.2344C96.1523 29.9023 90.7422 20.4102 90.3125 19.9414C90.0977 19.707 89.6484 19.9023 87.2852 21.25C85.7617 22.1289 84.4531 22.8516 84.375 22.8516C84.2969 22.8516 84.082 22.6172 83.8867 22.3438C83.3789 21.5625 79.4336 17.5586 78.2227 16.582C77.6367 16.1133 77.1484 15.6641 77.1484 15.6055C77.1484 15.5273 77.8711 14.2383 78.75 12.7148C80.0977 10.3516 80.293 9.90234 80.0586 9.6875C79.5898 9.25781 70.1367 3.86719 69.7852 3.82812C69.5703 3.80859 68.9648 4.66797 67.8711 6.54297C66.8359 8.30078 66.1719 9.25781 65.9961 9.19922C65.8398 9.16016 64.6875 8.78906 63.4375 8.37891C62.168 7.96875 60.1562 7.44141 58.9453 7.20703C57.7344 6.97266 56.6211 6.75781 56.5039 6.71875C56.3086 6.66016 56.25 5.82031 56.25 3.32031V0H50H43.75V3.32031ZM53.6133 16.0156C60.625 16.8359 66.9727 19.5898 72.3633 24.1992C77.4609 28.5352 81.4453 35 83.1055 41.543C87.0703 57.3438 79.5703 73.5156 64.9414 80.6836C49.6289 88.1836 31.1719 83.2031 21.6211 68.9844C14.8438 58.9062 13.9648 45.9961 19.3164 35.0586C25.6836 22.0898 39.5117 14.4141 53.6133 16.0156Z" fill="white"/>
<path d="M47.0703 21.7969C42.2852 22.4023 38.0078 24.0039 33.9453 26.6797C31.9727 27.9883 27.8906 32.1094 26.543 34.1797C24.375 37.4805 22.8906 41.0547 22.1289 44.8633C21.6602 47.2656 21.6602 52.7344 22.1289 55.1367C23.2422 60.6445 25.7227 65.4492 29.4922 69.4141C33.7305 73.8281 38.3789 76.4258 44.4727 77.7734C47.2461 78.3789 52.7539 78.3789 55.6055 77.7734C59.3164 76.9727 62.5781 75.6055 65.8203 73.457C67.8906 72.1094 72.0117 68.0273 73.3203 66.0547C75.5664 62.6367 77.1094 58.9453 77.8711 55.1367C78.3398 52.7539 78.3398 47.2461 77.8711 44.8633C77.1094 41.0352 75.5469 37.3047 73.3203 33.9648C72.0508 32.0703 68.8672 28.7695 66.7969 27.2266C63.6914 24.9219 59.6094 23.0859 55.7031 22.2656C53.8477 21.875 48.6914 21.6016 47.0703 21.7969ZM69.7266 43.6523V51.3672H66.7969H63.8672V48.6914V45.9961L56.9336 52.9297L50 59.8633L46.875 56.7383L43.75 53.6133L38.5156 58.8477L33.3008 64.0625L31.25 62.0117L29.1992 59.9609L36.4844 52.6758L43.75 45.4102L46.875 48.5352L50 51.6602L54.9414 46.7188L59.8633 41.7969H57.0703H54.2969V39.0039C54.2969 37.4609 54.3555 36.1328 54.4336 36.0742C54.4922 35.9961 57.9688 35.9375 62.1484 35.9375H69.7266V43.6523Z" fill="white"/>
</g>
<defs>
<clipPath id="clip0_13_206">
<rect width="100" height="100" fill="white"/>
</clipPath>
</defs>
</svg>
