<svg width="100" height="101" viewBox="0 0 100 101" fill="none" xmlns="http://www.w3.org/2000/svg">
<g clip-path="url(#clip0_13_179)">
<path d="M16.3867 0.713627C13.6719 2.13941 11.582 8.60425 10.3516 19.366C9.55078 26.3972 8.98438 38.3894 8.98438 48.2136V53.2527H17.8125H26.6211L26.5039 44.6003C26.1523 20.4207 24.1992 6.55347 20.4883 1.86597C19.3359 0.420658 17.7734 -0.0285606 16.3867 0.713627Z" fill="white"/>
<path d="M53.5547 6.39725C49.9805 6.72928 45.9961 7.68631 42.0899 9.15115C37.793 10.7332 30.3516 14.8543 30.5469 15.5183C30.918 16.7097 32.0313 29.5613 32.0313 32.6472C32.0313 33.3894 32.0899 34.3465 32.1485 34.7371L32.2852 35.4793H33.2813C38.0078 35.4988 42.0117 39.5418 41.9922 44.2683C41.9727 47.491 40.1758 50.4598 37.3633 51.9441C35.957 52.6668 34.0039 53.1551 33.0469 53.0183L32.461 52.9402L32.3438 57.7254C32.2852 60.3621 32.168 63.448 32.1094 64.5808L31.9922 66.6316L33.3399 67.2957C36.4063 68.7996 38.5547 70.8308 39.8438 73.4285C41.1914 76.1629 41.5039 78.8973 40.8789 82.5887C40.4492 85.1473 40.6641 86.866 41.6797 88.8777C42.9297 91.4363 45.1953 93.0183 48.418 93.5848C62.7149 96.1043 77.5977 91.2019 87.7344 80.6355C100.469 67.3152 103.594 47.823 95.6055 31.3972C93.1836 26.4168 90.4297 22.6277 86.3672 18.6433C77.1875 9.63943 65.4102 5.2449 53.5547 6.39725ZM51.8555 19.1707C56.3086 20.3426 59.1992 24.659 58.4375 29.0535C57.6953 33.3308 54.082 36.4363 49.8047 36.4558C45.0391 36.4754 41.0156 32.4519 41.0156 27.6668C41.0156 22.0418 46.4649 17.784 51.8555 19.1707ZM74.043 25.1277C78.5938 25.9871 81.836 30.5379 81.0938 35.0301C80.2344 40.2449 75.2539 43.5262 70.2149 42.2176C68.5742 41.7879 67.3438 41.0457 66.1328 39.7762C64.9414 38.5262 64.375 37.5496 63.9649 35.9285C62.9297 31.9441 64.8047 27.784 68.4375 26.0066C70.4688 24.991 72.0313 24.7566 74.043 25.1277ZM80.5274 47.8816C85 49.0535 87.9102 53.3504 87.168 57.6863C85.957 64.6785 77.7735 67.5691 72.6172 62.823C68.8672 59.3855 68.75 53.7801 72.3438 50.2254C74.6289 47.9793 77.5977 47.1199 80.5274 47.8816ZM64.1602 64.4832C65.7031 64.8933 67.207 65.8113 68.3594 67.0808C73.1055 72.2371 70.2149 80.4207 63.2227 81.6316C59.6094 82.2371 55.6445 80.1473 54.082 76.7879C52.4219 73.2527 53.0469 69.5613 55.7617 66.8074C58.0274 64.5223 61.0742 63.6824 64.1602 64.4832Z" fill="white"/>
<path d="M48.4961 25.1081C46.3476 26.0847 46.3867 29.2683 48.5547 30.3034C50.0781 31.0261 51.8555 30.3034 52.4414 28.7409C53.0273 27.237 52.3437 25.6355 50.8398 25.0105C50 24.6394 49.4726 24.6784 48.4961 25.1081Z" fill="white"/>
<path d="M71.0938 31.2214C69.9805 31.8073 69.4727 32.7058 69.5899 33.9753C69.7461 35.6745 70.9961 36.7488 72.6758 36.5925C73.8672 36.4948 74.6875 35.8894 75.0977 34.7956C75.6836 33.2917 75 31.6902 73.4961 31.0652C72.6172 30.6941 72.0899 30.7331 71.0938 31.2214Z" fill="white"/>
<path d="M77.1485 53.8777C76.0352 54.4637 75.5274 55.3621 75.6445 56.5926C75.8985 59.6395 79.961 60.323 81.1328 57.5301C81.7578 55.9871 81.0938 54.3465 79.5508 53.7215C78.6719 53.3504 78.1445 53.3895 77.1485 53.8777Z" fill="white"/>
<path d="M60.5664 70.3816C58.7891 71.2605 58.5156 73.7605 60.0586 75.1082C61.4453 76.3191 63.5156 75.9871 64.4141 74.4441C65.8594 71.9246 63.1836 69.0926 60.5664 70.3816Z" fill="white"/>
<path d="M32.5195 41.573C32.4609 41.7293 32.4414 43.0379 32.4609 44.4832C32.5195 47.0808 32.5195 47.1004 32.9883 47.159C33.7109 47.2761 35.1172 46.6316 35.5664 45.9871C36.4844 44.7176 36.1719 42.784 34.9219 41.8855C34.1797 41.3777 32.6758 41.1629 32.5195 41.573Z" fill="white"/>
<path d="M9.23828 63.0378C9.31641 65.2058 9.39453 67.0222 9.45312 67.0612C9.49219 67.1003 9.98047 66.9245 10.5078 66.6511C11.0547 66.3776 12.2656 65.9089 13.2227 65.6159C14.7461 65.1667 15.2539 65.1081 17.7734 65.1081C20.293 65.1081 20.8008 65.1667 22.3242 65.6159C23.2812 65.9089 24.4922 66.3776 25.0391 66.6511C25.5664 66.9245 26.0547 67.1003 26.0938 67.0612C26.1523 67.0222 26.2305 65.2058 26.3086 63.0378L26.4258 59.112H17.7734H9.12109L9.23828 63.0378Z" fill="white"/>
<path d="M14.8828 71.2214C12.7539 71.7878 11.2305 72.6667 9.57031 74.3464C7.87109 76.0261 7.01172 77.53 6.44531 79.7371C6.11328 80.9871 6.05469 81.905 6.05469 85.1863C6.05469 89.6394 5.89844 90.5378 4.80469 91.9636C3.90625 93.155 2.53906 94.0144 1.13281 94.3074L0 94.5417V97.4324V100.323H6.62109C13.9844 100.323 15.5078 100.167 18.2031 99.1316C21.1523 97.9792 24.5117 95.323 26.3477 92.6277C28.8086 89.0535 30.0195 83.78 29.2188 80.1472C28.6914 77.823 27.7148 76.0457 25.9961 74.3464C24.2969 72.6472 22.793 71.7878 20.5859 71.2214C18.7109 70.7332 16.7383 70.7332 14.8828 71.2214Z" fill="white"/>
</g>
<defs>
<clipPath id="clip0_13_179">
<rect width="100" height="100" fill="white" transform="translate(0 0.322998)"/>
</clipPath>
</defs>
</svg>
