<svg width="100" height="100" viewBox="0 0 100 100" fill="none" xmlns="http://www.w3.org/2000/svg">
<g clip-path="url(#clip0_15_257)">
<path d="M5.37108 0.351326C2.92968 1.19117 0.859365 3.41773 0.195303 5.91773C-0.136728 7.12867 0.039053 14.6287 0.488272 18.3591C1.7578 29.1013 4.51171 38.574 9.16015 48.1443C13.8281 57.7732 19.2773 65.3904 26.9336 73.0662C34.6094 80.7224 42.2266 86.1716 51.8555 90.8396C61.4258 95.488 70.8984 98.242 81.6406 99.5115C85.3711 99.9607 92.8711 100.136 94.082 99.8045C95.957 99.3162 97.7344 97.988 98.8086 96.3084C100 94.4724 100 94.492 100 82.7927C100 73.3591 99.9609 72.031 99.668 71.1716C99.043 69.3162 97.9687 67.9295 96.3867 66.8943C94.8242 65.8982 93.7891 65.6443 90.7422 65.5076C85.3906 65.3123 81.0156 64.6091 76.1719 63.2224C72.8711 62.2849 70.8008 62.1482 68.9648 62.7537C67.6172 63.2029 67.6758 63.1638 60.7812 68.3982L54.9414 72.8123L52.5195 71.406C41.6992 65.1365 34.8242 58.2615 28.5937 47.4802L27.1875 45.0584L31.6016 39.199C34.043 35.9763 36.2305 33.0662 36.4844 32.7341C37.1484 31.8357 37.6953 29.8435 37.6953 28.3201C37.6953 27.3826 37.4805 26.2302 36.8945 24.199C35.4297 19.0037 34.8828 15.5857 34.5703 9.86304C34.3945 6.40601 34.2187 5.50758 33.4961 4.10133C33.0273 3.18336 31.5039 1.62086 30.5469 1.05445C28.7695 0.0192947 28.6719 -0.000236511 17.0898 0.0192947C7.48046 0.0192947 6.24999 0.0583572 5.37108 0.351326Z" fill="white"/>
</g>
<defs>
<clipPath id="clip0_15_257">
<rect width="100" height="100" fill="white"/>
</clipPath>
</defs>
</svg>
