<svg width="100" height="100" viewBox="0 0 100 100" fill="none" xmlns="http://www.w3.org/2000/svg">
<path d="M40.5863 2.44141C38.9262 3.78906 37.4809 4.88281 37.4027 4.88281C37.3246 4.88281 35.5863 4.39453 33.5356 3.80859C31.5043 3.20312 29.766 2.77344 29.6684 2.83203C29.5707 2.89062 28.7309 4.33594 27.7934 6.05469C26.8559 7.77344 25.9379 9.35547 25.7621 9.55078C25.5082 9.86328 24.766 10 21.5434 10.3516C19.3949 10.5859 17.6371 10.7812 17.6176 10.8008C17.5981 10.8203 17.4027 12.6367 17.1488 14.8438C16.9145 17.0508 16.6996 18.8477 16.6801 18.8672C16.6801 18.8867 15.0785 19.7461 13.1449 20.8008C11.2113 21.8555 9.60978 22.7344 9.59025 22.7539C9.55119 22.7734 10.059 24.5508 10.684 26.6992L11.8168 30.625L9.29728 33.7891C7.91056 35.5273 6.81681 37.0508 6.85587 37.168C6.91447 37.3047 8.04728 38.75 9.39494 40.4102L11.8168 43.418L10.684 47.3438C10.059 49.4922 9.57072 51.2695 9.59025 51.2695C9.60978 51.2891 11.2113 52.168 13.1449 53.2227C15.0785 54.2773 16.6801 55.1562 16.6996 55.1562C16.6996 55.1758 16.9145 56.9922 17.1684 59.1992L17.5981 63.2422L18.3012 63.3398C18.6918 63.3984 20.4496 63.5938 22.227 63.7891C24.8442 64.043 25.5082 64.1797 25.7621 64.4727C25.9379 64.668 26.8559 66.2305 27.7738 67.9492C28.7113 69.668 29.5512 71.1328 29.6488 71.1914C29.766 71.25 31.5629 70.8203 33.6527 70.2148C36.1723 69.4727 37.559 69.1602 37.7152 69.2773C37.852 69.3945 39.2777 70.5273 40.9184 71.8359L43.8676 74.1992L47.0317 71.6797C48.7895 70.2734 50.2543 69.1406 50.3324 69.1406C50.391 69.1406 52.1488 69.6289 54.2192 70.2344C56.309 70.8398 58.0863 71.25 58.1645 71.1719C58.2621 71.0742 59.141 69.4922 60.1371 67.6758C61.1332 65.8398 61.9731 64.3164 62.0121 64.2773C62.0512 64.2188 63.8481 63.9844 66.016 63.75C68.1645 63.4961 70.0004 63.2227 70.0785 63.1445C70.1567 63.0664 70.4106 61.2305 70.6254 59.1016C70.8598 56.9531 71.0746 55.1953 71.0942 55.1758C71.1332 55.1562 72.7152 54.2773 74.6293 53.2227C76.9535 51.9531 78.0863 51.2305 78.0863 51.0156C78.0863 50.8203 77.5981 49.0625 77.0121 47.0703C76.4457 45.0977 76.0356 43.3789 76.1137 43.2617C76.1918 43.1641 77.3442 41.7383 78.6332 40.0977C79.9418 38.457 81.016 37.0898 81.016 37.0508C81.016 36.9922 79.8637 35.5273 78.477 33.7695C77.0707 32.0312 75.9574 30.5078 75.9965 30.3906C76.2699 29.6875 78.0863 23.2422 78.0863 22.9883C78.0863 22.8125 76.7387 21.9531 74.6293 20.8008C72.7152 19.7461 71.1332 18.8867 71.0942 18.8477C71.0746 18.8281 70.8598 17.0703 70.6254 14.9219C70.4106 12.793 70.1567 10.957 70.0785 10.8789C70.0004 10.7812 68.1645 10.5273 65.9965 10.293L62.0707 9.86328L60.1957 6.44531C59.1606 4.57031 58.2621 2.94922 58.1645 2.87109C58.0863 2.77344 56.3481 3.20312 54.2973 3.78906C52.2465 4.39453 50.4887 4.88281 50.391 4.88281C50.2738 4.88281 48.8285 3.78906 47.1488 2.44141C45.4887 1.09375 44.0043 0 43.8676 0C43.7309 0.0195312 42.2465 1.11328 40.5863 2.44141ZM45.6449 17.3828C55.4887 18.3984 62.9887 26.2109 63.5746 36.0547C64.102 45.2344 57.7738 53.7695 48.6332 56.1523C39.7856 58.4766 30.3324 54.0234 26.2309 45.6055C24.6488 42.3633 24.2973 40.8008 24.2973 37.0117C24.2973 33.3008 24.6293 31.7188 26.1137 28.6133C29.1215 22.3242 35.0981 18.0859 41.9535 17.3828C42.7543 17.3047 43.477 17.2266 43.5356 17.207C43.6137 17.207 44.5512 17.2852 45.6449 17.3828Z" fill="white"/>
<path d="M41.895 23.0668C38.5356 23.5551 35.8598 24.9808 33.477 27.559C31.934 29.2191 30.645 31.7191 30.1567 33.9262C29.1801 38.3207 30.4692 43.223 33.4575 46.4457C40.8989 54.473 53.8872 51.641 57.3442 41.2504C57.7739 39.9418 57.852 39.3949 57.852 37.1097C57.8715 34.8637 57.7934 34.2582 57.4223 33.0082C55.7231 27.6176 51.309 23.8285 45.7817 23.0668C44.0825 22.8324 43.5161 22.8324 41.895 23.0668Z" fill="white"/>
<path d="M6.03557 77.754C2.6762 83.4572 -0.0386462 88.1447 0.000416314 88.1837C0.0199476 88.2033 3.75042 87.6369 8.26214 86.9142C12.7739 86.1915 16.5043 85.6251 16.5629 85.6447C16.6215 85.6837 18.1645 88.9259 19.9809 92.8517C21.8168 96.7775 23.3793 99.9611 23.4965 99.922C23.7114 99.8634 36.6606 76.1915 36.6801 75.8204C36.6801 75.6837 36.5434 75.5275 36.3871 75.4689C36.2309 75.4103 34.0434 75.9572 31.5239 76.6798C29.0043 77.4025 26.895 77.9689 26.8559 77.9298C26.8168 77.8712 25.7817 75.9962 24.5707 73.7501C23.145 71.1525 22.2075 69.629 21.9535 69.5314C21.7192 69.4337 19.7465 69.1798 17.5395 68.9454C12.3637 68.4181 12.4614 68.4376 12.4614 67.8517C12.4614 67.5978 12.3832 67.3829 12.3051 67.3829C12.227 67.3829 9.39495 72.0509 6.03557 77.754Z" fill="white"/>
<path d="M75.3519 67.8711C75.3519 68.1445 75.3324 68.3594 75.3129 68.3789C75.2738 68.3789 73.0668 68.6328 70.4105 68.9258C67.7543 69.2383 65.5472 69.5117 65.5082 69.5508C65.4691 69.5898 64.5121 71.3477 63.3597 73.457C62.2074 75.5664 61.1527 77.4609 61.016 77.6367C60.7816 77.9492 60.4691 77.8906 56.2894 76.6797C53.8285 75.9766 51.7386 75.3906 51.6215 75.3906C50.8011 75.4102 51.0551 75.9375 57.5394 87.8125C61.1722 94.4531 64.2386 99.8828 64.3363 99.8828C64.434 99.8633 66.016 96.6797 67.8324 92.8125C69.6683 88.9258 71.1918 85.7227 71.2504 85.6641C71.309 85.625 75.0394 86.1719 79.5511 86.8945C84.0629 87.6367 87.7933 88.2031 87.8324 88.1641C87.9301 88.0664 75.6644 67.3828 75.5082 67.3828C75.4105 67.3828 75.3519 67.5977 75.3519 67.8711Z" fill="white"/>
</svg>
