<svg width="100" height="100" viewBox="0 0 100 100" fill="none" xmlns="http://www.w3.org/2000/svg">
<g clip-path="url(#clip0_13_228)">
<path d="M45.332 0.195328C28.3789 1.83595 13.2226 12.1094 5.54687 27.1875C2.83202 32.5195 1.23046 37.6563 0.351555 43.8477C-0.0390701 46.582 0.0195236 53.6914 0.468742 56.7383C1.23046 62.168 2.83202 67.3047 5.29296 72.2461C10.1562 82.0508 17.9297 89.8242 27.7539 94.707C43.6719 102.637 62.5 101.543 77.3437 91.8359C83.1445 88.0469 88.6523 82.4219 92.4023 76.4453C93.8476 74.1797 95.9961 69.7656 96.9726 67.1094C97.9687 64.4141 99.1211 59.7656 99.5312 56.7383C99.9805 53.6719 100.039 46.5625 99.6484 43.8477C98.4961 35.7422 95.918 28.8281 91.6406 22.3828C89.8437 19.6484 88.0273 17.4219 85.4883 14.8633C77.6953 6.9922 68.0078 2.10939 56.9336 0.468765C54.5508 0.117203 47.832 -0.0390472 45.332 0.195328ZM32.8711 26.4063C34.7266 26.9727 36.6992 29.6484 37.5195 32.7539C38.1055 34.9024 38.1055 38.9453 37.5391 41.0156C36.6797 44.1992 35.332 46.2695 33.5742 47.1484C31.7187 48.0664 30.1562 47.7539 28.5156 46.0938C27.3437 44.9219 26.4062 43.2227 25.8398 41.1914C25.3516 39.4336 25.3516 34.6094 25.8398 32.8125C26.7578 29.4336 28.3984 27.168 30.4492 26.4453C31.3476 26.1133 31.8945 26.1133 32.8711 26.4063ZM70.4101 26.8555C71.9726 27.7539 73.3984 30 74.1406 32.7149C74.6289 34.5117 74.7266 38.2617 74.3359 40.1758C72.4219 49.6289 64.9219 50.2344 62.4805 41.1133C62.1484 39.8828 62.0508 38.9844 62.0508 36.9141C62.0508 33.9844 62.4023 32.2266 63.418 30.1367C64.0625 28.7695 66.0351 26.7188 66.9922 26.4063C67.9883 26.0938 69.4336 26.2695 70.4101 26.8555ZM27.2656 59.7852C30.957 61.0742 37.6367 62.3828 43.1641 62.9102C46.7773 63.2422 55.332 63.2031 59.082 62.8125C64.4726 62.2461 70.1172 61.1328 73.8086 59.8633C76.2695 59.0234 77.8125 59.3359 78.5937 60.8399L78.9648 61.5625L78.4375 63.6328C76.0937 72.8906 67.7734 79.8828 56.7187 81.8555C53.5937 82.4219 48.3008 82.4609 45.2344 81.9531C38.6133 80.8789 33.0273 78.1641 28.9062 74.0234C25.8594 70.9961 23.8476 67.5195 22.8711 63.6914C22.3633 61.6602 22.3633 61.3867 22.8516 60.5859C23.5937 59.3555 25.2344 59.0625 27.2656 59.7852Z" fill="white"/>
</g>
<defs>
<clipPath id="clip0_13_228">
<rect width="100" height="100" fill="white"/>
</clipPath>
</defs>
</svg>
